<?xml version="1.0" encoding="UTF-8" standalone="no"?>
<!-- Generator: Adobe Illustrator 25.4.1, SVG Export Plug-In . SVG Version: 6.00 Build 0)  -->

<svg
   version="1.1"
   id="Layer_1"
   x="0px"
   y="0px"
   viewBox="0 0 311443.23 34472.979"
   xml:space="preserve"
   width="311443.22"
   height="34472.98"
   xmlns="http://www.w3.org/2000/svg"
   xmlns:svg="http://www.w3.org/2000/svg"><defs
   id="defs110" />
<linearGradient
   id="SVGID_1_"
   gradientUnits="userSpaceOnUse"
   x1="61.6427"
   y1="82.612297"
   x2="507.15781"
   y2="82.612297">
	<stop
   offset="0"
   style="stop-color:#AE8626"
   id="stop1" />
	<stop
   offset="0.25"
   style="stop-color:#F6D77D"
   id="stop2" />
	<stop
   offset="0.5"
   style="stop-color:#D2AC47"
   id="stop3" />
	<stop
   offset="0.75"
   style="stop-color:#EDC968"
   id="stop4" />
	<stop
   offset="1"
   style="stop-color:#AE8626"
   id="stop5" />
</linearGradient>
<path
   style="fill:#000000;fill-opacity:1"
   d="M 125.856,62.624 C 122.557,56.861 117.875,52.41 111.81,49.298 105.745,46.172 98.729,44.616 90.734,44.616 H 64.169 v 75.992 h 26.565 c 7.995,0 15.011,-1.556 21.076,-4.682 6.065,-3.112 10.747,-7.534 14.046,-13.225 3.299,-5.705 4.956,-12.36 4.956,-19.981 -0.001,-7.621 -1.657,-14.319 -4.956,-20.096 z m -17.144,38.493 c -4.365,4.351 -10.531,6.541 -18.512,6.541 H 79.41 V 57.452 H 90.2 c 7.981,0 14.147,2.233 18.512,6.699 4.351,4.466 6.526,10.661 6.526,18.57 0,7.908 -2.175,14.045 -6.526,18.396 z"
   id="path5" />
<linearGradient
   id="SVGID_00000164476564723251795900000009745213456912794544_"
   gradientUnits="userSpaceOnUse"
   x1="61.6516"
   y1="82.446602"
   x2="507.12399"
   y2="82.446602">
	<stop
   offset="0"
   style="stop-color:#AE8626"
   id="stop6" />
	<stop
   offset="0.25"
   style="stop-color:#F6D77D"
   id="stop7" />
	<stop
   offset="0.5"
   style="stop-color:#D2AC47"
   id="stop8" />
	<stop
   offset="0.75"
   style="stop-color:#EDC968"
   id="stop9" />
	<stop
   offset="1"
   style="stop-color:#AE8626"
   id="stop10" />
</linearGradient>
<path
   style="fill:#000000;fill-opacity:1"
   d="m 209.339,62.408 c -3.457,-5.906 -8.139,-10.531 -14.046,-13.873 -5.921,-3.342 -12.476,-5.013 -19.664,-5.013 -7.102,0 -13.643,1.671 -19.592,5.013 -5.95,3.342 -10.675,7.967 -14.161,13.873 -3.472,5.921 -5.215,12.576 -5.215,19.981 0,7.477 1.743,14.176 5.215,20.097 3.486,5.906 8.212,10.545 14.161,13.873 5.95,3.342 12.49,5.014 19.592,5.014 7.117,0 13.657,-1.671 19.607,-5.014 5.95,-3.328 10.646,-7.966 14.104,-13.873 3.443,-5.921 5.172,-12.62 5.172,-20.097 -0.001,-7.405 -1.73,-14.06 -5.173,-19.981 z m -13.455,33.379 c -1.959,3.846 -4.682,6.8 -8.168,8.874 -3.486,2.06 -7.506,3.097 -12.087,3.097 -4.567,0 -8.615,-1.037 -12.13,-3.097 -3.529,-2.075 -6.267,-5.028 -8.226,-8.874 -1.959,-3.846 -2.939,-8.312 -2.939,-13.398 0,-5.071 0.98,-9.522 2.939,-13.34 1.959,-3.804 4.696,-6.728 8.226,-8.759 3.515,-2.031 7.563,-3.054 12.13,-3.054 4.581,0 8.6,1.023 12.087,3.054 3.486,2.031 6.209,4.956 8.168,8.759 1.959,3.817 2.939,8.269 2.939,13.34 0,5.085 -0.98,9.551 -2.939,13.398 z"
   id="path10" />
<linearGradient
   id="SVGID_00000165918086236196670170000004380239966553892254_"
   gradientUnits="userSpaceOnUse"
   x1="61.663898"
   y1="82.612297"
   x2="507.10049"
   y2="82.612297">
	<stop
   offset="0"
   style="stop-color:#AE8626"
   id="stop11" />
	<stop
   offset="0.25"
   style="stop-color:#F6D77D"
   id="stop12" />
	<stop
   offset="0.5"
   style="stop-color:#D2AC47"
   id="stop13" />
	<stop
   offset="0.75"
   style="stop-color:#EDC968"
   id="stop14" />
	<stop
   offset="1"
   style="stop-color:#AE8626"
   id="stop15" />
</linearGradient>
<path
   style="fill:#000000;fill-opacity:1"
   d="m 263.276,89.794 c 5.734,-1.527 10.041,-4.293 12.951,-8.327 2.896,-4.034 4.351,-8.543 4.351,-13.556 0,-4.351 -1.023,-8.298 -3.097,-11.813 -2.074,-3.515 -5.172,-6.31 -9.306,-8.384 -4.135,-2.074 -9.148,-3.097 -15.026,-3.097 h -28.524 v 75.992 h 15.242 v -29.62 h 7.189 l 16.754,29.619 h 17.647 z M 252.601,79.565 H 239.866 V 57.236 h 12.735 c 4.135,0 7.217,0.965 9.249,2.896 2.031,1.916 3.054,4.624 3.054,8.111 0,3.558 -1.023,6.324 -3.054,8.327 -2.032,2.001 -5.115,2.995 -9.249,2.995 z"
   id="path15" />
<linearGradient
   id="SVGID_00000179639782160500738830000013942471293952751034_"
   gradientUnits="userSpaceOnUse"
   x1="61.644001"
   y1="82.554703"
   x2="507.10321"
   y2="82.554703">
	<stop
   offset="0"
   style="stop-color:#AE8626"
   id="stop16" />
	<stop
   offset="0.25"
   style="stop-color:#F6D77D"
   id="stop17" />
	<stop
   offset="0.5"
   style="stop-color:#D2AC47"
   id="stop18" />
	<stop
   offset="0.75"
   style="stop-color:#EDC968"
   id="stop19" />
	<stop
   offset="1"
   style="stop-color:#AE8626"
   id="stop20" />
</linearGradient>
<path
   style="fill:#000000;fill-opacity:1"
   d="m 332.555,44.501 h -17.748 l -27.328,76.108 h 16.005 l 5.013,-14.478 h 30.267 l 5.013,14.478 h 16.106 z m -19.924,49.427 11.006,-31.794 10.992,31.794 z"
   id="path20" />
<linearGradient
   id="SVGID_00000115501779933091094350000001651629273910662830_"
   gradientUnits="userSpaceOnUse"
   x1="61.677399"
   y1="82.612297"
   x2="507.10101"
   y2="82.612297">
	<stop
   offset="0"
   style="stop-color:#AE8626"
   id="stop21" />
	<stop
   offset="0.25"
   style="stop-color:#F6D77D"
   id="stop22" />
	<stop
   offset="0.5"
   style="stop-color:#D2AC47"
   id="stop23" />
	<stop
   offset="0.75"
   style="stop-color:#EDC968"
   id="stop24" />
	<stop
   offset="1"
   style="stop-color:#AE8626"
   id="stop25" />
</linearGradient>
<path
   style="fill:#000000;fill-opacity:1"
   d="M 428.543,62.624 C 425.244,56.861 420.562,52.41 414.497,49.298 408.446,46.172 401.416,44.616 393.435,44.616 H 366.87 v 75.992 h 26.565 c 7.981,0 15.011,-1.556 21.062,-4.682 6.065,-3.112 10.747,-7.534 14.046,-13.225 3.313,-5.705 4.956,-12.36 4.956,-19.981 0,-7.621 -1.643,-14.319 -4.956,-20.096 z M 411.4,101.117 c -4.351,4.351 -10.531,6.541 -18.512,6.541 H 382.112 V 57.452 h 10.776 c 7.981,0 14.161,2.233 18.512,6.699 4.351,4.466 6.526,10.661 6.526,18.57 0,7.908 -2.176,14.045 -6.526,18.396 z"
   id="path25" />
<linearGradient
   id="SVGID_00000082350862915727392690000017596998942796095122_"
   gradientUnits="userSpaceOnUse"
   x1="61.6427"
   y1="82.446602"
   x2="507.11121"
   y2="82.446602">
	<stop
   offset="0"
   style="stop-color:#AE8626"
   id="stop26" />
	<stop
   offset="0.25"
   style="stop-color:#F6D77D"
   id="stop27" />
	<stop
   offset="0.5"
   style="stop-color:#D2AC47"
   id="stop28" />
	<stop
   offset="0.75"
   style="stop-color:#EDC968"
   id="stop29" />
	<stop
   offset="1"
   style="stop-color:#AE8626"
   id="stop30" />
</linearGradient>
<path
   style="fill:#000000;fill-opacity:1"
   d="m 512.026,62.408 c -3.443,-5.906 -8.125,-10.531 -14.046,-13.873 -5.921,-3.342 -12.461,-5.013 -19.65,-5.013 -7.117,0 -13.657,1.671 -19.607,5.013 -5.95,3.342 -10.66,7.967 -14.147,13.873 -3.486,5.921 -5.229,12.576 -5.229,19.981 0,7.477 1.743,14.176 5.229,20.097 3.486,5.906 8.197,10.545 14.147,13.873 5.95,3.342 12.49,5.014 19.607,5.014 7.117,0 13.643,-1.671 19.592,-5.014 5.95,-3.328 10.661,-7.966 14.104,-13.873 3.443,-5.921 5.172,-12.62 5.172,-20.097 0,-7.405 -1.729,-14.06 -5.172,-19.981 z m -13.44,33.379 c -1.959,3.846 -4.682,6.8 -8.168,8.874 -3.486,2.06 -7.52,3.097 -12.087,3.097 -4.581,0 -8.629,-1.037 -12.144,-3.097 -3.515,-2.075 -6.252,-5.028 -8.211,-8.874 -1.974,-3.846 -2.953,-8.312 -2.953,-13.398 0,-5.071 0.98,-9.522 2.953,-13.34 1.959,-3.804 4.696,-6.728 8.211,-8.759 3.515,-2.031 7.563,-3.054 12.144,-3.054 4.567,0 8.6,1.023 12.087,3.054 3.486,2.031 6.209,4.956 8.168,8.759 1.959,3.817 2.939,8.269 2.939,13.34 -10e-4,5.085 -0.98,9.551 -2.939,13.398 z"
   id="path30" />
<linearGradient
   id="SVGID_00000137823209145278009790000003223912515585642174_"
   gradientUnits="userSpaceOnUse"
   x1="61.711899"
   y1="145.603"
   x2="506.88779"
   y2="145.603">
	<stop
   offset="0"
   style="stop-color:#AE8626"
   id="stop31" />
	<stop
   offset="0.25"
   style="stop-color:#F6D77D"
   id="stop32" />
	<stop
   offset="0.5"
   style="stop-color:#D2AC47"
   id="stop33" />
	<stop
   offset="0.75"
   style="stop-color:#EDC968"
   id="stop34" />
	<stop
   offset="1"
   style="stop-color:#AE8626"
   id="stop35" />
</linearGradient>
<path
   style="fill:#000000;fill-opacity:1"
   d="m 167.792,137.622 -5.085,11.871 -5.085,-11.871 h -3.63 v 15.962 h 3.198 v -10.387 l 4.307,10.387 h 2.42 l 4.279,-10.387 v 10.387 h 3.198 v -15.962 z"
   id="path35" />
<linearGradient
   id="SVGID_00000150085307941288967620000013770634973891923363_"
   gradientUnits="userSpaceOnUse"
   x1="61.513302"
   y1="145.58859"
   x2="507.46509"
   y2="145.58859">
	<stop
   offset="0"
   style="stop-color:#AE8626"
   id="stop36" />
	<stop
   offset="0.25"
   style="stop-color:#F6D77D"
   id="stop37" />
	<stop
   offset="0.5"
   style="stop-color:#D2AC47"
   id="stop38" />
	<stop
   offset="0.75"
   style="stop-color:#EDC968"
   id="stop39" />
	<stop
   offset="1"
   style="stop-color:#AE8626"
   id="stop40" />
</linearGradient>
<path
   style="fill:#000000;fill-opacity:1"
   d="m 188.551,140.201 v -2.608 h -9.277 v 15.991 h 9.277 v -2.608 h -6.065 v -4.235 h 5.373 v -2.536 h -5.373 V 140.2 h 6.065 z"
   id="path40" />
<linearGradient
   id="SVGID_00000117649995549750482090000000150037496604771759_"
   gradientUnits="userSpaceOnUse"
   x1="61.525799"
   y1="145.603"
   x2="507.38489"
   y2="145.603">
	<stop
   offset="0"
   style="stop-color:#AE8626"
   id="stop41" />
	<stop
   offset="0.25"
   style="stop-color:#F6D77D"
   id="stop42" />
	<stop
   offset="0.5"
   style="stop-color:#D2AC47"
   id="stop43" />
	<stop
   offset="0.75"
   style="stop-color:#EDC968"
   id="stop44" />
	<stop
   offset="1"
   style="stop-color:#AE8626"
   id="stop45" />
</linearGradient>
<path
   style="fill:#000000;fill-opacity:1"
   d="m 194.904,137.622 v 2.579 h 4.264 v 13.383 h 3.198 v -13.383 h 4.264 v -2.579 z"
   id="path45" />
<linearGradient
   id="SVGID_00000122002227953056641870000007908346097166622636_"
   gradientUnits="userSpaceOnUse"
   x1="61.689899"
   y1="145.58859"
   x2="507.03381"
   y2="145.58859">
	<stop
   offset="0"
   style="stop-color:#AE8626"
   id="stop46" />
	<stop
   offset="0.25"
   style="stop-color:#F6D77D"
   id="stop47" />
	<stop
   offset="0.5"
   style="stop-color:#D2AC47"
   id="stop48" />
	<stop
   offset="0.75"
   style="stop-color:#EDC968"
   id="stop49" />
	<stop
   offset="1"
   style="stop-color:#AE8626"
   id="stop50" />
</linearGradient>
<path
   style="fill:#000000;fill-opacity:1"
   d="m 219.956,137.593 h -3.731 l -5.748,15.991 h 3.357 l 1.052,-3.04 h 6.367 l 1.052,3.04 h 3.385 z m -4.192,10.387 2.305,-6.684 2.319,6.684 z"
   id="path50" />
<linearGradient
   id="SVGID_00000134950099045947746710000009146194535948550071_"
   gradientUnits="userSpaceOnUse"
   x1="61.560501"
   y1="145.603"
   x2="507.25571"
   y2="145.603">
	<stop
   offset="0"
   style="stop-color:#AE8626"
   id="stop51" />
	<stop
   offset="0.25"
   style="stop-color:#F6D77D"
   id="stop52" />
	<stop
   offset="0.5"
   style="stop-color:#D2AC47"
   id="stop53" />
	<stop
   offset="0.75"
   style="stop-color:#EDC968"
   id="stop54" />
	<stop
   offset="1"
   style="stop-color:#AE8626"
   id="stop55" />
</linearGradient>
<path
   style="fill:#000000;fill-opacity:1"
   d="m 235.299,151.049 v -13.427 h -3.198 v 15.962 h 8.471 v -2.535 z"
   id="path55" />
<linearGradient
   id="SVGID_00000144303914363771014850000004907072045819877262_"
   gradientUnits="userSpaceOnUse"
   x1="61.598499"
   y1="145.5743"
   x2="507.1796"
   y2="145.5743">
	<stop
   offset="0"
   style="stop-color:#AE8626"
   id="stop56" />
	<stop
   offset="0.25"
   style="stop-color:#F6D77D"
   id="stop57" />
	<stop
   offset="0.5"
   style="stop-color:#D2AC47"
   id="stop58" />
	<stop
   offset="0.75"
   style="stop-color:#EDC968"
   id="stop59" />
	<stop
   offset="1"
   style="stop-color:#AE8626"
   id="stop60" />
</linearGradient>
<path
   style="fill:#000000;fill-opacity:1"
   d="m 257.427,146.568 c -0.475,-0.62 -1.037,-1.066 -1.7,-1.383 -0.663,-0.302 -1.498,-0.605 -2.536,-0.907 -0.764,-0.23 -1.354,-0.432 -1.772,-0.605 -0.432,-0.173 -0.778,-0.403 -1.066,-0.691 -0.274,-0.274 -0.418,-0.634 -0.418,-1.066 0,-0.605 0.187,-1.066 0.562,-1.397 0.375,-0.317 0.879,-0.475 1.498,-0.475 0.72,0 1.296,0.173 1.729,0.533 0.432,0.36 0.663,0.821 0.691,1.368 h 3.529 c -0.101,-1.441 -0.677,-2.55 -1.7,-3.356 -1.037,-0.792 -2.377,-1.196 -4.019,-1.196 -1.095,0 -2.075,0.187 -2.924,0.562 -0.864,0.375 -1.527,0.908 -2.002,1.614 -0.461,0.692 -0.706,1.527 -0.706,2.463 0,1.008 0.23,1.815 0.706,2.42 0.461,0.605 1.023,1.052 1.671,1.354 0.648,0.288 1.484,0.591 2.521,0.893 0.764,0.216 1.368,0.418 1.801,0.591 0.432,0.173 0.792,0.418 1.081,0.72 0.288,0.303 0.432,0.691 0.432,1.167 0,0.576 -0.202,1.052 -0.634,1.412 -0.432,0.346 -1.008,0.533 -1.757,0.533 -0.735,0 -1.311,-0.187 -1.729,-0.576 -0.418,-0.374 -0.663,-0.893 -0.706,-1.556 h -3.429 c 0.014,0.98 0.288,1.829 0.807,2.536 0.519,0.72 1.225,1.267 2.118,1.657 0.879,0.375 1.887,0.576 2.996,0.576 1.181,0 2.19,-0.23 3.054,-0.663 0.85,-0.432 1.498,-1.008 1.945,-1.743 0.432,-0.735 0.663,-1.527 0.663,-2.377 0,-0.996 -0.245,-1.803 -0.706,-2.408 z"
   id="path60" />
<linearGradient
   id="SVGID_00000150781811141164275200000009001518849317484186_"
   gradientUnits="userSpaceOnUse"
   x1="61.393101"
   y1="145.58859"
   x2="507.37619"
   y2="145.58859">
	<stop
   offset="0"
   style="stop-color:#AE8626"
   id="stop61" />
	<stop
   offset="0.25"
   style="stop-color:#F6D77D"
   id="stop62" />
	<stop
   offset="0.5"
   style="stop-color:#D2AC47"
   id="stop63" />
	<stop
   offset="0.75"
   style="stop-color:#EDC968"
   id="stop64" />
	<stop
   offset="1"
   style="stop-color:#AE8626"
   id="stop65" />
</linearGradient>
<path
   style="fill:#000000;fill-opacity:1"
   d="m 284.77,140.201 v -2.608 h -9.278 v 15.991 h 9.278 v -2.608 h -6.065 v -4.235 h 5.373 v -2.536 h -5.373 V 140.2 h 6.065 z"
   id="path65" />
<linearGradient
   id="SVGID_00000159433337525289787080000009408339096315262892_"
   gradientUnits="userSpaceOnUse"
   x1="61.632702"
   y1="145.603"
   x2="507.1348"
   y2="145.603">
	<stop
   offset="0"
   style="stop-color:#AE8626"
   id="stop66" />
	<stop
   offset="0.25"
   style="stop-color:#F6D77D"
   id="stop67" />
	<stop
   offset="0.5"
   style="stop-color:#D2AC47"
   id="stop68" />
	<stop
   offset="0.75"
   style="stop-color:#EDC968"
   id="stop69" />
	<stop
   offset="1"
   style="stop-color:#AE8626"
   id="stop70" />
</linearGradient>
<path
   style="fill:#000000;fill-opacity:1"
   d="m 300.011,145.646 5.013,-8.024 h -3.616 l -3.112,5.345 -3.457,-5.345 h -3.673 l 5.1,7.909 -5.042,8.053 h 3.616 l 3.141,-5.374 3.457,5.374 h 3.688 z"
   id="path70" />
<linearGradient
   id="SVGID_00000013168750182036696450000009277077490706954376_"
   gradientUnits="userSpaceOnUse"
   x1="61.727402"
   y1="145.56709"
   x2="507.0495"
   y2="145.56709">
	<stop
   offset="0"
   style="stop-color:#AE8626"
   id="stop71" />
	<stop
   offset="0.25"
   style="stop-color:#F6D77D"
   id="stop72" />
	<stop
   offset="0.5"
   style="stop-color:#D2AC47"
   id="stop73" />
	<stop
   offset="0.75"
   style="stop-color:#EDC968"
   id="stop74" />
	<stop
   offset="1"
   style="stop-color:#AE8626"
   id="stop75" />
</linearGradient>
<path
   style="fill:#000000;fill-opacity:1"
   d="m 320.771,150.285 c -0.663,0.389 -1.426,0.576 -2.291,0.576 -0.936,0 -1.758,-0.216 -2.492,-0.648 -0.72,-0.432 -1.282,-1.052 -1.685,-1.858 -0.403,-0.792 -0.605,-1.714 -0.605,-2.781 0,-1.066 0.202,-1.988 0.605,-2.78 0.403,-0.792 0.965,-1.412 1.685,-1.844 0.735,-0.432 1.556,-0.648 2.492,-0.648 0.864,0 1.628,0.187 2.291,0.562 0.663,0.389 1.181,0.951 1.556,1.714 H 326 c -0.533,-1.613 -1.469,-2.881 -2.809,-3.789 -1.34,-0.922 -2.91,-1.383 -4.696,-1.383 -1.527,0 -2.896,0.36 -4.12,1.052 -1.239,0.692 -2.204,1.657 -2.91,2.896 -0.706,1.253 -1.066,2.651 -1.066,4.221 0,1.585 0.36,2.982 1.066,4.221 0.706,1.239 1.671,2.19 2.91,2.896 1.225,0.692 2.593,1.037 4.12,1.037 1.801,0 3.371,-0.461 4.711,-1.369 1.325,-0.908 2.262,-2.175 2.795,-3.803 h -3.674 c -0.375,0.763 -0.894,1.339 -1.556,1.728 z"
   id="path75" />
<linearGradient
   id="SVGID_00000049219349066710155060000000306540692204822949_"
   gradientUnits="userSpaceOnUse"
   x1="61.552502"
   y1="145.603"
   x2="507.1644"
   y2="145.603">
	<stop
   offset="0"
   style="stop-color:#AE8626"
   id="stop76" />
	<stop
   offset="0.25"
   style="stop-color:#F6D77D"
   id="stop77" />
	<stop
   offset="0.5"
   style="stop-color:#D2AC47"
   id="stop78" />
	<stop
   offset="0.75"
   style="stop-color:#EDC968"
   id="stop79" />
	<stop
   offset="1"
   style="stop-color:#AE8626"
   id="stop80" />
</linearGradient>
<path
   style="fill:#000000;fill-opacity:1"
   d="m 343.158,137.622 v 6.569 h -6.843 v -6.569 h -3.213 v 15.962 h 3.213 v -6.785 h 6.843 v 6.785 h 3.198 v -15.962 z"
   id="path80" />
<linearGradient
   id="SVGID_00000110441481511765159110000009996171932296136868_"
   gradientUnits="userSpaceOnUse"
   x1="61.7411"
   y1="145.58859"
   x2="507.06631"
   y2="145.58859">
	<stop
   offset="0"
   style="stop-color:#AE8626"
   id="stop81" />
	<stop
   offset="0.25"
   style="stop-color:#F6D77D"
   id="stop82" />
	<stop
   offset="0.5"
   style="stop-color:#D2AC47"
   id="stop83" />
	<stop
   offset="0.75"
   style="stop-color:#EDC968"
   id="stop84" />
	<stop
   offset="1"
   style="stop-color:#AE8626"
   id="stop85" />
</linearGradient>
<path
   style="fill:#000000;fill-opacity:1"
   d="m 362.231,137.593 h -3.717 l -5.748,15.991 h 3.357 l 1.052,-3.04 h 6.368 l 1.052,3.04 h 3.385 z m -4.177,10.387 2.305,-6.684 2.319,6.684 z"
   id="path85" />
<linearGradient
   id="SVGID_00000044892916365821218130000011736449359170745488_"
   gradientUnits="userSpaceOnUse"
   x1="61.743198"
   y1="145.58859"
   x2="507.07339"
   y2="145.58859">
	<stop
   offset="0"
   style="stop-color:#AE8626"
   id="stop86" />
	<stop
   offset="0.25"
   style="stop-color:#F6D77D"
   id="stop87" />
	<stop
   offset="0.5"
   style="stop-color:#D2AC47"
   id="stop88" />
	<stop
   offset="0.75"
   style="stop-color:#EDC968"
   id="stop89" />
	<stop
   offset="1"
   style="stop-color:#AE8626"
   id="stop90" />
</linearGradient>
<path
   style="fill:#000000;fill-opacity:1"
   d="m 384.849,137.593 v 10.992 l -7.261,-10.992 h -3.198 v 15.991 h 3.198 v -10.949 l 7.261,10.949 h 3.198 v -15.991 z"
   id="path90" />
<linearGradient
   id="SVGID_00000056426638358004845260000013944866384908780438_"
   gradientUnits="userSpaceOnUse"
   x1="61.549301"
   y1="145.56709"
   x2="507.13751"
   y2="145.56709">
	<stop
   offset="0"
   style="stop-color:#AE8626"
   id="stop91" />
	<stop
   offset="0.25"
   style="stop-color:#F6D77D"
   id="stop92" />
	<stop
   offset="0.5"
   style="stop-color:#D2AC47"
   id="stop93" />
	<stop
   offset="0.75"
   style="stop-color:#EDC968"
   id="stop94" />
	<stop
   offset="1"
   style="stop-color:#AE8626"
   id="stop95" />
</linearGradient>
<path
   style="fill:#000000;fill-opacity:1"
   d="m 402.396,144.71 v 2.449 h 5.489 c -0.245,1.167 -0.749,2.06 -1.527,2.708 -0.778,0.648 -1.786,0.98 -3.011,0.98 -0.98,0 -1.858,-0.216 -2.607,-0.649 -0.735,-0.418 -1.325,-1.037 -1.743,-1.829 -0.418,-0.792 -0.634,-1.715 -0.634,-2.795 0,-1.037 0.202,-1.945 0.62,-2.737 0.418,-0.792 0.98,-1.412 1.714,-1.83 0.735,-0.432 1.57,-0.648 2.521,-0.648 0.85,0 1.599,0.187 2.247,0.533 0.634,0.346 1.138,0.865 1.498,1.527 h 3.688 c -0.504,-1.585 -1.412,-2.809 -2.737,-3.688 -1.34,-0.879 -2.896,-1.325 -4.696,-1.325 -1.527,0 -2.91,0.36 -4.149,1.052 -1.253,0.692 -2.219,1.657 -2.939,2.896 -0.706,1.253 -1.066,2.651 -1.066,4.221 0,1.585 0.36,2.982 1.066,4.221 0.72,1.239 1.686,2.19 2.939,2.896 1.239,0.692 2.636,1.037 4.178,1.037 1.369,0 2.608,-0.288 3.717,-0.864 1.095,-0.562 2.002,-1.326 2.708,-2.276 0.706,-0.936 1.152,-1.973 1.369,-3.083 v -2.795 h -8.645 z"
   id="path95" />
<linearGradient
   id="SVGID_00000050662957068616391720000002482163546476220809_"
   gradientUnits="userSpaceOnUse"
   x1="61.2481"
   y1="145.58859"
   x2="507.20471"
   y2="145.58859">
	<stop
   offset="0"
   style="stop-color:#AE8626"
   id="stop96" />
	<stop
   offset="0.25"
   style="stop-color:#F6D77D"
   id="stop97" />
	<stop
   offset="0.5"
   style="stop-color:#D2AC47"
   id="stop98" />
	<stop
   offset="0.75"
   style="stop-color:#EDC968"
   id="stop99" />
	<stop
   offset="1"
   style="stop-color:#AE8626"
   id="stop100" />
</linearGradient>
<path
   style="fill:#000000;fill-opacity:1"
   d="m 427.39,140.201 v -2.608 h -9.278 v 15.991 h 9.278 v -2.608 h -6.065 v -4.235 h 5.374 v -2.536 h -5.374 V 140.2 h 6.065 z"
   id="path100" />
<linearGradient
   id="SVGID_00000162312687338869012440000017342234893081958279_"
   gradientUnits="userSpaceOnUse"
   x1="61.648102"
   y1="145.5692"
   x2="507.11151"
   y2="145.5692">
	<stop
   offset="0"
   style="stop-color:#AE8626"
   id="stop101" />
	<stop
   offset="0.25"
   style="stop-color:#F6D77D"
   id="stop102" />
	<stop
   offset="0.5"
   style="stop-color:#D2AC47"
   id="stop103" />
	<stop
   offset="0.75"
   style="stop-color:#EDC968"
   id="stop104" />
	<stop
   offset="1"
   style="stop-color:#AE8626"
   id="stop105" />
</linearGradient>
<rect
   x="64.174004"
   y="144.60201"
   style="fill:#000000;fill-opacity:1"
   width="79.308998"
   height="1.934"
   id="rect105" />
<linearGradient
   id="SVGID_00000040548333101482944000000008412755902888032685_"
   gradientUnits="userSpaceOnUse"
   x1="61.647499"
   y1="145.5692"
   x2="507.11209"
   y2="145.5692">
	<stop
   offset="0"
   style="stop-color:#AE8626"
   id="stop106" />
	<stop
   offset="0.25"
   style="stop-color:#F6D77D"
   id="stop107" />
	<stop
   offset="0.5"
   style="stop-color:#D2AC47"
   id="stop108" />
	<stop
   offset="0.75"
   style="stop-color:#EDC968"
   id="stop109" />
	<stop
   offset="1"
   style="stop-color:#AE8626"
   id="stop110" />
</linearGradient>
<rect
   x="438.96799"
   y="144.60201"
   style="fill:#000000;fill-opacity:1"
   width="79.309998"
   height="1.934"
   id="rect110" />
</svg>
