<?xml version="1.0" encoding="UTF-8" standalone="no"?>
<!-- Generator: Adobe Illustrator 25.4.1, SVG Export Plug-In . SVG Version: 6.00 Build 0)  -->

<svg
   version="1.1"
   id="Layer_1"
   x="0px"
   y="0px"
   viewBox="0 0 349.99999 219.99999"
   xml:space="preserve"
   sodipodi:docname="white_symbol.svg"
   width="350"
   height="220"
   inkscape:version="1.4 (86a8ad7, 2024-10-11)"
   xmlns:inkscape="http://www.inkscape.org/namespaces/inkscape"
   xmlns:sodipodi="http://sodipodi.sourceforge.net/DTD/sodipodi-0.dtd"
   xmlns:xlink="http://www.w3.org/1999/xlink"
   xmlns="http://www.w3.org/2000/svg"
   xmlns:svg="http://www.w3.org/2000/svg"><defs
   id="defs8"><linearGradient
     x1="0"
     y1="0"
     x2="1"
     y2="0"
     gradientUnits="userSpaceOnUse"
     gradientTransform="matrix(187.32145,0,0,187.32145,438.45873,222.36758)"
     spreadMethod="pad"
     id="linearGradient21"><stop
       style="stop-opacity:1;stop-color:#9f7b24"
       offset="0"
       id="stop17" /><stop
       style="stop-opacity:1;stop-color:#f0d165"
       offset="0.25"
       id="stop18" /><stop
       style="stop-opacity:1;stop-color:#c6a43c"
       offset="0.5"
       id="stop19" /><stop
       style="stop-opacity:1;stop-color:#e6c353"
       offset="0.75"
       id="stop20" /><stop
       style="stop-opacity:1;stop-color:#9f7b24"
       offset="1"
       id="stop21" /></linearGradient><linearGradient
     inkscape:collect="always"
     xlink:href="#SVGID_00000066493102523920027710000010228051926558767247_"
     id="linearGradient12"
     x1="-463.58496"
     y1="371.24509"
     x2="-113.58496"
     y2="371.24509"
     gradientUnits="userSpaceOnUse"
     gradientTransform="matrix(1,0,0,0.62857142,463.58496,-123.35406)" /></defs><sodipodi:namedview
   id="namedview8"
   pagecolor="#ffffff"
   bordercolor="#111111"
   borderopacity="1"
   inkscape:showpageshadow="0"
   inkscape:pageopacity="0"
   inkscape:pagecheckerboard="1"
   inkscape:deskcolor="#d1d1d1"
   inkscape:zoom="4"
   inkscape:cx="141.5"
   inkscape:cy="65.75"
   inkscape:window-width="3840"
   inkscape:window-height="2054"
   inkscape:window-x="-11"
   inkscape:window-y="-11"
   inkscape:window-maximized="1"
   inkscape:current-layer="Layer_1" />
<linearGradient
   id="SVGID_1_"
   gradientUnits="userSpaceOnUse"
   x1="115.2419"
   y1="-52.729401"
   x2="115.2419"
   y2="271.5867">
	<stop
   offset="0"
   style="stop-color:#AE8626"
   id="stop1" />
	<stop
   offset="1"
   style="stop-color:#F6D77D"
   id="stop2" />
</linearGradient>

<linearGradient
   id="SVGID_00000080176074631256226470000008321068473152498823_"
   gradientUnits="userSpaceOnUse"
   x1="246.6534"
   y1="-52.729401"
   x2="246.6534"
   y2="271.5867">
	<stop
   offset="0"
   style="stop-color:#AE8626"
   id="stop3" />
	<stop
   offset="1"
   style="stop-color:#F6D77D"
   id="stop4" />
</linearGradient>

<linearGradient
   id="SVGID_00000129898597302105308440000012173593595152386224_"
   gradientUnits="userSpaceOnUse"
   x1="190.47279"
   y1="-52.7295"
   x2="190.47279"
   y2="271.5867">
	<stop
   offset="0"
   style="stop-color:#AE8626"
   id="stop5" />
	<stop
   offset="1"
   style="stop-color:#F6D77D"
   id="stop6" />
</linearGradient>

<linearGradient
   id="SVGID_00000066493102523920027710000010228051926558767247_"
   gradientUnits="userSpaceOnUse"
   x1="122.9237"
   y1="101.1239"
   x2="122.9237"
   y2="162.0715">
	<stop
   offset="0"
   style="stop-color:#AE8626"
   id="stop7" />
	<stop
   offset="1"
   style="stop-color:#F6D77D"
   id="stop8" />
</linearGradient>

<rect
   style="fill:url(#linearGradient12);fill-opacity:1;stroke-width:0;stroke-miterlimit:15.7;stroke-dasharray:none;paint-order:markers fill stroke"
   id="rect10"
   width="350"
   height="220"
   x="0"
   y="0"
   ry="7.625" /><path
   style="fill:#ffffff;fill-opacity:1"
   d="m 29.126,175.7475 h -0.377 v 1.872 H 84.867 V 46.1245 c 10.47499,0.559 37.22099,14.218 56.85798,28.059 2.15101,1.522 4.24601,3.073 6.271,4.637 0.167,0.14 0.349,0.265 0.517,0.405 0.056,0.028 0.098,0.07 0.14,0.098 2.723,2.109 5.307,4.246 7.765,6.383 1.132,0.978 2.221,1.969 3.296,2.961 0.098,0.084 0.195,0.181 0.307,0.279 1.09,1.006 2.151,2.025 3.185,3.058 2.248,2.235 4.371,4.469004 6.341,6.704004 1.97,2.220996 3.785,4.468996 5.461,6.717996 0.726,0.978 1.438,1.955 2.095,2.933 0,0.014 0.014,0.028 0.014,0.028 11.187,16.229 14.176,31.998 7.067,44.358 -0.936,1.592 -2.011,3.1 -3.254,4.539 1.564,1.103 3.296,2.081 5.139,2.975 1.509,0.726 3.059,1.382 4.651,1.955 14.511,-10.908 22.83501,-27.123 22.83501,-46.886 0,-13.729 -4.05001,-26.062 -11.536,-36.509 -6.536,-9.148 -15.671,-16.844 -27.011,-22.779 -16.70401,-8.757 -38.171,-13.659 -63.018,-13.659 H 28.749 v 1.872 h 0.377 c 10.279,0 17.011,6.732 17.011,17.025 v 97.445 c 10e-4,10.292 -6.731,17.024 -17.011,17.024 z"
   id="path2" /><path
   style="fill:#ffffff;fill-opacity:1"
   d="m 320.87398,44.2525 h 0.37701 v -1.872 h -83.241 c -20.643,0 -38.953,3.38 -54.135,9.567 10.056,6.047 18.296,13.491 24.512,22.165 19.623,-13.827 46.285,-27.43 56.746,-27.989 v 131.495 h 56.118 v -1.872 h -0.37701 c -10.27999,0 -17.02499,-6.732 -17.02499,-17.025 v -97.444 c 0,-10.293 6.745,-17.025 17.02499,-17.025 z"
   id="path4" /><path
   style="fill:#ffffff;fill-opacity:1"
   d="m 255.57798,116.9855 c -5.986,35.768 -23.946,50.948 -40.971,55.077 -9.183,1.895 -17.797,0.159 -20.6,-0.529 -0.668,-0.177 -1.336,-0.354 -1.988,-0.548 -3.352,-0.977 -6.48,-2.192 -9.372,-3.589 -2.793,-1.341 -5.349,-2.877 -7.63999,-4.595 -2.23501,-1.676 -4.218,-3.506 -5.922,-5.503 -1.243,-1.439 -2.333,-2.961 -3.268,-4.553 -6.523,-11.341 -4.539,-25.545 4.46899,-40.35 -0.55899,-0.796 -1.104,-1.536 -1.62,-2.235 -6.202,-8.31 -14.568,-16.578 -24.875,-24.581 -4.791,8.869 -7.347,18.869 -7.347,29.749 0,19.777 8.324,35.978 22.849,46.886 2.5,1.885 5.196,3.617 8.058,5.182 2.417,1.341 4.972,2.542 7.64,3.617 3.478,1.397 7.151,2.598 11.006,3.561 3.876,0.976 7.942,1.721 12.178,2.232 -0.001,0.002 -0.003,0.002 -0.004,0.004 0.029,0.003 0.061,0.005 0.09,0.008 4.406,0.528 8.995,0.801 13.756,0.801 h 44.302 v -0.381 -11.854 -48.347 c 10e-4,-0.462 -0.665,-0.508 -0.741,-0.052 z"
   id="path6" /><path
   style="fill:#ffffff;fill-opacity:1"
   d="m 164.47398,174.3145 c -1.838,-0.996 -3.648,-2.088 -5.37799,-3.235 -0.089,-0.059 -0.19301,-0.076 -0.296,-0.046 -15.815,4.614 -55.944,2.094 -65.341,-54.048 -0.076,-0.456 -0.742,-0.409 -0.742,0.053 v 60.201 c 0,0.207 0.168,0.375 0.375,0.375 h 45.85399 c 9.364,0 18.08001,-1.052 26.00301,-3.039 -0.143,-0.073 -0.316,-0.174 -0.47501,-0.261 z"
   id="path8" /></svg>
