<?xml version="1.0" encoding="UTF-8" standalone="no"?>
<svg
   version="1.1"
   width="513.10315"
   height="360.82736"
   id="svg4"
   xmlns="http://www.w3.org/2000/svg"
   xmlns:svg="http://www.w3.org/2000/svg">
  <defs
     id="defs4" />
  <path
     d="m 54.390929,0.03273132 c 1.816418,-0.0034597 3.632835,-0.0082264 5.449247,-0.01418173 4.974851,-0.01249656 9.949528,-0.0063457 14.924379,0.0029587 5.371584,0.0067956 10.743138,-0.0036933 16.114716,-0.01193976 10.516409,-0.01333401 21.032739,-0.010461058 31.549149,-0.0017621 8.54755,0.0067774 17.09508,0.007693 25.64262,0.0044285 1.21692,-4.597e-4 2.43384,-9.194e-4 3.68763,-0.001393 2.47221,-9.5918e-4 4.94442,-0.0019318 7.41662,-0.0029178 23.17736,-0.008552898 46.35469,0.0012787 69.53205,0.0174011 19.88364,0.01340308 39.76723,0.01107496 59.65088,-0.0027563 23.0949,-0.01605753 46.18977,-0.022373778 69.28467,-0.01316321 2.46307,9.5564e-4 4.92614,0.0018987 7.38921,0.0028292 1.21186,4.6283e-4 2.42371,9.2565e-4 3.67228,0.0014025 8.53646,0.0025894 17.07289,-0.00178 25.60934,-0.0088412 10.40425,-0.0084171 20.80844,-0.0061304 31.21268,0.0098422 5.30755,0.0078798 10.61498,0.01097913 15.92252,0.0010525 4.86065,-0.0089532 9.72108,-0.0040036 14.58171,0.01193265 1.75625,0.0033451 3.51253,0.0016598 5.26878,-0.0056274 8.78286,-0.03364088 16.98306,-0.01518249 25.25216,3.39168583 -1.48268,3.1066467 -2.97298,5.2009031 -5.44921,7.609375 -1.02578,1.009336 -1.02578,1.009336 -2.07227,2.039062 -1.07218,1.040274 -1.07218,1.040274 -2.16602,2.101563 -1.40228,1.367191 -2.80203,2.736977 -4.19921,4.109375 -0.93139,0.904438 -0.93139,0.904438 -1.8816,1.827148 -1.86428,1.932609 -3.61048,3.900336 -5.35839,5.936098 -3.85763,4.418522 -7.93077,8.583069 -12.07766,12.728911 -0.79804,0.801717 -1.59608,1.603434 -2.4183,2.429445 -2.6567,2.667657 -5.31692,5.331783 -7.97719,7.995878 -1.9129,1.918648 -3.82509,3.838001 -5.73736,5.757279 -5.72015,5.739802 -11.44505,11.474852 -17.17057,17.209291 -2.69971,2.704101 -5.39893,5.408687 -8.09822,8.113207 -8.97548,8.992477 -17.95222,17.983708 -26.93257,26.971326 -2.32431,2.32622 -4.64861,4.65244 -6.9729,6.97868 -0.86646,0.86718 -0.86646,0.86718 -1.75042,1.75188 -9.3756,9.38393 -18.74265,18.77635 -28.10619,28.17231 -9.62274,9.65579 -19.25297,19.30405 -28.89065,28.94493 -5.40756,5.40973 -10.81178,10.8227 -16.20764,16.2441 -4.58995,4.61163 -9.18664,9.21642 -13.79232,13.81235 -2.34915,2.3446 -4.69381,4.69338 -7.03208,7.04884 -2.53482,2.55243 -5.08162,5.09229 -7.63185,7.62932 -0.73648,0.74745 -1.47296,1.49491 -2.23176,2.26501 -5.52927,5.46019 -9.69442,7.46907 -17.62296,7.6879 -7.80886,-1.27631 -12.29283,-5.8681 -17.64807,-11.30095 -0.82184,-0.81771 -1.64367,-1.63542 -2.49041,-2.47791 -2.26971,-2.26234 -4.53025,-4.53339 -6.78716,-6.80848 -2.43997,-2.45522 -4.89151,-4.89884 -7.34162,-7.34393 -4.79493,-4.78872 -9.5792,-9.58796 -14.36003,-14.39076 -5.57225,-5.59697 -11.1554,-11.18301 -16.73913,-16.76853 -9.96679,-9.97067 -19.92426,-19.9506 -29.87625,-29.93605 -9.64738,-9.67978 -19.3003,-19.35397 -28.95997,-29.02148 -0.59459,-0.59508 -1.18918,-1.19015 -1.80178,-1.80326 -2.39034,-2.39226 -4.78068,-4.78451 -7.17104,-7.17675 C 112.382,92.524538 103.16926,83.296177 93.957376,74.066966 91.17799,71.282353 88.398457,68.497887 85.618558,65.713786 79.773031,59.859317 73.928966,54.003403 68.089363,48.143025 65.675521,45.720626 63.26096,43.298958 60.844262,40.879409 58.219518,38.250662 55.597865,35.61887 52.976988,32.986268 51.841614,31.851171 51.841614,31.851171 50.683304,30.693142 46.658532,26.643092 42.799442,22.506879 39.08836,18.166715 36.281078,14.96441 33.195678,12.05206 30.119933,9.1089947 28.894779,7.9127276 27.718345,6.6669591 26.551574,5.4136822 c 0,-0.66 0,-1.32 0,-2 9.068074,-3.73604162 18.225209,-3.42084263 27.839355,-3.38095088 z"
     fill="#000000"
     id="path1"
     style="fill:#ffffff;fill-opacity:1" />
  <path
     d="m 179.55157,201.41368 c 3.35317,1.5886 5.53006,3.30542 8.13501,5.97144 0.80507,0.81812 1.61013,1.63625 2.43959,2.47917 1.29532,1.32962 1.29532,1.32962 2.61681,2.68611 1.37648,1.39531 2.75298,2.79061 4.13018,4.1852 3.38384,3.42951 6.75705,6.86941 10.12397,10.31553 1.88912,1.93273 3.78377,3.85972 5.68431,5.78121 1.783,1.80344 3.55784,3.615 5.32291,5.436 10.91139,11.00054 22.48252,17.92669 38.17222,18.39534 21.02404,-0.2602 33.45429,-13.13633 47.44531,-27.22265 0.80711,-0.80852 1.61421,-1.61704 2.44577,-2.45006 2.5387,-2.54423 5.07387,-5.09193 7.60892,-7.63979 1.73675,-1.74177 3.47372,-3.48331 5.21094,-5.22461 4.22403,-4.23496 8.44518,-8.47278 12.66406,-12.71289 3.91923,1.59096 6.55932,4.28207 9.48311,7.23587 0.54159,0.53918 1.08318,1.07836 1.64118,1.63387 1.81403,1.80839 3.62081,3.62384 5.42771,5.43934 1.29914,1.29807 2.59871,2.5957 3.89868,3.89293 3.53158,3.52673 7.05687,7.05968 10.58094,10.5939 3.69168,3.70045 7.38862,7.39564 11.08488,11.09151 6.21157,6.21251 12.41925,12.42888 18.62447,18.64774 7.16297,7.17866 14.33112,14.35212 21.50231,21.52258 7.64275,7.64207 15.28169,15.28796 22.91952,22.93496 2.19557,2.1977 4.39185,4.39469 6.58829,6.59153 3.46201,3.46302 6.92144,6.92859 10.37894,10.3961 1.26529,1.2682 2.5314,2.53556 3.79843,3.80201 11.60674,11.60343 11.60674,11.60343 16.69348,17.62328 2.7343,3.1635 5.79046,6.01007 8.8097,8.89907 1.22515,1.19626 2.40159,2.44203 3.56836,3.69531 0,0.66 0,1.32 0,2 -9.06807,3.73604 -18.22521,3.42084 -27.83936,3.38095 -1.81641,0.003 -3.63283,0.008 -5.44924,0.0142 -4.97485,0.0125 -9.94953,0.006 -14.92438,-0.003 -5.37159,-0.007 -10.74314,0.004 -16.11472,0.0119 -10.5164,0.0133 -21.03274,0.0105 -31.54915,0.002 -8.54754,-0.007 -17.09507,-0.008 -25.64262,-0.004 -1.21692,4.6e-4 -2.43383,9.2e-4 -3.68763,0.001 -2.4722,9.6e-4 -4.94441,0.002 -7.41662,0.003 -23.17736,0.009 -46.35469,-10e-4 -69.53204,-0.0174 -19.88364,-0.0134 -39.76723,-0.0111 -59.65088,0.003 -23.0949,0.0161 -46.18977,0.0224 -69.28467,0.0132 -2.46308,-9.6e-4 -4.92615,-0.002 -7.38922,-0.003 -1.21185,-4.7e-4 -2.4237,-9.3e-4 -3.67227,-0.001 -8.53646,-0.003 -17.07289,0.002 -25.60934,0.009 -10.40425,0.008 -20.808438,0.006 -31.212682,-0.01 -5.307545,-0.008 -10.614974,-0.011 -15.922524,-0.001 -4.86064,0.009 -9.72107,0.004 -14.5817,-0.0119 -1.75626,-0.003 -3.51254,-0.002 -5.26878,0.006 -8.78286,0.0336 -16.98306,0.0152 -25.25217,-3.39169 1.38959,-2.89244 2.70038,-4.93376 5.01172,-7.17188 0.59361,-0.58265 1.18723,-1.16531 1.79883,-1.76562 0.61939,-0.59813 1.23879,-1.19625 1.87695,-1.8125 3.55543,-3.45232 7.04992,-6.88792 10.24672,-10.67883 5.30038,-6.08918 11.0801,-11.7167 16.79405,-17.41297 1.28202,-1.28173 2.56382,-2.56369 3.84541,-3.84585 3.46005,-3.46034 6.92317,-6.91759 10.38686,-10.37428 3.626611,-3.62034 7.250368,-7.24353 10.874436,-10.86641 6.854293,-6.85119 13.71113,-13.69983 20.56889,-20.54755 7.81095,-7.79974 15.61904,-15.60235 23.42689,-23.40519 16.05325,-16.04407 32.11006,-32.08331 48.16924,-48.12018 z"
     fill="#000000"
     id="path2"
     style="fill:#ffffff;fill-opacity:1" />
  <path
     d="m 4.5515737,25.413682 c 4.1846399,1.921838 7.0455073,4.772784 10.2515263,8.011017 0.624118,0.622409 1.248235,1.244818 1.891266,1.886087 2.092929,2.089631 4.178623,4.186338 6.264435,6.283072 1.497678,1.498242 2.995797,2.996045 4.494323,4.493438 4.07024,4.069666 8.134276,8.145476 12.197248,12.222396 4.245866,4.258353 8.497382,8.511059 12.748309,12.76436 8.050387,8.056608 16.095662,16.118301 24.139124,24.181823 9.1568,9.179145 18.319268,18.352615 27.482225,27.525615 18.85017,18.87108 37.69319,37.7493 56.53154,56.63219 -1.6522,4.25312 -4.82445,7.10265 -7.99756,10.25153 -0.621,0.62411 -1.24199,1.24823 -1.88181,1.89126 -2.08495,2.09294 -4.17698,4.17864 -6.26907,6.26444 -1.49498,1.49769 -2.98954,2.99581 -4.4837,4.49432 -4.06132,4.07045 -8.12895,8.13453 -12.19801,12.19725 -4.2515,4.24645 -8.49813,8.49776 -12.74553,12.74831 -7.13199,7.13562 -14.26818,14.26701 -21.406738,21.39605 -8.264191,8.2533 -16.521141,16.51379 -24.774382,24.77804 -7.077442,7.0865 -14.158756,14.16912 -21.243351,21.24847 -4.235323,4.2322 -8.469268,8.46576 -12.699735,12.70281 -3.974656,3.98041 -7.954133,7.95594 -11.937462,11.92767 -1.465112,1.46246 -2.928504,2.92664 -4.390091,4.39262 -1.987099,1.99252 -3.980185,3.97885 -5.974999,5.96364 -0.584234,0.58869 -1.168468,1.17739 -1.770406,1.78392 -3.9988519,3.95967 -3.9988519,3.95967 -6.2271523,3.95967 -3.4229868,-7.89897 -4.57865873,-14.61383 -4.50793463,-23.18237 -0.00624,-1.1777 -0.01248,-2.3554 -0.018909,-3.56879 -0.013108,-3.23777 -0.00851,-6.47494 0.00394,-9.71269 0.0091,-3.50383 -0.00495,-7.00759 -0.01592,-10.5114 -0.017734,-6.85164 -0.013968,-13.7031 -0.00235,-20.55475 0.00905,-5.57126 0.01025,-11.14248 0.0059,-16.71374 -6.129e-4,-0.79464 -0.00123,-1.58928 -0.00186,-2.408 -0.00128,-1.61457 -0.00258,-3.22915 -0.00389,-4.84373 -0.0113910013,-15.11983 0.00168,-30.23957 0.023201,-45.35939 0.01787,-12.95761 0.014765,-25.91507 -0.00368,-38.87268 -0.021433,-15.06781 -0.0298190013,-30.13554 -0.017551,-45.20337 0.00127,-1.60845 0.00253,-3.21689 0.00377,-4.82534 6.171e-4,-0.79127 0.00123,-1.58255 0.00187,-2.39779 0.00345,-5.56093 -0.00236,-11.121802 -0.011788,-16.682719 -0.011249,-6.782159 -0.00812,-13.564132 0.013123,-20.346269 0.010472,-3.456647 0.014699,-6.912987 0.0014,-10.369632 -0.010967,-3.755293 0.00282,-7.509726 0.02272,-11.264965 -0.00892,-1.081048 -0.017846,-2.162097 -0.027039,-3.275905 C 0.09155957,38.002152 1.6448601,32.121284 4.5515737,25.413682 Z"
     fill="#000000"
     id="path3"
     style="fill:#ffffff;fill-opacity:1" />
  <path
     d="m 508.55157,25.413682 c 3.42299,7.898966 4.57866,14.613827 4.50794,23.182373 0.006,1.177701 0.0125,2.355401 0.0189,3.56879 0.0131,3.237772 0.009,6.474934 -0.004,9.71269 -0.009,3.503831 0.005,7.007583 0.0159,10.511397 0.0177,6.851639 0.014,13.703102 0.002,20.554747 -0.009,5.571264 -0.0103,11.142481 -0.006,16.713751 6.1e-4,0.79463 10e-4,1.58927 0.002,2.40799 10e-4,1.61458 0.003,3.22915 0.004,4.84373 0.0114,15.11983 -0.002,30.23957 -0.0232,45.35939 -0.0179,12.95761 -0.0148,25.91507 0.004,38.87268 0.0214,15.06781 0.0298,30.13554 0.0176,45.20337 -10e-4,1.60845 -0.003,3.2169 -0.004,4.82535 -9.3e-4,1.1869 -9.3e-4,1.1869 -0.002,2.39779 -0.003,5.56092 0.002,11.12179 0.0118,16.68271 0.0112,6.78216 0.008,13.56413 -0.0131,20.34627 -0.0105,3.45665 -0.0147,6.91299 -10e-4,10.36963 0.011,3.7553 -0.003,7.50973 -0.0227,11.26497 0.009,1.08105 0.0178,2.16209 0.027,3.2759 -0.075,7.318 -1.62828,13.19887 -4.535,19.90647 -4.18464,-1.92184 -7.0455,-4.77278 -10.25152,-8.01102 -0.62412,-0.62241 -1.24824,-1.24481 -1.89127,-1.88608 -2.09293,-2.08964 -4.17862,-4.18634 -6.26443,-6.28308 -1.49768,-1.49824 -2.9958,-2.99604 -4.49433,-4.49343 -4.07024,-4.06967 -8.13427,-8.14548 -12.19724,-12.2224 -4.24587,-4.25835 -8.49739,-8.51106 -12.74831,-12.76436 -8.05039,-8.05661 -16.09567,-16.1183 -24.13913,-24.18182 -9.1568,-9.17914 -18.31927,-18.35262 -27.48222,-27.52562 -18.85018,-18.87108 -37.6932,-37.7493 -56.53155,-56.63219 2.40487,-4.51798 5.48639,-7.76812 9.07985,-11.33382 0.61777,-0.62089 1.23554,-1.24177 1.87203,-1.88148 2.06803,-2.076 4.14312,-4.14479 6.21829,-6.21366 1.48527,-1.48798 2.97013,-2.9764 4.45459,-4.46521 4.03027,-4.03939 8.06685,-8.07243 12.10485,-12.10409 4.2208,-4.21575 8.43673,-8.43636 12.65343,-12.6562 7.07893,-7.08257 14.16207,-14.16091 21.24758,-21.23689 8.2023,-8.19141 16.39735,-16.390004 24.58869,-24.592354 7.02651,-7.035569 14.05689,-14.067251 21.09055,-21.095669 4.20401,-4.200886 8.40664,-8.403126 12.60579,-12.608867 3.94431,-3.950057 7.89343,-7.89523 11.8464,-11.836607 1.45382,-1.451169 2.90593,-2.904063 4.35623,-4.358755 1.97172,-1.977141 3.94942,-3.948085 5.92886,-5.917497 0.57966,-0.584123 1.15932,-1.168246 1.75655,-1.770069 3.96801,-3.92883 3.96801,-3.92883 6.19631,-3.92883 z"
     fill="#000000"
     id="path4"
     style="fill:#ffffff;fill-opacity:1" />
</svg>
