<?xml version="1.0" encoding="UTF-8" standalone="no"?>
<svg
   version="1.1"
   width="290.82736"
   height="512.82562"
   id="svg1"
   xmlns="http://www.w3.org/2000/svg"
   xmlns:svg="http://www.w3.org/2000/svg">
  <defs
     id="defs1" />
  <path
     d="m 39.243033,0.03186454 c 1.423086,-0.00702 1.423086,-0.00702 2.874921,-0.01418173 3.157316,-0.01190065 6.314195,-0.002512 9.471515,0.0069491 2.272412,-0.0040679 4.544823,-0.009411 6.81723,-0.01593017 6.156949,-0.01365351 12.313747,-0.008383002 18.470699,0.0011372 6.450007,0.0076067 12.900002,5.4817e-4 19.35001,-0.0041585 11.523982,-0.005803802 23.047892,0.0035066 34.571862,0.01877801 10.43628,0.01340218 20.87247,0.01107377 31.30875,-0.0027563 12.13644,-0.01607569 24.2728,-0.0220193617 36.40926,-0.01316321 6.41818,0.0046719 12.83629,0.0053147 19.25447,-0.0046095 6.03456,-0.0086796 12.06893,-0.0026294 18.10347,0.01468277 2.21188,0.0039595 4.42377,0.00284 6.63564,-0.003788 3.02471,-0.0082266 6.04881,0.0021198 9.07348,0.01704025 0.87034,-0.0066922 1.74069,-0.01338433 2.63741,-0.02027929 10.24886,0.09771801 18.5082,3.63192243 26.19193,10.40122983 10.0263,11.380687 10.4387,22.858296 10.38096,37.257324 0.003,1.874016 0.008,3.748029 0.0142,5.622038 0.0125,5.13866 0.006,10.277153 -0.003,15.415814 -0.007,5.54609 0.004,11.092151 0.0119,16.638235 0.0133,10.860446 0.0105,21.720824 0.002,32.581274 -0.007,8.82647 -0.008,17.65292 -0.004,26.47939 4.6e-4,1.2562 9.2e-4,2.51239 10e-4,3.80666 9.6e-4,2.55193 0.002,5.10386 0.003,7.65579 0.008,23.24769 -3.1e-4,46.49535 -0.016,69.74303 -0.0142,21.2154 -0.013,42.43074 10e-4,63.64614 0.0161,23.8442 0.0224,47.68837 0.0132,71.53258 -9.5e-4,2.54254 -0.002,5.08509 -0.003,7.62764 -4.6e-4,1.25099 -9.2e-4,2.50197 -10e-4,3.79086 -0.003,8.81594 0.002,17.63186 0.009,26.44779 0.008,10.74356 0.006,21.48706 -0.01,32.23062 -0.008,5.48159 -0.011,10.96306 -0.001,16.44465 0.009,5.01853 0.004,10.03686 -0.0119,15.05538 -0.003,1.81481 -0.002,3.62965 0.006,5.44445 0.05,13.50651 -1.07625,24.00652 -10.39169,34.58033 -8.63271,7.60535 -17.47222,10.46828 -28.82934,10.38095 -1.42309,0.007 -1.42309,0.007 -2.87492,0.0142 -3.15732,0.0119 -6.3142,0.003 -9.47152,-0.007 -2.27241,0.004 -4.54482,0.009 -6.81723,0.0159 -6.15695,0.0137 -12.31374,0.008 -18.4707,-10e-4 -6.45,-0.008 -12.9,-5.5e-4 -19.35001,0.004 -11.52398,0.006 -23.04789,-0.004 -34.57186,-0.0188 -10.43628,-0.0134 -20.87247,-0.0111 -31.30875,0.003 -12.13644,0.0161 -24.2728,0.022 -36.409254,0.0132 -6.418181,-0.005 -12.836294,-0.005 -19.254471,0.005 -6.034561,0.009 -12.068934,0.003 -18.103474,-0.0147 -2.211878,-0.004 -4.423772,-0.003 -6.635643,0.004 -3.024705,0.008 -6.048809,-0.002 -9.073475,-0.017 -1.305518,0.01 -1.305518,0.01 -2.63741,0.0203 -10.248857,-0.0977 -18.5082,-3.63192 -26.191936,-10.40123 -10.02629127,-11.38069 -10.43869227,-22.8583 -10.38095127,-37.25732 -0.0035,-1.87402 -0.0082,-3.74803 -0.01418,-5.62204 -0.01251,-5.13866 -0.0063,-10.27715 0.003,-15.41582 0.0068,-5.54609 -0.0037,-11.09215 -0.01194,-16.63823 -0.01334,-10.86045 -0.0104600007,-21.72083 -0.0018,-32.58128 0.0068,-8.82647 0.0077,-17.65292 0.0044,-26.47939 -4.6e-4,-1.25619 -9.19e-4,-2.51239 -0.0014,-3.80665 -9.59e-4,-2.55194 -0.0019,-5.10387 -0.0029,-7.6558 -0.008300001,-23.24769 3.08e-4,-46.49534 0.01603,-69.74303 0.01424,-21.2154 0.01296,-42.43074 -0.0014,-63.64614 -0.01607,-23.8442 -0.0223800007,-47.68837 -0.01316,-71.53257 9.55e-4,-2.54255 0.0019,-5.0851 0.0028,-7.62765 4.63e-4,-1.25098 9.26e-4,-2.50197 0.0014,-3.79086 0.0026,-8.81594 -0.0018,-17.63185 -0.0088,-26.44779 -0.0084,-10.74356 -0.006100001,-21.487059 0.0098,-32.230617 0.0079,-5.481585 0.01097,-10.963061 0.0011,-16.444646 -0.0089,-5.018536 -0.004,-10.03686 0.01193,-15.055376 0.0033,-1.814817 0.0016,-3.629651 -0.0056,-5.444456 -0.05,-13.506513 1.07624897,-24.006522 10.39168627,-34.58033 C 19.0464,2.8074667 27.88591,-0.05546142 39.243033,0.03186454 Z M 89.660206,25.304628 c -1.42641,2.412431 -1.650112,3.825135 -1.621519,6.608188 -0.0077,0.752812 -0.01547,1.505625 -0.02344,2.28125 0.50737,2.825353 1.454007,4.118985 3.398437,6.21875 2.08361,0.595207 2.08361,0.595207 4.440674,0.501205 1.362776,0.01475 1.362776,0.01475 2.753082,0.0298 1.49157,-0.0145 1.49157,-0.0145 3.01328,-0.0293 1.049,0.0054 2.098,0.01081 3.1788,0.01637 3.47584,0.01253 6.95086,-0.004 10.42666,-0.02199 2.40992,1.55e-4 4.81983,0.0016 7.22974,0.0044 5.05407,0.0014 10.10785,-0.01121 15.16187,-0.03395 6.487,-0.02839 12.97354,-0.02565 19.46058,-0.01291 4.97732,0.0069 9.95453,-8.2e-4 14.93184,-0.01326 2.39227,-0.0045 4.78455,-0.0048 7.17682,-9.35e-4 3.34012,0.0029 6.67959,-0.01355 10.01962,-0.0354 0.99438,0.0045 1.98876,0.009 3.01328,0.01364 0.90852,-0.0099 1.81703,-0.01981 2.75308,-0.03001 1.18465,-0.0036 1.18465,-0.0036 2.39323,-0.0074 2.58809,-0.480744 3.45137,-1.321216 5.04744,-3.380317 1.69791,-5.336267 0.43368,-8.22626 -2,-13 -1.55419,-1.554196 -3.0369,-1.135493 -5.20016,-1.147171 -0.90577,-0.0072 -1.81154,-0.01431 -2.74475,-0.02168 -1.00157,-0.0027 -2.00314,-0.0054 -3.03507,-0.0081 -1.04871,-0.0066 -2.09742,-0.01314 -3.17791,-0.01991 -3.48643,-0.01979 -6.97282,-0.03141 -10.45929,-0.04137 -1.18686,-0.0041 -2.37371,-0.0082 -3.59653,-0.01235 -6.27984,-0.02088 -12.55965,-0.03518 -18.83951,-0.04453 -6.50277,-0.01108 -13.00519,-0.04549 -19.50784,-0.08517 -4.98587,-0.02608 -9.97166,-0.03451 -14.95759,-0.03811 -2.39787,-0.0049 -4.79575,-0.01656 -7.19356,-0.03504 -3.34995,-0.02421 -6.69901,-0.02346 -10.04902,-0.01649 -0.99752,-0.01281 -1.995042,-0.02562 -3.022793,-0.03882 -1.367111,0.01042 -1.367111,0.01042 -2.761841,0.02104 -1.188547,-0.0036 -1.188547,-0.0036 -2.401106,-0.0072 -2.231694,0.337606 -2.231694,0.337606 -3.806507,2.386797 z M 28.413687,63.412816 c 0,108.899994 0,217.799994 0,329.999994 77.220003,0 154.439993,0 233.999993,0 0,-108.9 0,-217.8 0,-329.999994 -77.22,0 -154.43999,0 -233.999993,0 z M 127.41369,436.41281 c -4.51867,6.69664 -6.29883,12.96653 -5,21 2.34514,7.3348 7.24707,12.59694 14.05468,16.20703 6.19325,2.52456 11.72624,2.12734 17.87891,-0.26953 6.54481,-2.96929 9.8354,-6.66859 13.0664,-12.9375 2.1644,-6.49319 1.81464,-13.07875 -1,-19.3125 -3.34813,-5.96594 -7.86615,-9.25115 -14,-12.0625 -9.34048,-1.94593 -18.28648,0.28852 -24.99999,7.375 z"
     fill="#000000"
     id="path1"
     style="fill:#ffffff;fill-opacity:1" />
</svg>
