<?xml version="1.0" encoding="UTF-8" standalone="no"?>
<svg
   version="1.1"
   width="343.00751"
   height="512.96924"
   id="svg1"
   xmlns="http://www.w3.org/2000/svg"
   xmlns:svg="http://www.w3.org/2000/svg">
  <defs
     id="defs1" />
  <path
     d="m 170.91035,4.8489979e-4 c 1.25566,3.1723e-4 1.25566,3.1723e-4 2.53668,6.4087021e-4 13.34623,0.03360206 26.08186,0.8761439 39.02582,4.37435913 0.73783,0.1978711 1.47566,0.3957422 2.23584,0.5996094 4.65845,1.2883949 9.20796,2.7888096 13.76416,4.4003906 1.58555,0.5336719 1.58555,0.5336719 3.20313,1.0781251 29.00035,10.346861 56.38696,30.227323 74.79687,54.921875 0.39494,0.519976 0.78987,1.039951 1.19678,1.575684 27.97599,36.963201 40.03752,83.327141 33.67822,129.361811 -4.24609,27.19692 -15.44561,51.30636 -28.875,75.0625 -0.5435,0.96341 -1.087,1.92683 -1.64697,2.91943 -2.15395,3.81462 -4.3109,7.62747 -6.47681,11.43531 -3.88103,6.83506 -7.65143,13.72396 -11.37622,20.64526 -4.244,7.88609 -8.57064,15.7165 -13,23.5 -5.06286,8.89838 -9.9813,17.86658 -14.84033,26.87769 -4.3513,8.06718 -8.77965,16.08803 -13.24756,24.09106 -2.85148,5.11137 -5.69401,10.22771 -8.53711,15.34375 -0.63535,1.14316 -1.27069,2.28631 -1.92529,3.46411 -5.00434,9.00776 -9.98438,18.0288 -14.95831,27.05338 -5.42253,9.83769 -10.87015,19.66117 -16.33149,29.47738 -3.30277,5.9396 -6.59613,11.88421 -9.87475,17.83716 -0.35354,0.64174 -0.70707,1.28348 -1.07132,1.94467 -1.69655,3.08009 -3.3918,6.16087 -5.08493,9.24283 -1.86819,3.39388 -3.74839,6.78091 -5.62891,10.16797 -0.3438,0.6292 -0.68759,1.25841 -1.04181,1.90668 -1.05214,1.92504 -2.11552,3.84352 -3.18084,5.76129 -0.62786,1.14106 -1.25571,2.28212 -1.90259,3.45776 -1.78121,2.73085 -3.0959,4.22858 -5.87476,5.87427 -2.40234,0.46875 -2.40234,0.46875 -4.9375,0.5 -0.83402,0.0309 -1.66805,0.0619 -2.52734,0.0937 -4.48623,-1.0507 -6.55577,-4.07086 -8.93726,-7.77393 -1.58439,-2.68451 -3.09869,-5.39933 -4.5979,-8.13232 -0.56396,-1.01256 -1.12793,-2.02512 -1.70898,-3.06836 -4.5382,-8.17479 -8.98204,-16.40131 -13.41407,-24.63403 -3.70928,-6.87698 -7.51241,-13.6943 -11.37695,-20.48511 -4.99506,-8.77738 -9.83916,-17.62661 -14.625,-26.51953 -3.70945,-6.87498 -7.51129,-13.69111 -11.375,-20.48047 -4.995058,-8.77738 -9.839157,-17.62661 -14.624999,-26.51953 -3.709456,-6.87498 -7.51129,-13.69111 -11.375,-20.48047 -4.995059,-8.77738 -9.83916,-17.62661 -14.625,-26.51953 -3.70946,-6.87498 -7.51129,-13.69111 -11.375,-20.48047 -4.99255,-8.77297 -9.84215,-17.61372 -14.61401,-26.50854 -3.24211,-6.02344 -6.58782,-11.97279 -10.01685,-17.89161 C 2.4235712,222.0521 -6.9481288,174.053 5.5243612,127.13983 18.097471,82.498696 46.522151,45.553371 86.535351,22.125485 112.8993,7.5087358 140.77025,-0.06983333 170.91035,4.8489979e-4 Z M 109.13691,112.86767 c -14.648081,17.24774 -23.62377,38.23568 -22.945309,61.10547 1.980114,23.95388 11.401609,44.51744 29.085939,61.01953 8.0885,6.80533 16.34869,11.85983 26.19531,15.63281 0.64026,0.24645 1.28052,0.49291 1.94019,0.74683 17.74857,6.47907 38.28838,6.1071 56.05981,0.003 1.06219,-0.36223 2.12438,-0.72445 3.21875,-1.09766 21.52028,-8.18103 37.45324,-25.24545 47.05469,-45.79687 9.4235,-21.46577 8.5277,-44.85332 0.19409,-66.44531 -2.47135,-6.03808 -5.60256,-11.39756 -9.46753,-16.65999 -0.64453,-0.90105 -1.28906,-1.80211 -1.95312,-2.73047 -12.83181,-16.84768 -32.5266,-28.154344 -53.32032,-31.851556 -28.16896,-3.159412 -56.28297,4.971649 -76.0625,26.074216 z"
     fill="#000000"
     id="path1"
     style="fill:#ffffff;fill-opacity:1" />
</svg>
