<?xml version="1.0" encoding="UTF-8" standalone="no"?>
<svg
   version="1.1"
   width="512"
   height="512"
   id="svg16"
   xmlns="http://www.w3.org/2000/svg"
   xmlns:svg="http://www.w3.org/2000/svg">
  <defs
     id="defs16" />
  <path
     d="m 120,263 c 42.24,0 84.48,0 128,0 0,40.26 0,80.52 0,122 -15.84,0.99 -15.84,0.99 -32,2 -25.74865,2.96692 -50.85261,7.81323 -76,14 -13.51763,-45.3447 -20,-90.59402 -20,-138 z"
     fill="#000000"
     id="path1"
     style="fill:#ffffff;fill-opacity:1" />
  <path
     d="m 264,263 c 42.24,0 84.48,0 128,0 0,31.5708 0,31.5708 -1.125,42.4375 -0.12979,1.30727 -0.25958,2.61454 -0.39331,3.96143 C 387.26845,340.36302 381.34834,371.30041 372,401 c -1.33611,-0.32871 -1.33611,-0.32871 -2.69922,-0.66406 C 334.22445,391.82703 300.27154,387.26697 264,385 c 0,-40.26 0,-80.52 0,-122 z"
     fill="#000000"
     id="path2"
     style="fill:#ffffff;fill-opacity:1" />
  <path
     d="m 372,111 c 9.5842,32.15005 15.69823,64.6222 19,98 0.10602,0.96051 0.21205,1.92102 0.32129,2.91064 C 392.48487,223.97418 392,235.76993 392,248 c -42.24,0 -84.48,0 -128,0 0,-39.93 0,-79.86 0,-121 10.23,-0.66 20.46,-1.32 31,-2 24.12325,-2.79112 48.08155,-6.57419 71.44531,-13.33594 C 369,111 369,111 372,111 Z"
     fill="#000000"
     id="path3"
     style="fill:#ffffff;fill-opacity:1" />
  <path
     d="m 140,111 c 0.97453,0.21914 1.94906,0.43828 2.95312,0.66406 3.09742,0.69464 6.19676,1.38008 9.29688,2.0625 4.0465,0.8912 8.08637,1.80825 12.125,2.73438 27.78311,6.27969 55.01909,8.75119 83.625,10.53906 0,39.93 0,79.86 0,121 -42.24,0 -84.48,0 -128,0 0,-30.42983 0,-30.42983 1.125,-41.375 0.12979,-1.31178 0.25959,-2.62356 0.39331,-3.9751 C 124.72319,171.66868 130.64681,140.71501 140,111 Z"
     fill="#000000"
     id="path4"
     style="fill:#ffffff;fill-opacity:1" />
  <path
     d="m 407,263 c 34.65,0 69.3,0 105,0 0,17.66454 0,17.66454 -1.125,25.8125 -0.13052,0.96083 -0.26104,1.92167 -0.39551,2.91162 C 504.42715,333.46647 488.79662,374.42891 463,408 c -0.45794,0.59925 -0.91588,1.19851 -1.3877,1.81592 -2.75184,3.58752 -5.54752,7.13519 -8.38867,10.65234 -1.11029,1.38986 -2.18846,2.80523 -3.26269,4.22315 -0.58524,0.74121 -1.17047,1.48242 -1.77344,2.24609 -0.72123,0.94166 -0.72123,0.94166 -1.45703,1.90234 C 445,430 445,430 442.23437,429.90625 438.57133,428.87989 435.39536,427.34861 432.0625,425.5625 417.25064,417.90564 401.84323,411.21701 386,406 c 0.6186,-6.6936 2.26683,-12.80388 4.125,-19.25 C 401.36849,346.15094 405.44299,305.0392 407,263 Z"
     fill="#000000"
     id="path5"
     style="fill:#ffffff;fill-opacity:1" />
  <path
     d="m 0,263 c 34.65,0 69.3,0 105,0 0.33,8.91 0.66,17.82 1,27 0.3352,5.16791 0.69164,10.28868 1.1875,15.4375 0.12528,1.30727 0.25056,2.61454 0.37964,3.96143 2.92276,29.05036 8.01853,58.62766 16.96045,86.4436 1.11683,3.53179 1.56109,6.47024 1.47241,10.15747 -0.66193,0.24532 -1.32387,0.49065 -2.00586,0.74341 -12.60664,4.69712 -25.080783,9.57001 -37.30664,15.19409 -1.000313,0.45995 -2.000625,0.91991 -3.03125,1.3938 -5.260526,2.4507 -5.260526,2.4507 -10.303467,5.31177 C 71,430 71,430 68.53125,430.05859 64.93503,428.55462 62.902602,426.01586 60.5,423.0625 59.984456,422.44206 59.468911,421.82162 58.937744,421.18237 47.849974,407.64698 38.336098,393.37517 30,378 29.640996,377.34387 29.281992,376.68773 28.912109,376.01172 10.164837,341.38482 0,302.30383 0,263 Z"
     fill="#000000"
     id="path6"
     style="fill:#ffffff;fill-opacity:1" />
  <path
     d="m 443,81 c 5.57466,4.370708 9.65308,9.443987 14,15 0.45826,0.577983 0.91652,1.155967 1.38867,1.751465 28.5047,36.094985 46.35605,80.006585 52.48633,125.498535 0.12013,0.87874 0.24025,1.75748 0.36401,2.66284 C 512.14754,233.40375 512,240.30298 512,248 c -34.65,0 -69.3,0 -105,0 -0.495,-12.87 -0.495,-12.87 -1,-26 -0.33766,-5.145 -0.69725,-10.24765 -1.1875,-15.375 -0.12528,-1.31178 -0.25056,-2.62356 -0.37964,-3.9751 -2.91524,-29.06719 -8.0136,-58.66113 -16.96045,-86.49243 C 386.35558,112.62568 385.91132,109.68723 386,106 c 0.69633,-0.25991 1.39267,-0.51981 2.11011,-0.7876 C 406.94812,98.127994 425.00777,90.009978 443,81 Z"
     fill="#000000"
     id="path7"
     style="fill:#ffffff;fill-opacity:1" />
  <path
     d="m 68,81 c 1.104727,0.533672 2.209453,1.067344 3.347656,1.617187 C 89.233416,91.204147 107.30596,99.325496 126,106 c -0.6186,6.6936 -2.26683,12.80388 -4.125,19.25 -7.59377,27.42029 -12.10805,55.45813 -14.875,83.75 -0.14164,1.44077 -0.14164,1.44077 -0.28613,2.91064 C 105.66846,223.92068 105.46369,235.94396 105,248 70.35,248 35.7,248 0,248 0,231.47637 0,231.47637 1.125,223.25 1.255518,222.28465 1.386035,221.31931 1.520508,220.32471 7.549505,178.55619 23.205985,137.5945 49,104 c 0.452622,-0.59394 0.905244,-1.18787 1.371582,-1.7998 C 55.97006,94.878662 61.743765,87.776094 68,81 Z"
     fill="#000000"
     id="path8"
     style="fill:#ffffff;fill-opacity:1" />
  <path
     d="m 248,400 c 0,36.96 0,73.92 0,112 -8.95276,0 -17.07456,-0.12758 -25.8125,-1.375 -1.43763,-0.18949 -1.43763,-0.18949 -2.9043,-0.38281 C 216.51527,509.86483 213.75926,509.43565 211,509 c -1.19327,-0.14067 -1.19327,-0.14067 -2.41065,-0.28418 -6.71842,-1.03049 -10.2644,-4.37334 -14.83935,-9.21582 -0.73307,-0.75829 -1.46615,-1.51658 -2.22144,-2.29785 C 169.85385,474.26549 154.8552,444.7863 145,415 c 8.75133,-2.84256 17.48559,-5.16121 26.5,-7 1.23814,-0.25419 2.47629,-0.50837 3.75195,-0.77026 C 199.46781,402.39847 223.27159,400 248,400 Z"
     fill="#000000"
     id="path9"
     style="fill:#ffffff;fill-opacity:1" />
  <path
     d="m 264,400 c 22.30015,0 22.30015,0 33.4375,1.1875 1.9029,0.19856 1.9029,0.19856 3.84424,0.40112 18.01529,1.98769 35.74561,5.2798 53.34326,9.59888 1.02013,0.24984 2.04026,0.49967 3.09131,0.75708 0.93151,0.23872 1.86302,0.47744 2.82275,0.72339 0.81678,0.20907 1.63357,0.41814 2.4751,0.63354 C 365,414 365,414 367,416 c -10.84256,27.13289 -22.58071,52.08867 -41,75 -0.60554,0.76925 -1.21107,1.5385 -1.83496,2.33105 -8.21764,10.18396 -15.14897,15.20558 -28.27637,16.97535 -2.62753,0.27976 -5.25434,0.48931 -7.88867,0.6936 -1.59648,0.18776 -3.19283,0.37656 -4.78906,0.56641 C 276.82772,512.09754 270.40528,512 264,512 c 0,-36.96 0,-73.92 0,-112 z"
     fill="#000000"
     id="path10"
     style="fill:#ffffff;fill-opacity:1" />
  <path
     d="m 248,0 c 0,36.96 0,73.92 0,112 -22.25617,0 -22.25617,0 -32.9375,-1.1875 -1.83244,-0.19856 -1.83244,-0.19856 -3.7019,-0.40112 C 157.36355,104.24236 157.36355,104.24236 145,96 c 11.28028,-28.359895 23.44689,-56.100893 44.73437,-78.546875 2.31423,-2.419804 2.31423,-2.419804 4.28125,-5.15625 C 201.78356,2.7406336 212.4459,2.2816771 224,1 224.79922,0.8983252 225.59844,0.79665039 226.42187,0.69189453 233.73449,-0.16990633 240.47958,0 248,0 Z"
     fill="#000000"
     id="path11"
     style="fill:#ffffff;fill-opacity:1" />
  <path
     d="m 264,0 c 8.95276,0 17.07456,0.12757959 25.8125,1.375 0.95842,0.1263281 1.91684,0.2526562 2.9043,0.3828125 C 295.48473,2.135172 298.24074,2.5643546 301,3 c 0.79551,0.093779 1.59102,0.1875586 2.41064,0.2841797 6.71843,1.030495 10.26441,4.3733402 14.83936,9.2158203 0.73307,0.758291 1.46615,1.516582 2.22144,2.297852 C 338.99906,34.404185 351.54389,58.337839 362,83 c 0.38543,0.899282 0.77086,1.798564 1.16797,2.725098 0.36738,0.880913 0.73476,1.761826 1.11328,2.669433 0.33064,0.788665 0.66129,1.577329 1.00195,2.389893 C 366,93 366,93 366,97 c -22.79717,7.65551 -47.14217,11.45124 -71,14 -1.21043,0.13148 -2.42086,0.26297 -3.66797,0.39844 C 282.1745,112.24025 273.27293,112 264,112 264,75.04 264,38.08 264,0 Z"
     fill="#000000"
     id="path12"
     style="fill:#ffffff;fill-opacity:1" />
  <path
     d="m 132,420 c 0.27038,0.66717 0.54076,1.33434 0.81934,2.02173 9.49996,23.29799 20.19572,44.93009 34.5664,65.63745 2.58522,3.7488 5.10017,7.54409 7.61426,11.34082 -5.06814,-0.91336 -9.5514,-2.64461 -14.3125,-4.5625 -1.3308,-0.53573 -1.3308,-0.53573 -2.68848,-1.08227 C 149.76743,489.9889 141.84122,486.18842 134,482 c -0.66483,-0.35175 -1.32967,-0.70351 -2.01465,-1.06592 C 122.09777,475.66843 112.9188,469.77317 104,463 c -0.59587,-0.45166 -1.19174,-0.90331 -1.80566,-1.36865 C 94.479368,455.74925 87.096208,449.62204 80,443 c 1,-3 1,-3 2.843994,-4.20752 0.805584,-0.38785 1.611167,-0.77569 2.441162,-1.17529 0.912254,-0.4411 1.824507,-0.88221 2.764405,-1.33667 1.491405,-0.69573 1.491405,-0.69573 3.012939,-1.40552 1.525243,-0.7199 1.525243,-0.7199 3.081299,-1.45435 7.567801,-3.50694 15.241111,-6.66326 23.043701,-9.60815 1.02037,-0.38624 2.04075,-0.77247 3.09204,-1.17041 C 127.47866,420 127.47866,420 132,420 Z"
     fill="#000000"
     id="path13"
     style="fill:#ffffff;fill-opacity:1" />
  <path
     d="m 380,420 c 7.15287,0.48722 13.31432,3.32543 19.875,6.0625 1.19279,0.49154 2.38557,0.98307 3.6145,1.4895 9.30919,3.86861 18.46677,7.99629 27.5105,12.448 0,4 0,4 -1.70313,6.05078 -22.91813,20.35215 -48.41311,35.68386 -76.42187,47.88672 -1.33406,0.58528 -1.33406,0.58528 -2.69507,1.18237 -4.39337,1.87714 -8.37829,3.38422 -13.17993,3.88013 2.92916,-4.41114 5.86602,-8.81568 8.85937,-13.18359 C 359.91728,465.20472 371.11541,443.30899 380,420 Z"
     fill="#000000"
     id="path14"
     style="fill:#ffffff;fill-opacity:1" />
  <path
     d="m 175,14 c -0.99967,1.310977 -0.99967,1.310977 -2.01953,2.648437 C 155.59665,39.720642 142.34895,65.066513 132,92 126.56046,91.340928 121.77192,89.631556 116.6875,87.6875 115.79265,87.347188 114.8978,87.006875 113.97583,86.65625 102.34495,82.114262 91.174666,76.551869 80,71 92.704269,44.236478 138.98207,26.359754 165.07568,15.790039 c 1.60949,-0.660784 3.20111,-1.364858 4.7876,-2.079101 C 172,13 172,13 175,14 Z"
     fill="#000000"
     id="path15"
     style="fill:#ffffff;fill-opacity:1" />
  <path
     d="m 337,13 c 5.77405,0.596336 10.61658,2.755866 15.875,5.0625 1.39557,0.607269 1.39557,0.607269 2.81934,1.226807 25.23179,11.084927 47.95657,24.932408 68.93066,42.898193 0.63373,0.54052 1.26747,1.08104 1.92041,1.637939 4.3294,3.798983 4.3294,3.798983 5.45459,7.174561 -12.5816,6.302031 -25.18292,12.32424 -38.375,17.25 -1.02094,0.382126 -2.04188,0.764253 -3.09375,1.157959 C 383.42054,92 383.42054,92 380,92 379.76515,91.403889 379.5303,90.807778 379.28833,90.193604 369.98726,66.779332 359.02092,44.994651 344.59814,24.308594 342.01294,20.574148 339.50641,16.78761 337,13 Z"
     fill="#000000"
     id="path16"
     style="fill:#ffffff;fill-opacity:1" />
</svg>
