<?xml version="1.0" encoding="UTF-8" standalone="no"?>
<svg
   version="1.1"
   width="496.59082"
   height="497.32187"
   id="svg1"
   xmlns="http://www.w3.org/2000/svg"
   xmlns:svg="http://www.w3.org/2000/svg">
  <defs
     id="defs1" />
  <path
     d="m 367.27528,30.32187 c 1.00161,0.542131 1.00161,0.542131 2.02344,1.095215 27.824,15.257263 53.54838,36.775239 72.97656,61.904785 0.76184,0.933281 1.52368,1.866562 2.3086,2.828125 7.8432,9.788315 14.31521,20.386685 20.6914,31.171875 0.39462,0.66226 0.78923,1.32451 1.19581,2.00684 12.70827,21.59293 20.55749,46.24657 25.55419,70.68066 0.19892,0.9726 0.39784,1.9452 0.60278,2.94727 2.96563,15.31792 4.02757,30.35584 3.95972,45.92773 -0.003,1.31036 -0.003,1.31036 -0.006,2.64719 -0.0489,14.11026 -0.72853,27.88689 -3.3065,41.79031 -0.17161,0.93973 -0.34321,1.87945 -0.52002,2.84766 -7.75847,41.21209 -24.37779,79.92808 -51.47998,112.15234 -0.41266,0.50145 -0.82532,1.00289 -1.25048,1.51953 -11.30902,13.73969 -23.61897,26.62031 -37.74952,37.48047 -1.46759,1.17563 -1.46759,1.17563 -2.96484,2.375 -26.42686,21.05029 -68.02906,47.625 -103.03516,47.625 v -179 h 48 c 1.08282,-7.425 1.08282,-7.425 2.1875,-15 1.7043,-11.6164 3.43556,-23.22836 5.23575,-34.83032 0.21734,-1.40156 0.43379,-2.80325 0.64936,-4.20508 0.3012,-1.95607 0.60639,-3.91152 0.91177,-5.86694 0.17241,-1.10852 0.34482,-2.21703 0.52246,-3.35913 0.49316,-2.73853 0.49316,-2.73853 1.49316,-5.73853 h -73 c -0.10312,-9.3225 -0.20625,-18.645 -0.3125,-28.25 -0.0683,-4.37814 -0.0683,-4.37814 -0.13793,-8.84473 -0.0146,-2.34862 -0.0274,-4.69725 -0.0378,-7.0459 -0.0256,-1.19093 -0.0512,-2.38186 -0.0775,-3.60888 -0.006,-10.86758 2.90461,-20.57231 10.55017,-28.5669 9.5684,-7.99221 20.65675,-8.98761 32.60937,-8.8789 1.05349,0.002 2.10697,0.004 3.19238,0.006 3.90467,0.0104 7.80928,0.0383 11.71387,0.0642 8.745,0.0412 17.49,0.0825 26.5,0.125 v -61 l -14,-1 c -4.37109,-0.53516 -4.37109,-0.53516 -6.36035,-0.80005 -10.23481,-1.29319 -20.49433,-1.44473 -30.79617,-1.4985 -1.70322,-0.009 -3.40642,-0.0231 -5.10956,-0.0423 -27.70933,-0.275845 -52.51391,6.96677 -72.92142,26.42678 -18.13392,19.05479 -23.21554,45.30571 -23.32422,70.66798 -0.0169,1.52271 -0.0351,3.04541 -0.0544,4.5681 -0.0468,3.94364 -0.077,7.88724 -0.10344,11.83107 -0.0355,4.76621 -0.0923,9.53222 -0.14539,14.29827 -0.0777,7.18285 -0.12892,14.36545 -0.18505,21.54865 h -56 v 69 h 56 v 179 c -9.22158,-1.31737 -17.74125,-2.72032 -26.625,-5.1875 -1.121,-0.30825 -2.242,-0.61649 -3.39697,-0.93408 -36.92711,-10.33654 -70.28553,-27.25649 -98.978025,-52.87831 -0.53577,-0.47405 -1.07153,-0.94811 -1.62354,-1.43652 C 33.713235,393.41993 5.4259746,332.47498 0.45619459,267.43906 -3.2837754,202.9965 15.952695,137.3271 58.880755,88.349214 c 1.69239,-1.861377 3.3952,-3.713346 5.10937,-5.554688 1.9142,-2.071257 3.73104,-4.181803 5.53516,-6.347656 18.50984,-21.135651 43.053265,-37.174075 67.749995,-50.125 0.66661,-0.353042 1.33321,-0.706084 2.02002,-1.069824 70.02407,-36.579214 159.45787,-32.1441792 227.97998,5.069824 z"
     fill="#000000"
     id="path1"
     style="fill:#000000;fill-opacity:1" />
</svg>
