<?xml version="1.0" encoding="UTF-8" standalone="no"?>
<svg
   version="1.1"
   width="512"
   height="512"
   id="svg3"
   xmlns="http://www.w3.org/2000/svg"
   xmlns:svg="http://www.w3.org/2000/svg">
  <defs
     id="defs3" />
  <path
     id="path1"
     style="fill:#000000;fill-opacity:1"
     d="M 255.625,-0.3125 C 239.73568,-0.3730036 224.26152,0.26637669 208.61523,3.2402344 L 206.4375,3.6875 C 180.44962,9.0069854 155.27797,17.755826 132.14258,30.78125 L 130,32 C 121.14538,37.005427 112.64276,42.388226 104.45312,48.425781 103.30209,49.283865 102.15105,50.141938 101,51 90.35734,58.773796 81.06046,67.513697 71.91602,77.001953 L 70,79 C 35.63919,114.67572 13.72218,158.665 3.60156,207.04688 L 3,210 c -3.0054,14.34924 -3.25697,28.68194 -3.30664,43.29102 l -0.006,3.08398 c -0.0605,15.88932 0.57888,31.36348 3.55273,47.00977 l 0.44727,2.17773 c 5.31949,25.98788 14.06833,51.15953 27.09375,74.29492 L 31.99986,382 c 5.00632,8.8562 10.38966,17.36066 16.42969,25.55078 0.85705,1.14953 1.71382,2.29927 2.57031,3.44922 10.56581,14.5164 23.2372,27.26698 36.74219,39.07812 L 89.99986,452 c 33.23707,28.67095 74.28722,48.6577 117.55469,56.42969 L 210.99986,509 c 13.18583,2.20052 26.08194,3.40599 39.45508,3.36133 2.93946,-0.0253 5.87877,-0.0481 8.81836,-0.0449 14.9106,0.0332 29.43569,-0.76728 44.11133,-3.55664 l 2.17787,-0.44729 c 25.98788,-5.31949 51.15953,-14.06833 74.29492,-27.09375 L 382,480 c 8.85462,-5.00543 17.35724,-10.38823 25.54688,-16.42578 1.15103,-0.85809 2.30207,-1.71616 3.45312,-2.57422 10.64266,-7.7738 19.93954,-16.5137 29.08398,-26.00195 L 442,433 c 34.36081,-35.67572 56.27782,-79.665 66.39844,-128.04688 L 509,302 c 3.0054,-14.34924 3.25697,-28.68194 3.30664,-43.29102 l 0.006,-3.08398 c 0.16448,-43.1956 -9.60117,-85.96266 -31.20703,-123.71094 L 480,130 C 474.97096,121.15804 469.61237,112.64431 463.57422,104.45312 462.71613,103.30209 461.85806,102.15105 461,101 453.2262,90.35734 444.4863,81.060463 434.99805,71.916016 L 433,70 C 397.32428,35.639188 353.335,13.722184 304.95312,3.6015625 L 302,3 c -14.34924,-3.00540191 -28.68194,-3.25696993 -43.29102,-3.30664062 z m -67.41016,103.43945 c 6.41094,-0.0803 7.24223,0.60341 10.5625,3.33594 3.11693,3.55609 5.30456,7.49612 7.33399,11.74609 1.21489,2.44812 2.73347,4.6311 4.32226,6.84961 l 1.50782,2.20118 1.49609,2.17773 1.65234,2.41016 C 216.72558,134.2328 218.36228,136.61621 220,139 l 1.47461,2.14648 c 2.72581,3.96859 5.45242,7.93611 8.18164,11.90235 2.28186,3.31658 4.56321,6.63369 6.84375,9.95117 0.91666,1.33334 1.83333,2.66667 2.75,4 l 5.5,8 1.375,2 c 0.91434,1.33 1.83003,2.66203 2.74414,3.99219 2.32642,3.38494 4.65415,6.76746 6.98633,10.14843 5.45164,7.90793 10.84801,15.8463 16.14453,23.85938 7.76762,-7.68499 14.92532,-15.81697 21.78516,-24.31641 2.87965,-3.4891 5.92178,-6.81356 8.96875,-10.15625 2.30797,-2.59696 4.50165,-5.26138 6.68359,-7.96484 3.85959,-4.77246 7.9345,-9.29359 12.08984,-13.80859 3.21975,-3.58598 6.23171,-7.32092 9.25782,-11.07032 2.87965,-3.4891 5.92178,-6.81356 8.96875,-10.15625 2.30797,-2.59696 4.50165,-5.26138 6.68359,-7.96484 3.85271,-4.76874 7.91245,-9.29056 12.10547,-13.76172 2.41855,-2.55839 2.41758,-2.5579 3.62109,-4.89453 1.4356,-2.43706 2.63348,-4.11667 4.83594,-5.90625 4.49386,-0.98613 8.80218,-0.75762 13.375,-0.5 l 3.67578,0.10938 c 2.98632,0.094 5.96613,0.22535 8.94922,0.39062 -1.26265,2.71534 -2.6035,4.90046 -4.58203,7.14453 l -1.55469,1.77735 -1.67578,1.89062 c -1.18239,1.34887 -2.36468,2.69783 -3.54688,4.04688 l -1.83398,2.08398 c -2.805,3.19315 -5.58723,6.40588 -8.36914,9.61914 l -1.62891,1.87891 C 364.179,139.93866 358.58838,146.46731 353,153 c -6.68902,7.81931 -13.39798,15.62114 -20.14258,23.39258 -5.14953,5.93679 -10.26393,11.90147 -15.37305,17.87304 -2.98875,3.49229 -5.98082,6.98106 -8.97265,10.47071 -2.56342,2.99023 -5.12681,5.98204 -7.6875,8.97461 C 295.5817,219.83585 290.33301,225.95342 285,232 c 1.756,3.83473 4.08831,7.26269 6.4375,10.75 l 1.33398,1.99023 c 4.5591,6.78438 9.19374,13.51784 13.83789,20.24415 2.30156,3.33559 4.59553,6.67558 6.89063,10.01562 0.91923,1.33727 1.8385,2.67451 2.75781,4.01172 l 1.375,2.00195 c 1.34826,1.96071 2.69799,3.92059 4.04688,5.88086 5.50549,8.00218 10.99763,16.01353 16.48047,24.03125 4.82116,7.04863 9.65517,14.08798 14.49609,21.12305 2.28186,3.31658 4.56321,6.63369 6.84375,9.95117 0.91666,1.33334 1.83333,2.66667 2.75,4 l 16.5,24 1.37695,2.00195 c 0.91201,1.32667 1.82282,2.6535 2.73438,3.98047 2.36116,3.43657 4.72715,6.87004 7.09961,10.29883 l 1.47851,2.14063 c 0.92174,1.33432 1.84481,2.66774 2.76953,4 2.22614,3.22568 4.37716,6.48215 6.44727,9.81054 l 1.33789,2.14844 L 403,406 c -11.26524,0.39529 -22.52805,0.69668 -33.79883,0.88086 -5.235,0.0884 -10.46501,0.20886 -15.69726,0.40234 -5.05793,0.18586 -10.11275,0.28621 -15.17383,0.33008 -1.92225,0.0312 -3.84339,0.0913 -5.76367,0.1836 -14.62058,0.67419 -14.62191,0.67466 -19.54102,-3.45313 -3.61711,-4.05198 -6.34132,-8.53901 -8.90625,-13.30859 -1.5129,-2.75295 -3.29118,-5.2857 -5.11523,-7.83985 -1.14856,-1.68914 -2.29571,-3.37924 -3.44141,-5.07031 -1.2746,-1.87509 -2.54935,-3.75009 -3.82422,-5.625 l -1.89258,-2.78516 c -2.85751,-4.20201 -5.72548,-8.3965 -8.5957,-12.58984 l -1.61328,-2.35547 c -4.75535,-6.94561 -9.52131,-13.88394 -14.29297,-20.81836 -2.73702,-3.97813 -5.47394,-7.95605 -8.20898,-11.93555 -2.35182,-3.42158 -4.70449,-6.84304 -7.06055,-10.26171 -0.96225,-1.39713 -1.92449,-2.79427 -2.88672,-4.19141 l -1.39453,-2.02148 c -2.96052,-4.30136 -5.8585,-8.63755 -8.67188,-13.03711 C 236.05689,290.84102 236.05689,290.84102 234,290 l -0.71484,1.68359 c -1.59794,2.88017 -3.59017,4.9801 -5.84766,7.37891 -3.47142,3.73346 -6.79666,7.52967 -10,11.5 -2.88599,3.57578 -5.84195,7.04151 -8.9375,10.4375 -3.11459,3.41739 -6.09187,6.90522 -9,10.5 -3.61149,4.4642 -7.38661,8.73002 -11.25391,12.97266 -2.30797,2.59696 -4.50165,5.26138 -6.68359,7.96484 -3.85959,4.77246 -7.9345,9.29359 -12.08984,13.80859 -3.21976,3.58598 -6.23171,7.32092 -9.25782,11.07032 -2.87321,3.4813 -5.9077,6.79884 -8.94922,10.13281 -3.16908,3.56796 -6.14972,7.2777 -9.125,11.00781 L 140,401 l -1.96484,2.80469 c -4.89351,3.53944 -9.98367,2.72134 -15.84766,2.50781 l -3.54492,-0.0684 c -2.88217,-0.0588 -5.76172,-0.14097 -8.64258,-0.24414 1.61817,-3.4083 3.47766,-5.79531 6.0625,-8.5625 3.26768,-3.56047 6.40229,-7.17683 9.4375,-10.9375 3.61149,-4.4642 7.38661,-8.73002 11.25391,-12.97266 2.30797,-2.59696 4.50165,-5.26138 6.68359,-7.96484 3.85959,-4.77246 7.9345,-9.29359 12.08984,-13.80859 3.21975,-3.58598 6.23171,-7.32092 9.25782,-11.07032 2.87965,-3.4891 5.92178,-6.81356 8.96875,-10.15625 2.30797,-2.59696 4.50165,-5.26138 6.68359,-7.96484 3.85959,-4.77246 7.9345,-9.29359 12.08984,-13.80859 3.21975,-3.58598 6.23171,-7.32092 9.25782,-11.07032 2.17117,-2.63068 4.41725,-5.16301 6.71484,-7.68359 1.50249,-1.66442 3.0024,-3.33117 4.5,-5 l 2.60156,-2.89453 2.52344,-2.91793 2.32031,-2.64453 c 1.78836,-2.40863 1.78836,-2.40863 1.49219,-5.08985 -1.04178,-2.72599 -2.26745,-4.58659 -4.0625,-6.89062 -4.2409,-5.63423 -8.22924,-11.41398 -12.1875,-17.25 -1.31376,-1.93363 -2.62756,-3.86722 -3.94141,-5.80078 l -1.92968,-2.8418 c -2.51,-3.68974 -5.03579,-7.3693 -7.56641,-11.04492 l -1.33203,-1.93555 c -0.87201,-1.2667 -1.74489,-2.53232 -2.61719,-3.79883 -6.83708,-9.92735 -13.65677,-19.86646 -20.46094,-29.8164 -4.82116,-7.04863 -9.65517,-14.08798 -14.49609,-21.12305 -2.28186,-3.31658 -4.56321,-6.63369 -6.84375,-9.95117 -0.91666,-1.33334 -1.83333,-2.66667 -2.75,-4 -5.5,-8 -5.49976,-7.99951 -6.875,-10 -0.91569,-1.33182 -1.83203,-2.6645 -2.74805,-3.99609 -2.30803,-3.35558 -4.61281,-6.71266 -6.91211,-10.07422 -0.92561,-1.35168 -1.85139,-2.70325 -2.77734,-4.05469 l -1.35938,-1.98438 c -2.29452,-3.33968 -4.61674,-6.65478 -6.99218,-9.9375 L 114.67383,115 c -0.88832,-1.2236 -1.78038,-2.44317 -2.67774,-3.66016 C 109.00024,107.21848 109,107.218 109,105 c 11.30007,-0.34843 22.59799,-0.61466 33.90234,-0.77734 5.25019,-0.0781 10.49804,-0.18302 15.7461,-0.35352 5.07078,-0.1637 10.13771,-0.2542 15.21093,-0.29297 1.92932,-0.0276 3.85736,-0.0808 5.78516,-0.16211 3.6761,-0.14876 6.43333,-0.26035 8.57031,-0.28711 z" />
  <path
     d="m 144,125 c 5.53134,-0.29847 11.05794,-0.51516 16.59546,-0.65918 1.87941,-0.0601 3.75827,-0.14174 5.63574,-0.24609 15.51189,-0.84004 15.51189,-0.84004 20.79199,3.24316 2.34335,3.1034 4.16153,6.22655 5.97681,9.66211 1.27053,1.85078 2.56553,3.68504 3.88672,5.5 1.26909,1.83183 2.53597,3.66521 3.80078,5.5 1.39688,2.01711 2.79402,4.03403 4.19141,6.05078 0.69109,0.99854 1.38219,1.99708 2.09423,3.02588 3.0368,4.37998 6.09295,8.74629 9.15186,13.11084 0.56936,0.81275 1.13873,1.62551 1.72534,2.46289 1.14385,1.63273 2.28781,3.26538 3.43189,4.89795 3.49277,4.985 6.9824,9.97221 10.47265,14.95898 2.8906,4.12978 5.78189,8.25907 8.67481,12.38721 6.88759,9.83047 13.75325,19.67589 20.60449,29.53174 6.06383,8.7206 12.1524,17.42369 18.24805,26.12207 2.90739,4.14952 5.81245,8.30068 8.71777,12.45166 1.16666,1.66667 2.33332,3.33334 3.5,5 2.33333,3.33333 4.66667,6.66667 7,10 0.57734,0.82476 1.15468,1.64952 1.74951,2.49927 1.16834,1.66908 2.33663,3.33818 3.50488,5.00732 2.89074,4.13003 5.78221,8.25955 8.6753,12.38794 6.88759,9.83048 13.75325,19.67589 20.60449,29.53174 4.35347,6.26087 8.71703,12.51454 13.09082,18.76123 0.55961,0.80035 1.11923,1.60069 1.6958,2.42529 3.04072,4.34602 6.09475,8.68209 9.16357,13.0083 0.65082,0.9208 1.30164,1.84159 1.97217,2.79029 1.25559,1.776 2.51489,3.54939 3.77832,5.31982 0.5593,0.79253 1.11859,1.58506 1.69483,2.40161 0.49741,0.70012 0.99483,1.40025 1.50732,2.12158 C 367,386 367,386 367,388 c -5.38892,0.29855 -10.77295,0.51519 -16.16821,0.65918 -1.83093,0.06 -3.6613,0.14172 -5.49024,0.24609 -15.1108,0.84018 -15.1108,0.84018 -20.33789,-3.24975 C 322.66179,382.55346 320.82713,379.42717 319,376 c -1.24792,-1.81507 -2.51939,-3.61422 -3.81641,-5.39453 -1.25094,-1.80444 -2.49957,-3.61047 -3.74609,-5.41797 -1.39448,-2.01306 -2.78901,-4.02608 -4.18359,-6.03906 -1.0555,-1.52609 -1.0555,-1.52609 -2.13233,-3.08301 -3.40741,-4.92329 -6.82688,-9.83817 -10.24658,-14.75293 -0.66314,-0.95342 -1.32628,-1.90685 -2.00952,-2.88916 -6.03188,-8.6694 -12.08665,-17.32266 -18.14771,-25.97168 C 271.81038,308.30214 268.90532,304.15098 266,300 c -1.16666,-1.66667 -2.33332,-3.33334 -3.5,-5 -7,-10 -14,-20 -21,-30 -0.57734,-0.82476 -1.15468,-1.64952 -1.74951,-2.49927 -1.16834,-1.66908 -2.33663,-3.33818 -3.50489,-5.00732 -2.89073,-4.13003 -5.7822,-8.25955 -8.67529,-12.38794 -6.88759,-9.83048 -13.75325,-19.67589 -20.60449,-29.53174 -6.06383,-8.7206 -12.1524,-17.42369 -18.24805,-26.12207 C 185.81038,185.30214 182.90532,181.15098 180,177 c -1.16666,-1.66667 -2.33332,-3.33334 -3.5,-5 -2.33333,-3.33333 -4.66667,-6.66667 -7,-10 -0.57855,-0.82645 -1.1571,-1.6529 -1.75317,-2.5044 -1.15627,-1.65189 -2.31236,-3.30391 -3.46827,-4.95605 -3.07438,-4.39371 -6.15251,-8.78475 -9.23559,-13.17236 -0.64518,-0.9191 -1.29035,-1.83821 -1.95508,-2.78516 -1.2437,-1.7716 -2.48845,-3.54246 -3.73437,-5.3125 -0.55623,-0.79277 -1.11247,-1.58555 -1.68555,-2.40234 -0.49218,-0.70012 -0.98436,-1.40025 -1.49146,-2.12158 C 145,127 145,127 144,125 Z"
     fill="#020202"
     id="path3"
     style="fill:#000000;fill-opacity:1" />
</svg>
