<svg xmlns:xlink="http://www.w3.org/1999/xlink" xmlns="http://www.w3.org/2000/svg" xmlns:svg="http://www.w3.org/2000/svg" version="1.1" id="svg55" width="1672" height="743" viewBox="0 0 1672 743">
<path id="flag" style="fill:#17468f;fill-opacity:1" d="M 0,162.5 V 0 H 312.5 625 V 162.5 325 H 312.5 0 Z m 193,0 V 24 H 108.5 24 V 162.5 301 H 108.5 193 Z M 77.541945,209.7993 c 1.392741,-4.52295 10.650812,-33.13804 11.100911,-34.31098 0.257649,-0.67142 -6.451001,-6.19696 -15.288608,-12.59236 L 57.606534,151.5 l 19.538482,-0.27061 19.538482,-0.27061 5.882592,-18.45505 c 3.23543,-10.15027 6.18946,-18.1285 6.56452,-17.72939 0.37506,0.39911 3.25705,8.70384 6.40441,18.45495 l 5.72249,17.72929 19.42693,0.27071 19.42693,0.27071 -15.55569,11.30112 C 136.00006,169.01673 129,174.24501 129,174.41951 c 0,0.17451 2.67631,8.57519 5.94736,18.6682 3.27104,10.093 5.85854,18.41565 5.75,18.49478 -0.10855,0.0791 -7.17236,-4.9628 -15.69736,-11.20429 -8.525,-6.24149 -16.00711,-11.1653 -16.6269,-10.94181 -0.6198,0.2235 -7.96966,5.41393 -16.333038,11.53429 -11.543995,8.44796 -15.035621,10.57418 -14.498117,8.82862 z M 601,237.5 V 174 H 409 217 v 63.5 63.5 h 192 192 z m 0,-150 V 24 H 409 217 V 87.5 151 h 192 192 z"/>
<path id="slogen" style="fill:#3f4743;fill-opacity:1" d="M 41.617739,741.8877 C 25.977468,738.21598 11.665406,722.02541 6.3579958,702 4.0963678,693.46664 4.0891249,678.5563 6.3424865,670.07224 10.645823,653.86989 19.975882,641.59242 32.803126,635.25256 39.887053,631.75134 41.001864,631.5 49.447786,631.5 c 10.775132,0 16.853692,1.84191 24.03565,7.28324 C 77.841223,642.08486 86,652.04164 86,654.05816 c 0,0.39411 -3.052018,3.18248 -6.782263,6.19638 l -6.782263,5.47982 -2.704711,-4.84437 C 68.169056,658.09284 65.25537,654.87384 62.836055,653.27281 59.06807,650.77927 57.775237,650.5 50,650.5 c -7.795104,0 -9.062421,0.27554 -12.876486,2.79956 -19.083934,12.62915 -18.663025,53.62241 0.689506,67.15253 3.635479,2.54171 5.442037,3.06913 11.5,3.3574 6.079421,0.2893 7.880459,-0.0281 11.68698,-2.05992 3.909633,-2.0868 8.001929,-6.3892 11.5,-12.09041 0.87756,-1.43026 1.847528,-1.07998 7.922016,2.86086 3.807109,2.46987 7.124281,4.69294 7.371495,4.94016 0.854282,0.85428 -4.606816,9.05431 -8.774624,13.17541 -9.758861,9.64948 -24.866772,14.19468 -37.401148,11.25211 z m 60.048931,-0.55437 C 101.3,740.96667 101,715.99167 101,685.83333 V 631 h 22.3185 c 17.07006,0 23.52368,0.3579 27.44341,1.52194 7.20494,2.13963 15.28099,9.73516 19.48243,18.32323 3.04498,6.22418 3.25566,7.33432 3.25566,17.15483 0,9.49033 -0.28057,11.10768 -2.91778,16.81955 -1.98588,4.30118 -4.60375,7.82224 -8.19661,11.0245 l -5.27883,4.70495 10.93634,19.9755 c 12.51444,22.85796 12.60181,21.19533 -1.12321,21.37582 L 159.33983,742 148.91991,722.94842 C 138.67614,704.21888 138.4514,703.90616 135.625,704.44842 134.04375,704.75179 129.88125,705 126.375,705 H 120 v 18.5 18.5 h -8.83333 c -4.85834,0 -9.13334,-0.3 -9.5,-0.66667 z m 48.25383,-57.91989 c 6.09883,-5.13182 7.59293,-17.56639 3.1558,-26.26388 C 149.75503,650.63933 147.90461,650 132.38322,650 h -13.68715 l 0.65196,10.65556 c 0.35859,5.86056 0.65197,13.96056 0.65197,18 V 686 h 13.42327 c 12.979,0 13.52502,-0.0856 16.49723,-2.58656 z M 193,686 v -55 h 32.5 32.5 v 9 9 H 234.5 211 v 14.1495 14.1495 l 20.5,-0.54828 20.5,-0.54828 v 8.24599 8.24599 l -11.25,0.64824 c -6.1875,0.35654 -15.4125,0.65029 -20.5,0.65279 L 211,694 l 0.009,9.25 c 0.005,5.0875 0.29246,11.6125 0.63929,14.5 l 0.6306,5.25 h 23.86071 23.86071 v 9 9 h -33.5 -33.5 v -55 z m 82.65921,40.75 c -0.35854,-7.8375 -0.65354,-32.5875 -0.65555,-55 L 275,631 h 21.89466 c 25.63571,0 30.92783,1.08666 40.84439,8.38681 24.13691,17.76859 26.91862,65.11989 5.17609,88.1094 -10.40138,10.99792 -19.00927,13.46789 -47.00959,13.48901 L 276.3111,741 Z m 46.98961,-7.06658 c 10.2148,-5.18707 15.26982,-14.86016 16.10377,-30.81554 0.95458,-18.26319 -4.60558,-30.97903 -16.25259,-37.16899 -3.28956,-1.74829 -6.17573,-2.19501 -16.25,-2.5152 L 294,648.79435 v 37.24009 37.2401 l 11.75,-0.48828 c 10.11205,-0.42021 12.46775,-0.85274 16.89882,-3.10284 z M 373,686 v -55 h 9 9 v 23.33692 c 0,12.83531 0.29768,37.58531 0.66151,55 L 392.32301,741 H 382.66151 373 Z m 62,9.10699 V 649 H 419.5 404 v -9.5 -9.5 h 40 40 v 8.97395 8.97396 l -15.25,0.27604 -15.25,0.27605 -0.26009,45.75 -0.26009,45.75 h -7.40812 c -4.07447,0 -8.11993,0.27314 -8.98991,0.60699 -1.42829,0.54808 -1.58179,-3.8673 -1.58179,-45.5 z m 128.92935,44.52564 c -14.12854,-3.80946 -26.30988,-16.79004 -32.65546,-34.79803 -3.41832,-9.7008 -4.21956,-25.14731 -1.83286,-35.3346 3.4623,-14.77835 12.72479,-28.4393 23.58362,-34.78274 10.79484,-6.30605 25.7451,-7.25836 36.51844,-2.32617 6.28706,2.87832 15.03517,10.73453 18.17603,16.32295 l 2.15722,3.83825 -5.94666,4.7585 c -7.76082,6.21017 -8.3947,6.39497 -9.8537,2.87264 -1.62229,-3.91656 -6.73752,-8.73236 -11.29386,-10.63275 -5.24988,-2.18965 -14.97065,-2.01001 -19.57196,0.36169 -7.63258,3.93415 -13.01686,11.92713 -15.69964,23.30615 -3.54988,15.05682 0.18126,31.47223 9.3455,41.11621 2.00419,2.10911 5.31355,4.69661 7.35414,5.75 4.81923,2.48779 13.88512,2.51111 19.28984,0.0496 3.63371,-1.65492 11.4781,-9.07144 11.51531,-10.88722 0.008,-0.41092 0.39909,-1.35266 0.86814,-2.09277 0.66274,-1.04573 2.4424,-0.28866 7.98468,3.39671 3.92253,2.60831 7.13187,5.19945 7.13187,5.75811 0,2.06138 -6.3643,10.84681 -10.29477,14.21115 -10.15004,8.68805 -24.84511,12.32919 -36.77588,9.11231 z M 1654,576.5 V 412 H 827 0 v -9 -9 h 827 827 V 197 0 h 9 9 V 370.5 741 h -9 -9 z M 651.90603,738.59194 c -14.38372,-5.51983 -25.1295,-17.46581 -30.59622,-34.01353 -2.29466,-6.9459 -2.66879,-9.76068 -2.66879,-20.07841 0,-10.31773 0.37413,-13.13251 2.66879,-20.07841 4.79968,-14.5286 14.88328,-26.80984 26.47212,-32.24153 C 652.846,629.80653 654.70093,629.5 664,629.5 c 9.67058,0 10.97257,0.23698 16.4824,3 7.79375,3.90833 16.25372,12.56627 20.87828,21.36684 15.7411,29.95535 6.15952,68.60115 -20.37719,82.18827 -5.78267,2.96079 -7.51038,3.35185 -15.98349,3.61783 -6.33299,0.19879 -10.69812,-0.16158 -13.09397,-1.081 z m 23.56246,-20.02061 c 18.6703,-10.94152 20.6709,-49.47164 3.37609,-65.02116 -13.31312,-11.96964 -32.02846,-6.03835 -38.90032,12.32835 -7.90946,21.13993 -1.11833,46.34239 14.50013,53.81124 6.57043,3.14202 14.4714,2.72171 21.0241,-1.11843 z m 49.19218,-6.7338 C 724.2973,696.89818 724,672.13243 724,656.80255 v -27.87252 l 10.04987,0.28499 10.04986,0.28498 14.09588,30.75 c 7.75273,16.9125 14.39156,30.75 14.75296,30.75 0.3614,0 6.94458,-13.8375 14.62929,-30.75 l 13.97219,-30.75 9.56347,-0.28426 9.56347,-0.28427 0.6615,27.19673 C 821.70232,671.0864 822,695.85182 822,711.16247 V 739 h -9.5 -9.5 v -36.2 c 0,-19.91 -0.3762,-35.7725 -0.83599,-35.25 -0.4598,0.5225 -5.96515,12.36705 -12.23413,26.32123 -6.26897,13.95417 -11.85527,25.50462 -12.414,25.66766 -0.55874,0.16304 -2.8438,0.50433 -5.07793,0.75841 l -4.06206,0.46197 L 755.93795,693.70289 743.5,666.64652 743.23753,702.82326 742.97505,739 h -8.82685 -8.82686 z M 842,683.96502 v -55.03499 l 10.04987,0.28499 10.04986,0.28498 14.11293,30.7872 c 7.76212,16.93296 14.46806,30.43208 14.9021,29.99804 0.43405,-0.43405 7.02872,-14.51329 14.65484,-31.28721 L 919.63526,628.5 929.31763,628.21379 939,627.92758 v 35.8754 c 0,19.73147 0.29631,44.72277 0.65846,55.53621 L 940.31692,739 H 930.65846 921 l -0.0304,-36.75 c -0.0235,-28.41693 -0.29401,-36.2965 -1.19291,-34.75 -0.63938,1.1 -6.23752,13.25 -12.44031,27 l -11.27781,25 h -5.11233 -5.11232 l -11.97987,-26 c -6.58893,-14.3 -12.28906,-26.3153 -12.66696,-26.70066 -0.37789,-0.38536 -0.53217,15.70214 -0.34283,35.75 L 861.1885,739 H 851.59425 842 Z M 959.9995,683.25 960,628 h 8.89003 8.89003 l 0.4178,54.75 c 0.22979,30.1125 0.39178,54.81735 0.35997,54.89968 -0.0318,0.0823 -4.22056,0.30732 -9.30833,0.5 L 959.99899,738.5 Z M 1017,737.40735 c -6.4701,-1.71874 -18.4507,-7.25523 -21.97754,-10.15631 l -2.47754,-2.03796 3.38725,-7.85654 c 1.86298,-4.3211 3.65395,-8.17262 3.97993,-8.55893 0.326,-0.38632 2.9235,0.85983 5.7723,2.76921 12.3123,8.2523 29.5108,11.41892 37.3156,6.87058 6.8429,-3.9878 7.2151,-13.88859 0.7083,-18.84125 -1.7646,-1.34308 -9.112,-4.46251 -16.3277,-6.93208 -7.2156,-2.46957 -14.9233,-5.41045 -17.1282,-6.53529 -5.9783,-3.0499 -11.83936,-10.23856 -13.29503,-16.30647 -1.56735,-6.53345 -0.68177,-17.39625 1.89267,-23.21622 6.56236,-14.83536 24.33386,-22.47331 42.39996,-18.22293 6.9066,1.6249 16.4312,5.91858 20.5782,9.27667 l 2.3222,1.88038 -3.901,8.0668 -3.901,8.0668 -4.2354,-2.93411 C 1045.9035,648.43803 1038.0762,646 1030.4753,646 1019.8076,646 1015,649.72798 1015,658 c 0,8.08757 3.2317,10.54751 21,15.98505 24.868,7.61021 32.9885,16.71019 31.7757,35.60832 -0.8901,13.8696 -8.1957,23.60279 -20.5892,27.43075 -7.7302,2.3876 -21.961,2.56826 -30.1865,0.38323 z m 84.8084,0.10714 c -7.0433,-1.78397 -18.0873,-6.72714 -22.4299,-10.03939 l -3.2596,-2.48623 3.5146,-7.74443 c 1.9331,-4.25944 3.8189,-8.04306 4.1906,-8.40803 0.3718,-0.36498 3.594,1.11207 7.1606,3.28232 8.314,5.05899 17.5065,7.88127 25.6703,7.88127 10.3391,0 15.345,-3.78017 15.345,-11.58765 0,-7.56447 -4.5098,-11.06999 -20.5,-15.93478 -18.3881,-5.59433 -26.9046,-11.34721 -29.9262,-20.21506 -2.0311,-5.96077 -2.0121,-16.67583 0.041,-23.03217 6.6296,-20.52737 31.3275,-28.23309 54.9576,-17.14673 3.3397,1.56687 7.2447,3.77111 8.6777,4.89832 l 2.6055,2.04946 -3.5499,7.7343 c -1.9525,4.25387 -3.6786,7.88052 -3.8359,8.05922 -0.1574,0.1787 -2.0686,-0.8547 -4.2472,-2.29644 -12.5088,-8.27792 -28.5675,-9.57519 -34.8336,-2.81395 -1.9112,2.06219 -2.3888,3.66772 -2.3888,8.03029 0,8.04928 2.5632,10.02973 20.4263,15.7823 15.7043,5.05736 22.2907,8.73757 27.207,15.20199 5.8958,7.75253 6.8568,21.61179 2.2422,32.33861 -2.6504,6.16102 -10.1534,13.12848 -16.6313,15.44417 -6.511,2.32753 -23.0533,2.87246 -30.4358,1.00261 z m 64.8131,-54.14205 c -0.3848,-30.04516 -0.5696,-54.73679 -0.4106,-54.8703 0.159,-0.13351 4.4516,-0.46961 9.5391,-0.74689 L 1185,627.2511 V 682.62555 738 h -8.8393 -8.8394 z m 67.6645,53.23415 c -15.4271,-5.03128 -28.4152,-21.04502 -32.6889,-40.304 -7.0435,-31.7413 11.1119,-64.65219 38.3084,-69.44276 16.4682,-2.90082 34.1137,7.20604 43.3725,24.8427 12.838,24.45448 9.3182,54.39435 -8.587,73.04071 -8.6567,9.01505 -16.2048,12.55992 -27.5642,12.94512 -5.3848,0.1826 -10.2104,-0.22394 -12.8408,-1.08177 z m 17.3044,-17.73366 c 14.0049,-3.52649 23.7571,-24.43299 20.5254,-44.00194 -4.4032,-26.66192 -25.8345,-38.50348 -42.1184,-23.27183 -19.7552,18.47874 -13.0208,61.73903 10.5026,67.46577 4.4418,1.08136 6.1509,1.05177 11.0904,-0.192 z M 1306,682 v -55 l 7.25,0.0344 7.25,0.0344 25,35.92641 25,35.92641 0.2625,-35.96085 0.2624,-35.96085 h 8.8258 8.8258 l 0.6618,33.16324 c 0.3639,18.23979 0.6617,43.00871 0.6617,55.04207 v 21.87882 l -7.6503,-0.29207 -7.6504,-0.29206 -24.5996,-34.86141 -24.5997,-34.86141 -0.2628,35.11141 -0.2628,35.11141 H 1315.4872 1306 v -55 z m 104,-0.5 V 626 h 32.5 32.5 v 9.5 9.5 h -23.5 -23.5 v 13.5 13.5 h 20.5 20.5 v 8.5 8.5 h -20 -20 v 14.5 14.5 h 24 24 v 9.5 9.5 h -33.5 -33.5 z m 82.6623,16.83634 c -0.3643,-20.71501 -0.6623,-45.46501 -0.6623,-55 V 626 h 23.134 c 13.7347,0 24.6049,0.4407 26.7542,1.08466 18.8554,5.64919 28.8334,32.37173 19.6641,52.66282 -2.5853,5.72119 -9.1371,13.28077 -12.4742,14.39316 -0.8509,0.28362 2.2626,6.82142 9.3574,19.64922 5.848,10.57329 10.8905,19.89601 11.2056,20.71715 0.4846,1.2629 -0.9746,1.49299 -9.4678,1.49299 h -10.0407 L 1539.9733,717.5 1529.8139,699 H 1520.407 1511 v 18.5 18.5 h -8.8377 -8.8377 z m 47.0392,-19.29586 c 4.358,-2.65725 6.5198,-7.28508 7.0221,-15.03251 0.3499,-5.39595 0.025,-7.26689 -1.9008,-10.94943 -3.9968,-7.64228 -6.0352,-8.50946 -20.8921,-8.88801 L 1511,643.84106 V 662.42053 681 l 12.75,-0.004 c 10.8813,-0.003 13.2192,-0.28983 15.9515,-1.95578 z M 29,546 V 506 H 15 1 v -5 -5 h 32 32 v 5 5 H 51.5 38 v 40 40 H 33.5 29 Z m 48.994826,4.75 c -0.0028,-19.3875 -0.295715,-39.6375 -0.650823,-45 L 76.698354,496 H 103.34918 130 v 5 5 H 108.5 87 v 15.1418 15.1418 l 18.5,-0.50699 18.5,-0.50699 V 540.13481 545 H 105.5 87 v 15.7888 15.78879 l 22,-0.40975 22,-0.40975 V 580.87904 586 H 104.5 78 l -0.0052,-35.25 z m 61.202364,33.05756 C 150.19848,566.91316 166,541.97967 166,541.51494 c 0,-0.32928 -6.21101,-10.14235 -13.80225,-21.80682 -7.59124,-11.66446 -14.15823,-21.79559 -14.59332,-22.51362 -0.61955,-1.02244 0.35397,-1.23926 4.49007,-1 l 5.28114,0.3055 11.60294,18 c 6.38163,9.9 12.03461,17.92629 12.56219,17.83619 0.52757,-0.0901 6.08033,-8.30259 12.33946,-18.25 L 195.26045,496 h 4.86978 c 2.67837,0 4.86977,0.20392 4.86977,0.45316 0,0.24924 -6.0832,9.90879 -13.51822,21.46568 -7.43501,11.55689 -13.78282,21.70209 -14.10624,22.54489 -0.36411,0.94887 4.53213,9.43444 12.85824,22.28432 7.39544,11.41357 13.7698,21.31445 14.16525,22.00195 0.53411,0.92855 -0.55512,1.25 -4.23563,1.25 h -4.95463 l -11.35704,-17.66755 c -6.24638,-9.71716 -11.80585,-17.79511 -12.35439,-17.95101 -0.54854,-0.1559 -5.94734,7.682 -11.99734,17.41755 l -11,17.70101 -5.40272,0.30756 -5.40272,0.30755 z m 69.8262,1.44244 c 0.0129,-0.4125 7.13507,-20.775 15.82714,-45.25 l 15.80376,-44.5 h 3.91425 3.91425 l 16.19249,44.5 c 8.90587,24.475 16.22224,44.8375 16.2586,45.25 0.0364,0.4125 -2.13523,0.75 -4.82578,0.75 h -4.89189 l -4.81593,-13.52272 -4.81593,-13.52272 -16.92109,0.27272 -16.92109,0.27272 -4.56784,13.25 -4.56785,13.25 h -4.80324 c -2.64178,0 -4.79272,-0.3375 -4.77985,-0.75 z M 259,550.07501 c 0,-0.795 -10.50474,-31.88545 -13.20254,-39.07501 -0.75379,-2.00882 -1.10133,-2.20529 -1.76891,-1 C 243.05453,511.75854 230,549.25525 230,550.29438 230,550.68247 236.525,551 244.5,551 c 8.21616,0 14.5,-0.40086 14.5,-0.92499 z m 46.74592,34.83932 c -4.52326,-1.06605 -13.0515,-5.28783 -17.44436,-8.63557 l -3.19845,-2.43749 2.1009,-4.32429 2.1009,-4.32429 5.59755,3.79715 C 302.31897,574.02091 308.57643,576 317.06707,576 329.59375,576 335,571.85403 335,562.24749 c 0,-5.00977 -0.32353,-5.8027 -3.75,-9.19095 -2.91949,-2.88693 -5.74321,-4.31631 -12.75,-6.45411 -16.14692,-4.92649 -20.7137,-6.88576 -24.53792,-10.52739 -4.52559,-4.30951 -6.39122,-10.27228 -5.68281,-18.16289 1.13293,-12.61914 9.00074,-20.63413 22.34996,-22.76803 9.43593,-1.50836 17.79915,0.37784 26.57225,5.99297 l 4.70149,3.00913 -2.0769,4.27487 -2.07689,4.27487 -4.86755,-3.27562 c -8.24026,-5.54528 -20.379,-6.8001 -27.94309,-2.88856 -4.15522,2.14875 -6.93027,7.0579 -6.9348,12.26788 -0.008,8.94944 3.69098,11.90567 20.88845,16.69507 11.91822,3.31917 18.09918,6.45827 21.97509,11.16042 5.51532,6.69104 6.24093,18.43356 1.68364,27.24638 -2.29139,4.43105 -8.07164,8.87866 -13.71833,10.55554 -5.5968,1.66208 -17.01507,1.88823 -23.08667,0.45726 z m 106.33545,-0.47305 c -6.96567,-1.91103 -10.71422,-4.27228 -16.35371,-10.30135 -8.46557,-9.05038 -12.73461,-20.48908 -12.71579,-34.07143 0.007,-4.71268 0.65487,-10.98436 1.44077,-13.93708 4.72002,-17.73382 17.67635,-30.25715 32.93228,-31.8317 23.61551,-2.43733 44.15846,27.50753 38.21182,55.70028 -5.19632,24.63553 -24.26007,39.72399 -43.51537,34.44128 z m 14.6209,-9.9455 c 19.59595,-5.81938 26.84345,-38.93524 12.94593,-59.15356 -8.84722,-12.87106 -24.75074,-14.93875 -35.75208,-4.64828 -19.42748,18.17213 -13.29683,57.25552 10.09741,64.37172 3.94507,1.20004 7.24743,1.05195 12.70874,-0.56988 z M 471,540.125 V 495.25 l 3.125,-0.625 c 1.71875,-0.34375 13.41875,-0.625 26,-0.625 H 523 v 5 5 h -21 -21 v 15.5 15.5 h 17.5 17.5 v 4.5 4.5 H 498.5 481 v 20.5 20.5 h -5 -5 z M 536,539.5 V 494 h 26 26 v 5 5 h -21 -21 v 15.5 15.5 h 17.5 17.5 v 4.5 4.5 H 563.5 546 v 20.5 20.5 h -5 -5 z m 119.5,44.62016 c -13.416,-3.54209 -24.62602,-16.53231 -28.97838,-33.58026 -5.44526,-21.32877 4.42332,-45.49481 22.11275,-54.14944 7.88478,-3.85767 18.43083,-3.95251 26.45211,-0.2379 6.0959,2.82298 11.9499,8.08333 14.51437,13.04247 1.63027,3.15259 1.62439,3.17282 -1.73251,5.96034 -3.07277,2.55158 -3.45609,2.64554 -4.36834,1.07082 -0.55,-0.9494 -3.06046,-3.79087 -5.57879,-6.31436 C 673.33432,505.31554 667.80731,503 661.4232,503 c -8.92416,0 -18.31169,7.01578 -23.01398,17.19952 -2.70064,5.84877 -2.90922,7.16082 -2.90922,18.30048 0,11.36387 0.1655,12.34927 3.12193,18.5886 5.77327,12.18404 12.88331,17.34373 23.95649,17.38501 6.1559,0.023 7.71984,-0.36839 12,-3.00275 2.70687,-1.66603 6.29694,-5.07392 7.97794,-7.5731 l 3.05636,-4.54395 3.70339,2.34382 3.70339,2.34383 -1.93733,3.79748 c -2.56374,5.02533 -9.11455,10.82871 -15.54806,13.77408 -5.62977,2.57739 -15.22158,3.77774 -20.03411,2.50714 z M 601,539 v -45 h 4.5 4.5 l 0.002,15.75 c 0.001,8.6625 0.29852,28.9125 0.66111,45 l 0.65926,29.25 h -5.1611 -5.16111 v -45 z m 105,0 v -45 l 10.25,-0.003 c 5.6375,-0.002 17.3375,-0.29729 26,-0.65656 L 758,492.68721 v 5.15656 5.15656 h -21 -21 v 15 15 h 18.5 18.5 v 4.5 4.5 H 734.5 716 v 16 16 h 22 22 v 5 5 h -27 -27 v -45 z m 111.99353,44.12391 c -7.74509,-2.53594 -13.36345,-7.63758 -17.47274,-15.86577 -8.82488,-17.67043 -2.98923,-40.24264 12.59721,-48.72585 16.68088,-9.07887 35.2134,4.0425 38.34822,27.15124 1.27193,9.37622 -2.9877,22.97691 -9.28793,29.65568 -6.20042,6.57297 -17.1355,10.0928 -24.18476,7.7847 z M 830.5,575.10414 c 8.62646,-3.99392 13.67071,-12.94662 13.80365,-24.49916 0.22642,-19.67621 -13.08644,-32.31867 -27.63246,-26.24095 -14.31617,5.98168 -17.79813,33.28634 -5.86758,46.01207 3.14333,3.35283 9.6155,6.57998 13.19639,6.57998 1.375,0 4.3,-0.83338 6.5,-1.85194 z m 136.42935,7.55822 C 949.38991,577.81915 937,558.91622 937,537 c 0,-21.33029 11.254,-38.52947 28.48968,-43.54002 13.44513,-3.90861 27.03053,1.30238 35.07092,13.45223 l 2.7974,4.22719 -2.929,2.39433 c -3.8563,3.15237 -4.52704,3.06222 -7.13067,-0.95835 -10.81715,-16.70409 -34.5613,-13.0598 -43.2764,6.64213 -11.08711,25.06425 4.73542,57.41771 26.61371,54.41895 7.57403,-1.03813 15.62898,-6.49805 18.95599,-12.84901 l 1.421,-2.71255 3.49367,2.06133 c 1.9215,1.13373 3.4937,2.72329 3.4937,3.53237 0,2.64608 -5.96056,10.20818 -10.51748,13.34342 -8.23489,5.66576 -18.54904,7.86054 -26.55317,5.65034 z M 863,549.5 V 516 h 19 19 v 3.5 3.5 H 885.5 870 v 11.5 11.5 h 13 13 v 3.5 3.5 h -13 -13 v 15 15 h -3.5 -3.5 z m 178,32.61471 c -9.3827,-3.05146 -18.2335,-10.89192 -22.9498,-20.33013 -12.4856,-24.986 -3.8408,-56.34837 18.4498,-66.93373 23.6686,-11.2397 49.5382,11.29542 49.4881,43.10925 -0.029,18.31132 -9.4985,35.27185 -23.4881,42.0678 -5.3147,2.58182 -16.6076,3.67791 -21.5,2.08681 z m 19.6938,-12.11222 c 9.9059,-5.68126 15.5896,-17.53104 15.5896,-32.50249 0,-20.57998 -11.348,-35.53635 -26.9187,-35.47804 -7.6268,0.0286 -12.8655,2.46792 -18.1201,8.43746 -6.6252,7.52662 -8.6877,13.94627 -8.6877,27.04058 0,13.09431 2.0625,19.51396 8.6877,27.04058 5.2956,6.01606 10.4848,8.41178 18.2554,8.42807 4.8424,0.0102 7.002,-0.5621 11.1938,-2.96616 z M 1201,581.25001 c -6.1809,-1.67672 -12.7221,-4.99106 -17.8278,-9.03316 l -2.3279,-1.84289 2.2528,-4.63695 2.2528,-4.63696 3.5294,3.09886 c 1.9412,1.70438 6.025,4.25889 9.0751,5.67671 7.2614,3.37543 21.6466,3.77409 26.6601,0.73884 C 1228.7941,568.08402 1231,564.07183 1231,559 c 0,-8.61833 -5.2549,-12.75381 -22.2932,-17.54413 C 1189.986,536.19248 1184,530.26353 1184,516.98445 c 0,-12.1355 6.6564,-21.02314 18.3451,-24.49431 11.3436,-3.36866 21.8705,-0.99511 34.079,7.68391 0.5657,0.40214 0.2067,2.31823 -0.8899,4.75 -1.8595,4.12366 -2.9005,4.91025 -4.046,3.05693 -1.6179,-2.61787 -11.2688,-6.29701 -17.7415,-6.76349 -13.1978,-0.95114 -19.7571,3.9657 -19.7207,14.78251 0.029,8.68136 3.7179,11.64722 19.8093,15.92718 20.6185,5.48409 27.1208,11.73512 27.1208,26.07282 0,7.65281 -2.1447,13.01101 -7.0877,17.70747 -6.7542,6.41729 -20.8695,8.79754 -32.8684,5.54254 z M 1101,537 v -45 h 3.4504 c 3.4006,0 3.7984,0.49738 27.5908,34.49713 13.2773,18.97342 24.5496,34.74998 25.0496,35.05901 0.539,0.33309 0.9092,-13.71453 0.9092,-34.49712 V 492 h 4.5 4.5 v 45 45 h -3.8374 -3.8373 l -23.9127,-33.98933 c -13.1519,-18.69414 -24.2985,-33.99414 -24.7701,-34 -0.4716,-0.006 -0.6966,15.28935 -0.5,33.98937 l 0.3575,34.00003 -4.75,-3e-5 L 1101,582 Z m 175.6361,43.59294 c -9.1722,-3.40781 -16.1233,-11.30375 -19.8552,-22.55425 -1.9856,-5.98563 -2.2014,-9.04598 -2.5523,-36.18185 l -0.3833,-29.64315 4.4618,-0.35685 4.4617,-0.35684 0.4755,28.5 c 0.4202,25.1816 0.7136,29.23129 2.5203,34.78063 4.0167,12.33757 10.2538,17.21937 21.9998,17.21937 9.7453,0 14.768,-3.27495 19.3787,-12.6354 l 3.3569,-6.815 0.3151,-30.7748 0.3152,-30.7748 h 4.9348 4.9349 v 26.41203 c 0,28.99423 -1.0611,38.10474 -5.4932,47.16362 -3.058,6.25041 -8.231,11.72248 -13.8131,14.61186 -5.3762,2.7828 -19.2551,3.56125 -25.0576,1.40543 z M 1339,536 v -45 h 5.0526 5.0526 l 14.5572,29.75 14.5572,29.75 7.9966,-16.5 c 4.3982,-9.075 10.8471,-22.4625 14.331,-29.75 l 6.3343,-13.25 h 5.0592 5.0593 v 45 45 h -4.5 -4.5 v -34.5 c 0,-18.975 -0.3375,-34.49757 -0.75,-34.49459 -0.4125,0.003 -6.4359,11.81547 -13.3853,26.25 -11.3269,23.52673 -12.9025,26.27701 -15.2149,26.55762 -2.4419,0.29633 -3.2982,-1.11663 -16.0607,-26.5 L 1349.1078,511.5 l -0.054,34.75 -0.054,34.75 h -5 -5 v -45 z m 98,0 v -45 h 26 26 v 4.5 4.5 l -16.25,0.009 c -8.9375,0.005 -18.6125,0.29246 -21.5,0.63929 l -5.25,0.6306 v 14.36071 14.36071 h 18.5 18.5 v 4.5 4.5 l -14.75,0.011 c -8.1125,0.006 -16.4375,0.28993 -18.5,0.63084 l -3.75,0.61983 v 15.36916 15.36916 h 22 22 v 5 5 h -26.5 -26.5 v -45 z m 68,0.14695 v -44.85304 l 16.75,-0.68261 c 13.6093,-0.55462 17.7037,-0.39652 21.8365,0.84323 6.3711,1.91121 11.8317,7.07776 15.3028,14.47889 2.1826,4.65376 2.6068,6.96043 2.5867,14.06658 -0.02,7.2349 -0.4201,9.25757 -2.6857,13.59002 -2.4624,4.70854 -6.9091,9.41841 -11.2909,11.95902 -1.6501,0.9567 -0.9658,2.56309 7.7733,18.25 L 1564.8553,581 h -5.3421 -5.3421 L 1544.97,564.5 1535.769,548 H 1524.8845 1514 v 16.5 16.5 h -4.5 -4.5 z m 40.393,-0.24148 c 4.4355,-3.48892 6.6091,-8.96885 6.5905,-16.61563 -0.019,-7.98246 -2.532,-13.39504 -7.8966,-17.01027 C 1540.9855,500.18952 1539.5941,500 1527.3521,500 H 1514 v 19 19 h 14.3651 c 13.0671,0 14.6058,-0.18927 17.0279,-2.09453 z" />
<path id="OCC" style="fill:#092939;fill-opacity:1" d="m 738.5,301.02104 c -1.1,-0.46871 -8.3,-7.19615 -16,-14.94987 l -14,-14.09768 -0.27905,-107.23674 c -0.15348,-58.98021 -0.004,-108.36156 0.33169,-109.736328 0.68892,-2.819511 25.4841,-28.396624 29.6477,-30.582653 C 740.43593,23.244008 750.36389,23 795.88524,23 c 31.94139,0 56.02189,0.394394 57.4598,0.941084 3.65084,1.388049 28.72451,26.027547 30.30148,29.776797 2.07422,4.931425 1.99991,214.161549 -0.0774,218.081779 -1.70724,3.22177 -26.125,27.505 -29.25333,29.09216 -2.63954,1.33917 -112.68794,1.46196 -115.81574,0.12922 z M 823.38364,239.99712 827,235.99424 V 163.35426 90.714286 L 822.14286,85.857143 817.28571,81 H 796.42721 775.5687 L 770.78435,85.712408 766,90.424816 v 73.419514 73.41952 l 3.5712,3.36807 3.5712,3.36808 h 23.31244 23.31244 z M 958.5,300.56265 c -1.65,-0.74748 -8.92647,-7.36737 -16.16993,-14.71086 -10.32303,-10.46558 -13.4022,-14.21646 -14.24442,-17.35179 -1.52227,-5.66693 -1.49855,-207.457332 0.025,-213 0.85145,-3.097493 3.95256,-6.895448 13.74442,-16.832918 6.95469,-7.058105 13.86004,-13.470605 15.34523,-14.25 C 959.43767,23.242976 969.57107,23 1016.3003,23 h 56.3996 l 3.9001,2.89328 c 6.9308,5.141698 25.2673,24.477749 26.8603,28.324601 1.2341,2.979869 1.5397,8.289838 1.5397,26.75 0,21.698789 -0.1158,23.147899 -2,25.032119 -1.8946,1.89464 -3.3333,2 -27.3089,2 -20.209,0 -25.6977,-0.28433 -27.2385,-1.41101 -1.5662,-1.14519 -1.9986,-2.92907 -2.2956,-9.468944 l -0.3659,-8.057929 -4.3732,-4.031058 L 1037.0447,81 h -20.8312 c -22.89275,0 -21.78034,-0.275484 -27.63875,6.844614 L 985,92.189227 v 71.427733 71.42773 l 4.12736,4.47765 4.12736,4.47766 h 22.66968 22.6697 l 3.703,-3.79216 C 1045.8523,236.5669 1046,236.13711 1046,229.43034 1046,217.41741 1044.5014,218 1075.4017,218 c 24.1977,0 26.4199,0.14543 27.9433,1.82874 1.4446,1.59624 1.655,4.9237 1.655,26.17251 v 24.34376 l -14.25,14.44233 c -7.8375,7.94328 -15.698,15.06565 -17.4679,15.82749 -4.6879,2.01796 -110.31846,1.96995 -114.7821,-0.0522 z m 220.8765,-0.60537 c -2.2817,-1.1294 -9.4955,-7.52007 -16.15,-14.30702 -9.1161,-9.29765 -12.2912,-13.21986 -13.1209,-16.20807 -1.2119,-4.36516 -1.6309,-207.526442 -0.4405,-213.56719 0.504,-2.557166 3.8359,-6.608529 13.75,-16.718975 7.1967,-7.339187 14.3001,-13.976687 15.7852,-14.75 C 1181.4272,23.246531 1191.7897,23 1238.3003,23 h 56.3996 l 3.9001,2.875088 c 6.6675,4.915283 25.282,24.598352 26.8802,28.42324 1.2105,2.897085 1.5198,8.325309 1.5198,26.669553 0,21.698789 -0.1158,23.147899 -2,25.032119 -1.8954,1.89542 -3.3333,2 -27.5,2 -30.4367,0 -29.5,0.34255 -29.5,-10.787592 0,-6.781008 0,-6.792162 -4.7843,-11.5 L 1258.4313,81 h -20.9052 -20.9053 l -4.8104,5.205147 -4.8104,5.205147 v 71.817196 71.8172 l 4.1274,4.47765 4.1273,4.47766 h 22.6697 22.6697 l 3.703,-3.79216 C 1267.8523,236.5669 1268,236.13711 1268,229.43034 1268,217.41251 1266.482,218 1297.5337,218 h 26.4202 l 1.5742,2.40255 c 1.3449,2.05263 1.5304,5.91056 1.2731,26.48846 l -0.3012,24.08591 -14,14.11452 c -7.7,7.76299 -15.448,14.74319 -17.2179,15.51155 -2.6244,1.13937 -13.2286,1.39686 -57.5,1.39622 -52.6325,-7.6e-4 -54.4074,-0.0628 -58.4056,-2.04193 z m 222.1235,0.14099 c -2.3247,-1.07973 -9.086,-7.03864 -16.1438,-14.22804 -9.3337,-9.50777 -12.3985,-13.29583 -13.2444,-16.37023 -1.4576,-5.29719 -1.5668,-209.42685 -0.1147,-214.489752 0.6958,-2.426135 4.8502,-7.354825 13.75,-16.312468 7.0141,-7.059756 13.9681,-13.479839 15.4532,-14.26685 2.249,-1.191748 12.0021,-1.43093 58.3489,-1.43093 48.3763,0 56.0787,0.204131 58.9403,1.562053 1.8105,0.85913 8.92,7.294193 15.799,14.300141 9.5479,9.724203 12.7666,13.67264 13.6037,16.687946 0.6367,2.293304 1.099,12.889599 1.1022,25.265601 0.01,20.839459 -0.4596,24.459529 -3.3941,26.418949 -0.6052,0.40408 -12.4628,0.74158 -26.3503,0.75 -30.1792,0.0183 -29.25,0.36292 -29.25,-10.847848 V 90.273684 L 1485.0428,85.636842 1480.0857,81 h -20.906 -20.906 l -4.6369,4.957159 -4.6368,4.957159 v 72.467652 72.46765 l 4.25,4.06441 4.25,4.06441 22.5471,0.0108 22.547,0.0108 3.703,-3.79216 c 3.6162,-3.70339 3.7029,-3.97093 3.7029,-11.42857 0,-5.60886 0.4172,-8.05364 1.5714,-9.20784 1.3492,-1.34912 5.3022,-1.57143 27.9433,-1.57143 26.1183,0 26.3869,0.0214 27.9286,2.22251 2.2028,3.1449 2.3103,46.4549 0.1256,50.57715 -2.1462,4.04954 -27.6454,28.94332 -30.884,30.15079 -1.8406,0.68623 -21.572,1.04195 -57,1.02759 -50.6738,-0.0205 -54.4441,-0.14235 -58.1849,-1.87977 z"/>
</svg>