<?xml version="1.0" encoding="UTF-8" standalone="no"?>
<svg
   version="1.1"
   width="512"
   height="512"
   id="svg1"
   xmlns="http://www.w3.org/2000/svg"
   xmlns:svg="http://www.w3.org/2000/svg">
  <defs
     id="defs1" />
  <path
     d="m 255.625,-0.3125 c 1.01791,0.002155 2.03581,0.00431 3.08456,0.006531 C 273.31863,-0.25629854 287.65076,-0.00540191 302,3 c 0.97485,0.1986768 1.94971,0.3973535 2.9541,0.6020508 C 364.51982,16.062132 420.87366,47.952364 458,97 c 0.41524,0.538828 0.83048,1.077656 1.2583,1.632812 24.50085,31.869868 40.99312,68.422998 49.0542,107.804688 0.14736,0.71889 0.29471,1.43779 0.44653,2.17847 2.97386,15.64629 3.61397,31.11971 3.55347,47.00903 -0.002,1.01791 -0.004,2.03581 -0.007,3.08456 -0.0497,14.60908 -0.30057,28.9412 -3.30597,43.29044 -0.29802,1.46228 -0.29802,1.46228 -0.60205,2.9541 -10.25157,49.00787 -32.59078,93.01204 -67.39795,129.0459 -0.59893,0.62084 -1.19786,1.24169 -1.81494,1.88135 -7.66383,7.90115 -15.40504,15.44632 -24.18506,22.11865 -0.54028,0.41669 -1.08056,0.83338 -1.63721,1.2627 -31.86904,24.49815 -68.42094,40.9892 -107.80029,49.0498 -0.71889,0.14736 -1.43779,0.29471 -2.17847,0.44653 -14.67564,2.78937 -29.20072,3.5899 -44.11132,3.55664 -2.93959,-0.003 -5.87817,0.0204 -8.81763,0.0457 -13.37314,0.0447 -26.26925,-1.16081 -39.45508,-3.36133 -1.70555,-0.28218 -1.70555,-0.28218 -3.44556,-0.57007 -2.5957,-0.46626 -5.16719,-0.98499 -7.74194,-1.55493 -1.38893,-0.30696 -1.38893,-0.30696 -2.80591,-0.62012 C 151.912,495.76933 111.22307,473.03389 78,441 77.0361,440.07695 77.0361,440.07695 76.05273,439.13525 66.87663,430.30887 58.52683,421.26892 51,411 50.36288,410.14608 50.36288,410.14608 49.71289,409.2749 43.19732,400.53408 37.36411,391.48914 32,382 31.59781,381.29279 31.19563,380.58558 30.78125,379.85693 17.75583,356.72154 9.00699,331.55038 3.6875,305.5625 3.54014,304.84361 3.39279,304.12471 3.24097,303.38403 0.26711,287.73774 -0.373,272.26432 -0.3125,256.375 c 0.002,-1.01791 0.004,-2.03581 0.007,-3.08456 C -0.2558,238.68136 -0.00493,224.34924 3.00047,210 3.19915,209.02515 3.39782,208.05029 3.60252,207.0459 13.72314,158.66402 35.63966,114.67572 70.00047,79 70.63259,78.340645 71.26472,77.681289 71.916,77.001953 81.06044,67.513697 90.35781,58.773796 101.00047,51 c 1.15105,-0.858062 2.30209,-1.716135 3.45313,-2.574219 C 112.64323,42.388226 121.14585,37.005427 130.00047,32 c 0.70721,-0.402188 1.41442,-0.804375 2.14307,-1.21875 C 155.27846,17.755826 180.44962,9.0069854 206.4375,3.6875 207.15639,3.540144 207.87529,3.3927881 208.61597,3.2409668 224.26226,0.26710912 239.73568,-0.37300362 255.625,-0.3125 Z M 122,122 c -5.28931,8.31357 -7.31884,16.77989 -5.53906,26.52344 2.51342,9.61013 8.03783,16.40427 16.53906,21.47656 8.35579,4.51895 20.03397,4.46153 29.10937,2.23828 2.42341,-0.92897 4.63132,-1.96549 6.89063,-3.23828 1.0725,-0.59813 2.145,-1.19625 3.25,-1.8125 7.40906,-5.89357 11.89049,-12.79338 13.16797,-22.29688 0.44415,-10.03546 -2.21132,-18.78172 -8.98047,-26.32812 -8.8854,-7.8963 -18.66632,-9.51823 -30.15625,-8.97266 C 136.23056,110.38112 128.56069,114.29317 122,122 Z m 186,78 c -0.94359,0.4009 -1.88719,0.8018 -2.85938,1.21484 C 295.15328,206.08156 285.6963,214.43836 280,224 c 0,0.66 0,1.32 0,2 -0.66,0 -1.32,0 -2,0 0,-8.58 0,-17.16 0,-26 -20.13,0 -40.26,0 -61,0 0,61.71 0,123.42 0,187 20.13,0 40.26,0 61,0 0.0374,-8.11336 0.0748,-16.22672 0.11328,-24.58594 0.0303,-5.14976 0.0614,-10.29948 0.0957,-15.44922 0.0543,-8.16811 0.10582,-16.33615 0.13745,-24.50439 0.0255,-6.58776 0.0665,-13.17531 0.11675,-19.76293 0.0166,-2.50926 0.0282,-5.01857 0.0344,-7.52788 0.01,-3.52343 0.0378,-7.04627 0.07,-10.56954 -0.001,-1.03003 -0.003,-2.06007 -0.004,-3.12131 0.14888,-11.55272 3.10261,-19.77208 11.03047,-28.16629 6.69921,-6.32001 13.84276,-8.53989 22.96875,-8.75 7.82768,0.23672 15.05192,1.20835 21.02735,6.73437 10.08161,12.17614 10.52282,27.30807 10.61548,42.38526 0.01,1.01583 0.0198,2.03166 0.03,3.07828 0.0313,3.32203 0.0563,6.64407 0.0811,9.96615 0.0206,2.31742 0.0416,4.63483 0.063,6.95224 0.055,6.07274 0.10448,12.1455 0.15285,18.21829 0.0593,7.30064 0.12536,14.60122 0.19029,21.90181 0.0977,11.067 0.18676,22.13404 0.27748,33.2011 20.13,0 40.26,0 61,0 0.0903,-21.49495 0.0903,-21.49495 0.15076,-42.98992 0.0165,-7.69548 0.0374,-15.39085 0.0756,-23.08625 0.0335,-6.75628 0.0506,-13.51245 0.0583,-20.26881 0.005,-2.56245 0.0162,-5.1249 0.0326,-7.6873 0.17329,-28.3285 -1.48024,-57.05035 -21.9898,-78.85517 -12.43508,-12.53623 -29.01366,-18.24432 -46.3855,-18.49292 -10.63133,0.0179 -20.02522,0.1512 -29.94189,4.38037 z m -188,0 c 0,61.71 0,123.42 0,187 20.13,0 40.26,0 61,0 0,-61.71 0,-123.42 0,-187 -20.13,0 -40.26,0 -61,0 z"
     fill="#000000"
     id="path1"
     style="fill:#747474;fill-opacity:1" />
</svg>
