<?xml version="1.0" encoding="UTF-8" standalone="no"?>
<svg
   version="1.1"
   width="500.82138"
   height="501.64465"
   id="svg3"
   xmlns="http://www.w3.org/2000/svg"
   xmlns:svg="http://www.w3.org/2000/svg">
  <defs
     id="defs3" />
  <path
     d="m 295.44463,4.3368857 3.07715,0.6020508 c 49.89866,9.9812265 93.46157,34.2837555 129.92285,69.3979495 0.79406,0.752813 1.58812,1.505625 2.40625,2.28125 5.34972,5.179891 9.98036,10.882805 14.59375,16.71875 1.19109,1.483066 1.19109,1.483066 2.40625,2.996094 24.5714,31.14192 40.91843,67.51631 48.84375,106.31641 0.15114,0.73871 0.30229,1.47743 0.45801,2.23853 0.47639,2.47739 0.89452,4.95763 1.29199,7.44897 0.26708,1.67365 0.26708,1.67365 0.53955,3.3811 1.66043,11.63862 1.85919,23.18786 1.83545,34.9314 -8.2e-4,1.52044 -8.2e-4,1.52044 -0.002,3.07159 -0.0395,16.19712 -0.90552,31.74099 -4.373,47.61591 -0.21962,1.02625 -0.43925,2.05251 -0.66553,3.10986 -8.50308,38.74831 -25.71674,75.4574 -51.33447,105.89014 -0.42861,0.5174 -0.85723,1.03479 -1.29883,1.56787 -10.51953,12.68854 -21.663,24.29742 -34.70117,34.43213 -1.4734,1.18143 -1.4734,1.18143 -2.97656,2.38672 -39.72585,31.61687 -91.65296,52.54766 -142.81641,52.8164 -0.9004,0.007 -1.80081,0.0141 -2.7285,0.0214 -37.46544,0.2271 -37.46544,0.2271 -54.47853,-3.22452 -1.01546,-0.19868 -2.03092,-0.39735 -3.07715,-0.60205 -49.89865,-9.98123 -93.46156,-34.28376 -129.922847,-69.39795 -0.79406,-0.75281 -1.58812,-1.50563 -2.40625,-2.28125 -5.34972,-5.17989 -9.98036,-10.88281 -14.59375,-16.71875 -0.79406,-0.98871 -1.58812,-1.97742 -2.40625,-2.99609 -22.91581,-29.04361 -38.81522,-62.86077 -47.2812504,-98.81641 -0.19038,-0.79124 -0.38076,-1.58249 -0.5769,-2.39771 -3.96412,-17.68032 -5.29096,-35.40272 -5.1731,-53.47729 0.003,-0.99864 0.006,-1.99728 0.009,-3.02618 0.0721,-16.06974 0.98855,-31.53845 4.42828,-47.28632 0.21962,-1.02625 0.43925,-2.05251 0.66553,-3.10986 10.5131904,-47.90734 34.4833004,-89.7401 68.3346904,-124.890144 0.75281,-0.794062 1.50563,-1.588125 2.28125,-2.40625 5.17989,-5.349723 10.88281,-9.980355 16.71875,-14.59375 l 2.99609,-2.40625 C 127.77808,28.416019 165.11131,12.202959 205.44463,4.3368857 l 2.50684,-0.5048828 c 27.57535,-5.2999975 59.99117,-5.0747228 87.49316,0.5048828 z M 117.80791,127.24314 c -16.45723,19.82675 -21.689837,43.69789 -21.637937,69.04956 -0.005,1.31752 -0.0102,2.63504 -0.0155,3.99248 -0.0132,3.57061 -0.014,7.14111 -0.0114,10.71174 0.001,3.00368 -0.004,6.00734 -0.009,9.01102 -0.011,7.10047 -0.0116,14.20089 -0.005,21.30136 0.006,7.27087 -0.006,14.54154 -0.0276,21.81237 -0.0177,6.29014 -0.0236,12.58022 -0.0204,18.87038 0.002,3.73567 -6.2e-4,7.4712 -0.0147,11.20685 -0.10886,31.57951 2.12177,62.28602 25.378317,86.13799 19.14111,17.92025 43.35904,24.12722 69.06323,24.177 1.4267,0.006 2.85339,0.0129 4.28008,0.0199 4.67071,0.0209 9.34142,0.0314 14.01216,0.0414 1.61761,0.004 3.23523,0.008 4.85284,0.0124 7.61074,0.019 15.22147,0.0333 22.83222,0.0416 8.73358,0.01 17.46689,0.036 26.20038,0.0765 6.78171,0.0304 13.56336,0.045 20.34514,0.0483 4.03488,0.002 8.0695,0.011 12.10431,0.0365 31.7009,0.18945 61.12792,-2.48275 85.30958,-25.4536 18.15797,-20.01411 24.13709,-44.76536 24.16113,-71.29053 0.005,-1.31825 0.01,-2.63649 0.0151,-3.99469 0.013,-3.59979 0.0195,-7.19957 0.024,-10.79938 0.003,-2.25822 0.007,-4.51643 0.0115,-6.77464 0.0137,-7.09175 0.0233,-14.18348 0.0272,-21.27524 0.004,-8.13643 0.022,-16.27269 0.051,-24.40906 0.0218,-6.32056 0.0317,-12.64108 0.033,-18.96168 10e-4,-3.75978 0.007,-7.51939 0.0248,-11.27912 0.14311,-31.56766 -2.16393,-62.43829 -25.34773,-86.21566 -19.1411,-17.92025 -43.35904,-24.127222 -69.06323,-24.177006 -1.42669,-0.0063 -2.85338,-0.01292 -4.28007,-0.01991 -4.67071,-0.02095 -9.34142,-0.0314 -14.01217,-0.04137 -1.61761,-0.0041 -3.23522,-0.0082 -4.85283,-0.01235 -7.61074,-0.01904 -15.22147,-0.03327 -22.83223,-0.04161 -8.73357,-0.0097 -17.46689,-0.03597 -26.20037,-0.0765 -6.78172,-0.03037 -13.56336,-0.04499 -20.34514,-0.04828 -4.03489,-0.0023 -8.0695,-0.011 -12.10432,-0.03646 -32.55439,-0.194665 -64.58895,2.614676 -87.94636,28.359736 z"
     fill="#000000"
     id="path1"
     style="fill:#ffffff;fill-opacity:1" />
  <path
     d="m 221.88213,126.20408 c 2.30005,-6.8e-4 4.6001,-0.002 6.90015,-0.003 4.78687,-0.001 9.57372,6.3e-4 14.36059,0.005 6.07779,0.006 12.15554,0.002 18.23333,-0.004 4.73946,-0.004 9.47891,-0.002 14.21837,1.3e-4 2.23866,6.6e-4 4.47733,-1.2e-4 6.716,-0.002 10.73606,-0.009 21.45184,0.0578 32.17703,0.57819 0.79516,0.0382 1.59031,0.0764 2.40956,0.11575 17.17339,0.94002 33.5583,5.6775 45.43419,18.75095 16.61608,21.1617 15.42477,46.90348 15.3789,72.44141 0.001,2.67025 0.003,5.34049 0.006,8.01074 0.004,5.57066 -10e-4,11.14127 -0.0107,16.71192 -0.0109,6.39218 -0.007,12.78424 0.004,19.17642 0.009,5.54027 0.0103,11.08051 0.005,16.62079 -0.003,3.28617 -0.003,6.57226 0.003,9.85843 0.0723,51.54614 0.0723,51.54614 -17.71009,71.1217 -12.6211,11.87531 -28.67796,15.49907 -45.51953,16.30811 -0.86214,0.0418 -1.72429,0.0837 -2.61256,0.12675 -10.95279,0.4839 -21.90662,0.45951 -32.86791,0.44795 -2.30005,6.8e-4 -4.6001,0.002 -6.90014,0.003 -4.78688,10e-4 -9.57373,-6.3e-4 -14.3606,-0.005 -6.07779,-0.006 -12.15553,-0.002 -18.23332,0.004 -4.73946,0.004 -9.47891,0.002 -14.21837,-1.3e-4 -2.23867,-6.6e-4 -4.47734,1.2e-4 -6.716,0.002 -10.74047,0.009 -21.46259,-0.0571 -32.19266,-0.56647 -1.19588,-0.0549 -1.19588,-0.0549 -2.41591,-0.11099 -14.70603,-0.79228 -29.26772,-4.57157 -40.5255,-14.45884 -0.88945,-0.75023 -0.88945,-0.75023 -1.79687,-1.51562 -13.43206,-12.24339 -17.04534,-30.11312 -18.20313,-47.48438 -0.35454,-9.24484 -0.28224,-18.50004 -0.26562,-27.75 -10e-4,-2.67025 -0.003,-5.34049 -0.006,-8.01074 -0.004,-5.57066 0.001,-11.14126 0.0107,-16.71191 0.0109,-6.39219 0.007,-12.78424 -0.004,-19.17642 -0.009,-5.54028 -0.0103,-11.08052 -0.005,-16.6208 0.003,-3.28617 0.003,-6.57226 -0.003,-9.85843 -0.0725,-51.71812 -0.0725,-51.71812 17.83509,-71.1842 12.38988,-11.72984 28.81783,-15.44306 45.34765,-16.2417 1.2983,-0.0632 1.2983,-0.0632 2.62282,-0.12761 10.96483,-0.48642 21.93058,-0.46295 32.90425,-0.45138 z m 98.75,33.57031 c -3.55797,4.16791 -4.66827,6.82507 -4.5,12.47265 0.74802,5.00237 3.28623,8.18291 7,11.46485 4.14784,2.03479 7.69412,2.83266 12.3125,2.625 4.73038,-1.63744 7.72149,-4.25313 11,-8 1.8608,-5.58241 1.93825,-11.05132 -0.625,-16.375 -3.56688,-3.94234 -6.65694,-6.15644 -11.8125,-7.5625 -5.64419,-0.099 -9.15475,1.71744 -13.375,5.375 z m -121.1875,28.5625 c -0.73734,0.55301 -1.47469,1.10601 -2.23437,1.67578 -16.46819,13.27336 -25.17507,33.80079 -27.76563,54.32422 -1.41171,19.74086 3.75259,39.93431 16.125,55.625 1.28319,1.4658 2.57392,2.92507 3.875,4.375 0.44344,0.59555 0.88688,1.1911 1.34375,1.80469 11.13899,14.73878 31.48072,22.88691 49.0625,25.75 23.62258,2.92715 44.86129,-4.36974 63.38281,-18.71484 16.51433,-14.08575 25.66131,-33.52882 28.21094,-54.83985 0.94516,-14.81362 -1.46918,-28.63895 -8,-42 -0.41895,-0.89977 -0.83789,-1.79953 -1.26953,-2.72656 -9.45527,-18.91056 -26.05005,-32.14416 -45.73047,-39.27344 -27.30809,-8.74094 -54.59727,-3.29172 -77,14 z"
     fill="#000000"
     id="path2"
     style="fill:#ffffff;fill-opacity:1" />
  <path
     d="m 284.50713,209.83689 c 10.49833,8.77891 17.0954,20.9742 18.9375,34.5 1.04345,16.57482 -2.85527,30.72464 -13.57422,43.54296 -10.64485,10.78199 -23.91382,16.49825 -39.05078,16.70704 -15.12323,-0.14328 -28.57423,-5.58661 -39.375,-16.25 -10.94749,-13.2848 -15.00793,-26.81014 -14,-44 2.18151,-14.18837 9.0298,-27.0444 20.64429,-35.69898 20.63244,-14.54507 46.18179,-13.61196 66.41821,1.19898 z"
     fill="#000000"
     id="path3"
     style="fill:#ffffff;fill-opacity:1" />
</svg>
