<?xml version="1.0" encoding="UTF-8" standalone="no"?>
<svg
   version="1.1"
   width="512"
   height="512"
   id="svg1"
   sodipodi:docname="url.svg"
   inkscape:version="1.4 (86a8ad7, 2024-10-11)"
   xmlns:inkscape="http://www.inkscape.org/namespaces/inkscape"
   xmlns:sodipodi="http://sodipodi.sourceforge.net/DTD/sodipodi-0.dtd"
   xmlns="http://www.w3.org/2000/svg"
   xmlns:svg="http://www.w3.org/2000/svg">
  <defs
     id="defs1" />
  <sodipodi:namedview
     id="namedview1"
     pagecolor="#ffffff"
     bordercolor="#111111"
     borderopacity="1"
     inkscape:showpageshadow="0"
     inkscape:pageopacity="0"
     inkscape:pagecheckerboard="1"
     inkscape:deskcolor="#d1d1d1"
     inkscape:zoom="1.2457233"
     inkscape:cx="634.16974"
     inkscape:cy="453.55177"
     inkscape:window-width="3840"
     inkscape:window-height="2054"
     inkscape:window-x="-11"
     inkscape:window-y="-11"
     inkscape:window-maximized="1"
     inkscape:current-layer="svg1" />
  <path
     d="M0 0 C0.78665039 -0.00983917 1.57330078 -0.01967834 2.38378906 -0.02981567 C62.41305759 -0.62518019 114.89041745 19.70559963 157.94189453 61.63378906 C187.45650778 90.78468149 206.37834326 131.50829173 212.56640625 172.23828125 C212.737771 173.29160645 212.737771 173.29160645 212.91259766 174.36621094 C221.06961498 225.91856043 207.96716257 281.44597473 177.28515625 323.6640625 C172.97152161 329.41505738 168.34067717 334.86766113 163.56640625 340.23828125 C162.69757813 341.22957031 161.82875 342.22085937 160.93359375 343.2421875 C156.10567374 348.6680609 151.1897877 353.64833579 145.56640625 358.23828125 C145.06044922 358.66189941 144.55449219 359.08551758 144.03320312 359.52197266 C116.59820288 382.47634284 85.51717765 397.53421702 50.56640625 405.23828125 C49.80521484 405.41617187 49.04402344 405.5940625 48.25976562 405.77734375 C-0.69904182 416.84247333 -56.25259615 404.26633688 -98.1953125 377.90234375 C-144.68929122 347.96729169 -177.47302085 302.41912499 -189.37670898 248.14453125 C-190.16850294 244.19064459 -190.82797722 240.22446478 -191.43359375 236.23828125 C-191.6049585 235.18495605 -191.6049585 235.18495605 -191.77978516 234.11035156 C-199.82896928 183.23950789 -187.14514998 128.74207526 -157.50854492 86.67944336 C-152.82598134 80.23850192 -147.73264549 74.17664877 -142.43359375 68.23828125 C-141.9638916 67.70686523 -141.49418945 67.17544922 -141.01025391 66.62792969 C-135.50068528 60.4101758 -129.9112916 54.46726626 -123.43359375 49.23828125 C-122.70148682 48.63765869 -122.70148682 48.63765869 -121.95458984 48.02490234 C-113.50064102 41.1066574 -104.80838903 34.84688772 -95.43359375 29.23828125 C-94.75844727 28.83222656 -94.08330078 28.42617187 -93.38769531 28.0078125 C-65.74054434 11.55870666 -32.39471926 0.33540347 0 0 Z M-13.18359375 38.55078125 C-29.12102847 59.10168391 -38.77109086 84.79901111 -43.43359375 110.23828125 C-7.71888636 117.08017922 28.85169886 117.08017922 64.56640625 110.23828125 C59.16181215 85.12281453 50.95572146 61.07467367 35.56640625 40.23828125 C35.02242188 39.490625 34.4784375 38.74296875 33.91796875 37.97265625 C30.25257624 33.31497516 25.64783084 30.22246333 20.56640625 27.23828125 C19.93347656 26.861875 19.30054688 26.48546875 18.6484375 26.09765625 C6.33181229 21.01387099 -5.67702258 29.26380538 -13.18359375 38.55078125 Z M-117.80859375 78.48828125 C-119.10796875 79.84953125 -119.10796875 79.84953125 -120.43359375 81.23828125 C-115.33701326 85.52149237 -109.90987231 88.19142358 -103.93359375 91.05078125 C-102.8345874 91.57760498 -101.73558105 92.10442871 -100.60327148 92.6472168 C-93.36440472 96.04237295 -86.08194316 99.02416527 -78.49609375 101.55078125 C-77.60921875 101.84637939 -76.72234375 102.14197754 -75.80859375 102.4465332 C-71.57095489 104.1112701 -71.57095489 104.1112701 -67.43359375 103.23828125 C-66.62220679 101.07318431 -66.62220679 101.07318431 -65.98828125 98.41015625 C-65.72047852 97.3934082 -65.45267578 96.37666016 -65.17675781 95.32910156 C-64.89026367 94.22663086 -64.60376953 93.12416016 -64.30859375 91.98828125 C-59.11981222 72.88289366 -52.09475421 55.62676558 -42.54345703 38.28686523 C-41.46208121 36.29086335 -40.43715379 34.27434466 -39.43359375 32.23828125 C-66.70569543 32.23828125 -99.53386796 60.32320382 -117.80859375 78.48828125 Z M60.56640625 32.23828125 C60.88351562 32.78871094 61.200625 33.33914062 61.52734375 33.90625 C73.38069062 55.02616363 82.31025741 77.05144026 87.6796875 100.703125 C87.97230469 101.53972656 88.26492188 102.37632812 88.56640625 103.23828125 C92.88404858 104.67749536 96.06845316 103.01758188 100.19140625 101.55078125 C101.48896851 101.09288208 101.48896851 101.09288208 102.81274414 100.62573242 C110.40472384 97.84618446 117.71245476 94.53556427 125.00390625 91.05078125 C126.07527832 90.5400708 127.14665039 90.02936035 128.25048828 89.50317383 C133.15341939 87.10878274 137.3712029 84.76753439 141.56640625 81.23828125 C120.41258444 58.91884068 93.20168365 41.01012063 63.56640625 32.23828125 C62.57640625 32.23828125 61.58640625 32.23828125 60.56640625 32.23828125 Z M-136.43359375 101.23828125 C-154.35725485 128.16526285 -168.43359375 159.25430457 -168.43359375 192.23828125 C-138.73359375 192.23828125 -109.03359375 192.23828125 -78.43359375 192.23828125 C-77.44359375 178.70828125 -76.45359375 165.17828125 -75.43359375 151.23828125 C-74.77359375 145.95828125 -74.11359375 140.67828125 -73.43359375 135.23828125 C-73.43359375 132.92828125 -73.43359375 130.61828125 -73.43359375 128.23828125 C-74.13629395 128.0180127 -74.83899414 127.79774414 -75.56298828 127.57080078 C-96.93097646 120.81405602 -117.2534185 112.95586271 -136.43359375 101.23828125 Z M151.60473633 104.28588867 C133.78275011 115.22123898 114.57014899 122.38799084 94.56640625 128.23828125 C94.39096874 134.92085542 95.09813382 141.22564184 95.94140625 147.86328125 C97.60845994 162.61029465 98.57920167 177.43021253 99.56640625 192.23828125 C129.26640625 192.23828125 158.96640625 192.23828125 189.56640625 192.23828125 C188.78035148 180.39169279 188.78035148 180.39169279 186.81640625 168.86328125 C186.64085205 168.06293457 186.46529785 167.26258789 186.28442383 166.43798828 C181.04691477 143.29209486 171.98801674 120.25085424 157.56640625 101.23828125 C155.34140166 101.23828125 153.45354464 103.13936416 151.60473633 104.28588867 Z M-48.43359375 134.23828125 C-50.21917973 144.99941278 -51.69550551 155.74151211 -52.62109375 166.61328125 C-52.70472168 167.56138672 -52.78834961 168.50949219 -52.87451172 169.48632812 C-53.48670334 177.13806515 -53.43359375 184.49407319 -53.43359375 192.23828125 C-11.19359375 192.23828125 31.04640625 192.23828125 74.56640625 192.23828125 C74.56640625 183.77575413 74.45332324 175.57350179 73.75390625 167.17578125 C73.6677002 166.11174072 73.58149414 165.0477002 73.49267578 163.95141602 C72.6344128 153.9728073 71.22131916 144.11259495 69.56640625 134.23828125 C68.68605713 134.35421631 67.80570801 134.47015137 66.89868164 134.58959961 C33.68079987 138.93482949 33.68079987 138.93482949 20.56640625 139.23828125 C19.48117676 139.26897705 19.48117676 139.26897705 18.37402344 139.30029297 C-4.02720901 139.87189759 -26.31122797 137.59354401 -48.43359375 134.23828125 Z M-168.43359375 216.23828125 C-167.64753898 228.08486971 -167.64753898 228.08486971 -165.68359375 239.61328125 C-165.50803955 240.41362793 -165.33248535 241.21397461 -165.15161133 242.03857422 C-159.87525437 265.35614645 -150.67537395 287.92825187 -136.43359375 307.23828125 C-135.30050781 306.54605469 -135.30050781 306.54605469 -134.14453125 305.83984375 C-114.94665189 294.46498783 -94.66596147 286.89378381 -73.43359375 280.23828125 C-73.92304015 272.90018415 -74.46987216 265.57272073 -75.15234375 258.25 C-75.21566895 257.56994904 -75.27899414 256.88989807 -75.34423828 256.1892395 C-75.60437145 253.40955521 -75.86647161 250.63006654 -76.13134766 247.85083008 C-77.13229115 237.31360231 -77.8114617 226.81452607 -78.43359375 216.23828125 C-108.13359375 216.23828125 -137.83359375 216.23828125 -168.43359375 216.23828125 Z M-53.43359375 216.23828125 C-53.48194381 227.41046085 -53.48194381 227.41046085 -52.84765625 238.4375 C-52.78581146 239.12407181 -52.72396667 239.81064362 -52.6602478 240.51802063 C-52.53046585 241.94206493 -52.39764528 243.36583571 -52.26171875 244.78930664 C-52.05783975 246.93371185 -51.86615783 249.07896765 -51.67578125 251.22460938 C-50.96819419 258.97365647 -50.01653947 266.61108389 -48.43359375 274.23828125 C-47.11307007 274.06437866 -47.11307007 274.06437866 -45.76586914 273.88696289 C-12.54798737 269.54173301 -12.54798737 269.54173301 0.56640625 269.23828125 C1.65163574 269.20758545 1.65163574 269.20758545 2.75878906 269.17626953 C25.16002151 268.60466491 47.44404047 270.88301849 69.56640625 274.23828125 C71.40130438 263.29005575 72.85723246 252.36841742 73.75390625 241.30078125 C73.83753418 240.29668213 73.92116211 239.29258301 74.00732422 238.25805664 C74.57031684 230.85742784 74.56640625 223.71061571 74.56640625 216.23828125 C32.32640625 216.23828125 -9.91359375 216.23828125 -53.43359375 216.23828125 Z M99.56640625 216.23828125 C98.57640625 229.43828125 97.58640625 242.63828125 96.56640625 256.23828125 C95.90640625 261.51828125 95.24640625 266.79828125 94.56640625 272.23828125 C94.56640625 274.87828125 94.56640625 277.51828125 94.56640625 280.23828125 C95.26910645 280.4585498 95.97180664 280.67881836 96.69580078 280.90576172 C118.06378896 287.66250648 138.386231 295.52069979 157.56640625 307.23828125 C175.46724871 280.34558043 189.56640625 249.18976435 189.56640625 216.23828125 C159.86640625 216.23828125 130.16640625 216.23828125 99.56640625 216.23828125 Z M-43.43359375 298.23828125 C-38.02899965 323.35374797 -29.82290896 347.40188883 -14.43359375 368.23828125 C-13.88960937 368.9859375 -13.345625 369.73359375 -12.78515625 370.50390625 C-9.11976374 375.16158734 -4.51501834 378.25409917 0.56640625 381.23828125 C1.51580078 381.80289063 1.51580078 381.80289063 2.484375 382.37890625 C7.54769491 384.46883192 13.79638139 384.08643219 18.96484375 382.50390625 C40.13487575 371.9571033 50.41920261 345.48177229 57.54296875 324.5 C60.40496869 315.81003247 62.94406839 307.25301556 64.56640625 298.23828125 C28.85169886 291.39638328 -7.71888636 291.39638328 -43.43359375 298.23828125 Z M89.56640625 304.23828125 C87.95402614 308.93277134 86.4272961 313.63843514 85.05859375 318.41015625 C79.91485998 336.25921566 73.21872118 353.05547469 64.1953125 369.3046875 C62.92367967 371.59484639 61.72666506 373.89158764 60.56640625 376.23828125 C67.33286789 374.9341499 73.32321354 372.93367633 79.62890625 370.17578125 C80.54357666 369.7780249 81.45824707 369.38026855 82.40063477 368.97045898 C104.77217839 359.05812626 124.65906178 344.95073736 141.56640625 327.23828125 C136.45558517 322.93875633 131.0021722 320.28575012 125.00390625 317.42578125 C123.90232178 316.89823242 122.8007373 316.37068359 121.66577148 315.82714844 C106.21815514 307.89784695 106.21815514 307.89784695 89.56640625 304.23828125 Z M-79.05859375 306.92578125 C-79.92363525 307.23104736 -80.78867676 307.53631348 -81.67993164 307.85083008 C-89.27191134 310.63037804 -96.57964226 313.94099823 -103.87109375 317.42578125 C-104.94246582 317.9364917 -106.01383789 318.44720215 -107.11767578 318.97338867 C-112.02060689 321.36777976 -116.2383904 323.70902811 -120.43359375 327.23828125 C-101.27925537 347.44806276 -78.00533652 362.80574904 -52.05859375 372.86328125 C-51.14835449 373.2185791 -50.23811523 373.57387695 -49.30029297 373.93994141 C-48.44967285 374.25753418 -47.59905273 374.57512695 -46.72265625 374.90234375 C-45.96678223 375.1854541 -45.2109082 375.46856445 -44.43212891 375.76025391 C-42.24591616 376.46918966 -42.24591616 376.46918966 -39.43359375 375.23828125 C-39.99046875 374.29210937 -40.54734375 373.3459375 -41.12109375 372.37109375 C-52.86565604 352.14420352 -61.77417437 330.49653214 -66.61401367 307.55224609 C-67.01970581 306.4068335 -67.01970581 306.4068335 -67.43359375 305.23828125 C-71.75123608 303.79906714 -74.93564066 305.45898062 -79.05859375 306.92578125 Z "
     fill="#000000"
     transform="translate(245.43359375,51.76171875)"
     id="path1"
     style="fill:#747474;fill-opacity:1" />
</svg>
