<?xml version="1.0" encoding="UTF-8" standalone="no"?>
<svg
   version="1.1"
   width="512"
   height="512"
   id="svg16"
   sodipodi:docname="web.svg"
   inkscape:version="1.4 (86a8ad7, 2024-10-11)"
   xmlns:inkscape="http://www.inkscape.org/namespaces/inkscape"
   xmlns:sodipodi="http://sodipodi.sourceforge.net/DTD/sodipodi-0.dtd"
   xmlns="http://www.w3.org/2000/svg"
   xmlns:svg="http://www.w3.org/2000/svg">
  <defs
     id="defs16" />
  <sodipodi:namedview
     id="namedview16"
     pagecolor="#ffffff"
     bordercolor="#111111"
     borderopacity="1"
     inkscape:showpageshadow="0"
     inkscape:pageopacity="0"
     inkscape:pagecheckerboard="1"
     inkscape:deskcolor="#d1d1d1"
     inkscape:zoom="0.6171875"
     inkscape:cx="-580.05063"
     inkscape:cy="-150.68354"
     inkscape:window-width="2880"
     inkscape:window-height="1514"
     inkscape:window-x="5749"
     inkscape:window-y="-11"
     inkscape:window-maximized="1"
     inkscape:current-layer="svg16" />
  <path
     d="M0 0 C42.24 0 84.48 0 128 0 C128 40.26 128 80.52 128 122 C112.16 122.99 112.16 122.99 96 124 C70.25134874 126.96692278 45.14738834 131.81323297 20 138 C6.48236548 92.65529884 0 47.40597595 0 0 Z "
     fill="#000000"
     transform="translate(120,263)"
     id="path1"
     style="fill:#747474;fill-opacity:1" />
  <path
     d="M0 0 C42.24 0 84.48 0 128 0 C128 31.5707998 128 31.5707998 126.875 42.4375 C126.74520752 43.74477051 126.61541504 45.05204102 126.48168945 46.39892578 C123.26844723 77.36302172 117.34833922 108.30040903 108 138 C106.66388672 137.67128906 106.66388672 137.67128906 105.30078125 137.3359375 C70.22445173 128.82702787 36.27154003 124.26697125 0 122 C0 81.74 0 41.48 0 0 Z "
     fill="#000000"
     transform="translate(264,263)"
     id="path2"
     style="fill:#747474;fill-opacity:1" />
  <path
     d="M0 0 C9.58419781 32.15004702 15.69823115 64.62220355 19 98 C19.10602539 98.9605127 19.21205078 99.92102539 19.32128906 100.91064453 C20.48486941 112.9741753 20 124.76992726 20 137 C-22.24 137 -64.48 137 -108 137 C-108 97.07 -108 57.14 -108 16 C-97.77 15.34 -87.54 14.68 -77 14 C-52.87674568 11.20887967 -28.91845165 7.42581071 -5.5546875 0.6640625 C-3 0 -3 0 0 0 Z "
     fill="#000000"
     transform="translate(372,111)"
     id="path3"
     style="fill:#747474;fill-opacity:1" />
  <path
     d="M0 0 C0.97453125 0.21914062 1.9490625 0.43828125 2.953125 0.6640625 C6.05053582 1.35869692 9.14987751 2.04413825 12.25 2.7265625 C16.29649648 3.61775518 20.33636673 4.53481207 24.375 5.4609375 C52.15811469 11.74062763 79.39408607 14.21213038 108 16 C108 55.93 108 95.86 108 137 C65.76 137 23.52 137 -20 137 C-20 106.57017103 -20 106.57017103 -18.875 95.625 C-18.74520752 94.31321777 -18.61541504 93.00143555 -18.48168945 91.64990234 C-15.27680629 60.66867725 -9.35319193 29.71500798 0 0 Z "
     fill="#000000"
     transform="translate(140,111)"
     id="path4"
     style="fill:#747474;fill-opacity:1" />
  <path
     d="M0 0 C34.65 0 69.3 0 105 0 C105 17.66454424 105 17.66454424 103.875 25.8125 C103.74448242 26.77333496 103.61396484 27.73416992 103.47949219 28.72412109 C97.42715299 70.46647381 81.79662502 111.42891465 56 145 C55.54206055 145.59925293 55.08412109 146.19850586 54.61230469 146.81591797 C51.86046411 150.4034402 49.06477804 153.95110532 46.22363281 157.46826172 C45.11334023 158.85812118 44.0351751 160.27349493 42.9609375 161.69140625 C42.37570312 162.43261719 41.79046875 163.17382812 41.1875 163.9375 C40.46626953 164.87916016 40.46626953 164.87916016 39.73046875 165.83984375 C38 167 38 167 35.234375 166.90625 C31.57133216 165.87989017 28.3953611 164.34860704 25.0625 162.5625 C10.25064117 154.90564193 -5.15676802 148.2170088 -21 143 C-20.38139733 136.30640185 -18.73317325 130.19611898 -16.875 123.75 C-5.63150865 83.15094536 -1.55700728 42.03919661 0 0 Z "
     fill="#000000"
     transform="translate(407,263)"
     id="path5"
     style="fill:#747474;fill-opacity:1" />
  <path
     d="M0 0 C34.65 0 69.3 0 105 0 C105.33 8.91 105.66 17.82 106 27 C106.33520275 32.16791 106.69163706 37.28867663 107.1875 42.4375 C107.31278076 43.74477051 107.43806152 45.05204102 107.56713867 46.39892578 C110.48990481 75.44929298 115.58567425 105.0265877 124.52758789 132.8425293 C125.64442302 136.37431808 126.08867882 139.31276618 126 143 C125.33806641 143.24532471 124.67613281 143.49064941 123.99414062 143.7434082 C111.38750377 148.44053004 98.91335734 153.31341578 86.6875 158.9375 C85.6871875 159.39745361 84.686875 159.85740723 83.65625 160.33129883 C78.39572434 162.78199759 78.39572434 162.78199759 73.3527832 165.64306641 C71 167 71 167 68.53125 167.05859375 C64.93503015 165.55461909 62.90260177 163.0158576 60.5 160.0625 C59.98445557 159.44205811 59.46891113 158.82161621 58.93774414 158.18237305 C47.84997397 144.64697886 38.33609846 130.37517026 30 115 C29.64099609 114.34386719 29.28199219 113.68773437 28.91210938 113.01171875 C10.16483669 78.38482503 0 39.30382561 0 0 Z "
     fill="#000000"
     transform="translate(0,263)"
     id="path6"
     style="fill:#747474;fill-opacity:1" />
  <path
     d="M0 0 C5.57465994 4.37070776 9.65307612 9.44398729 14 15 C14.45826172 15.5779834 14.91652344 16.1559668 15.38867188 16.75146484 C43.89336808 52.84645499 61.7447176 96.75805336 67.875 142.25 C67.99512451 143.12873779 68.11524902 144.00747559 68.23901367 144.9128418 C69.1475346 152.40374793 69 159.30298333 69 167 C34.35 167 -0.3 167 -36 167 C-36.495 154.13 -36.495 154.13 -37 141 C-37.3376557 135.8550016 -37.69724578 130.7523452 -38.1875 125.625 C-38.31278076 124.31321777 -38.43806152 123.00143555 -38.56713867 121.64990234 C-41.48237704 92.58271047 -46.58073848 62.98876621 -55.52758789 35.1574707 C-56.64442302 31.62568192 -57.08867882 28.68723382 -57 25 C-56.30366455 24.74009277 -55.6073291 24.48018555 -54.88989258 24.21240234 C-36.05187687 17.12799412 -17.99222619 9.00997765 0 0 Z "
     fill="#000000"
     transform="translate(443,81)"
     id="path7"
     style="fill:#747474;fill-opacity:1" />
  <path
     d="M0 0 C1.10472656 0.53367187 2.20945312 1.06734375 3.34765625 1.6171875 C21.23341648 10.20414664 39.30596331 18.32549633 58 25 C57.38139733 31.69359815 55.73317325 37.80388102 53.875 44.25 C46.28123262 71.67028852 41.76695036 99.70813081 39 128 C38.85836426 129.44076904 38.85836426 129.44076904 38.71386719 130.91064453 C37.66846319 142.92068163 37.46369368 154.94396427 37 167 C2.35 167 -32.3 167 -68 167 C-68 150.47637399 -68 150.47637399 -66.875 142.25 C-66.74448242 141.28465332 -66.61396484 140.31930664 -66.47949219 139.32470703 C-60.45049538 97.55619148 -44.79401521 56.59450505 -19 23 C-18.54737793 22.40606445 -18.09475586 21.81212891 -17.62841797 21.20019531 C-12.02993956 13.87866189 -6.25623517 6.77609426 0 0 Z "
     fill="#000000"
     transform="translate(68,81)"
     id="path8"
     style="fill:#747474;fill-opacity:1" />
  <path
     d="M0 0 C0 36.96 0 73.92 0 112 C-8.95276104 112 -17.07455993 111.87242041 -25.8125 110.625 C-27.25012695 110.43550781 -27.25012695 110.43550781 -28.71679688 110.2421875 C-31.48472911 109.86482796 -34.24074225 109.43564543 -37 109 C-38.19326904 108.85933105 -38.19326904 108.85933105 -39.41064453 108.71582031 C-46.12906812 107.68532527 -49.67505128 104.34248014 -54.25 99.5 C-54.98307373 98.74170898 -55.71614746 97.98341797 -56.47143555 97.20214844 C-78.14615414 74.26548899 -93.14479941 44.78630394 -103 15 C-94.24866853 12.15744056 -85.51441004 9.8387945 -76.5 8 C-75.26185547 7.74581299 -74.02371094 7.49162598 -72.74804688 7.22973633 C-48.53218635 2.39847066 -24.72840599 0 0 0 Z "
     fill="#000000"
     transform="translate(248,400)"
     id="path9"
     style="fill:#747474;fill-opacity:1" />
  <path
     d="M0 0 C22.30015432 0 22.30015432 0 33.4375 1.1875 C35.34039795 1.38605591 35.34039795 1.38605591 37.28173828 1.58862305 C55.2970258 3.57630903 73.02735181 6.86841523 90.625 11.1875 C91.64513184 11.43733643 92.66526367 11.68717285 93.71630859 11.94458008 C94.64781738 12.18329834 95.57932617 12.4220166 96.5390625 12.66796875 C97.35584473 12.87703857 98.17262695 13.0861084 99.01416016 13.30151367 C101 14 101 14 103 16 C92.15744477 43.13288874 80.41928854 68.08867027 62 91 C61.39446289 91.76924805 60.78892578 92.53849609 60.16503906 93.33105469 C51.94740291 103.51500716 45.01606523 108.53663459 31.88867188 110.30639648 C29.26113776 110.58616236 26.63432984 110.79570707 24 111 C22.40352333 111.18776336 20.8071684 111.37656484 19.2109375 111.56640625 C12.82772025 112.09754352 6.40527667 112 0 112 C0 75.04 0 38.08 0 0 Z "
     fill="#000000"
     transform="translate(264,400)"
     id="path10"
     style="fill:#747474;fill-opacity:1" />
  <path
     d="M0 0 C0 36.96 0 73.92 0 112 C-22.25617284 112 -22.25617284 112 -32.9375 110.8125 C-34.76994263 110.61394409 -34.76994263 110.61394409 -36.6394043 110.41137695 C-90.6364543 104.2423638 -90.6364543 104.2423638 -103 96 C-91.71971758 67.64010454 -79.55310468 39.89910697 -58.265625 17.453125 C-55.95140015 15.03332081 -55.95140015 15.03332081 -53.984375 12.296875 C-46.2164361 2.74063362 -35.5540976 2.28167713 -24 1 C-23.20078125 0.8983252 -22.4015625 0.79665039 -21.578125 0.69189453 C-14.26551322 -0.16990633 -7.52042376 0 0 0 Z "
     fill="#000000"
     transform="translate(248,0)"
     id="path11"
     style="fill:#747474;fill-opacity:1" />
  <path
     d="M0 0 C8.95276104 0 17.07455993 0.12757959 25.8125 1.375 C26.77091797 1.50132813 27.72933594 1.62765625 28.71679688 1.7578125 C31.48472911 2.13517204 34.24074225 2.56435457 37 3 C37.7955127 3.0937793 38.59102539 3.18755859 39.41064453 3.28417969 C46.12906812 4.31467473 49.67505128 7.65751986 54.25 12.5 C54.98307373 13.25829102 55.71614746 14.01658203 56.47143555 14.79785156 C74.99905785 34.40418514 87.54389007 58.33783889 98 83 C98.38542969 83.89928223 98.77085937 84.79856445 99.16796875 85.72509766 C99.53535156 86.60601074 99.90273438 87.48692383 100.28125 88.39453125 C100.61189453 89.1831958 100.94253906 89.97186035 101.28320312 90.78442383 C102 93 102 93 102 97 C79.20282802 104.65551392 54.85783153 108.45123826 31 111 C29.78957031 111.13148437 28.57914062 111.26296875 27.33203125 111.3984375 C18.17449684 112.24024812 9.27293265 112 0 112 C0 75.04 0 38.08 0 0 Z "
     fill="#000000"
     transform="translate(264,0)"
     id="path12"
     style="fill:#747474;fill-opacity:1" />
  <path
     d="M0 0 C0.27038086 0.66717041 0.54076172 1.33434082 0.81933594 2.02172852 C10.31929599 25.3197236 21.01506107 46.95182028 35.38574219 67.65917969 C37.97095939 71.40797923 40.48590571 75.20327416 43 79 C37.9318588 78.08663655 33.44859573 76.35538924 28.6875 74.4375 C27.3567041 73.90177368 27.3567041 73.90177368 25.99902344 73.35522461 C17.76743138 69.98889628 9.84121829 66.1884157 2 62 C1.33516602 61.64824707 0.67033203 61.29649414 -0.01464844 60.93408203 C-9.90223482 55.66843347 -19.08120243 49.77316675 -28 43 C-28.59586914 42.54834473 -29.19173828 42.09668945 -29.80566406 41.63134766 C-37.52063166 35.74925184 -44.90379179 29.62203761 -52 23 C-51 20 -51 20 -49.15600586 18.79248047 C-48.35042236 18.40463379 -47.54483887 18.01678711 -46.71484375 17.6171875 C-45.80259033 17.17608643 -44.89033691 16.73498535 -43.95043945 16.28051758 C-42.45903442 15.58478638 -42.45903442 15.58478638 -40.9375 14.875 C-39.41225708 14.15509888 -39.41225708 14.15509888 -37.85620117 13.4206543 C-30.28840318 9.91371066 -22.61508586 6.75739131 -14.8125 3.8125 C-13.79212646 3.42626465 -12.77175293 3.0400293 -11.72045898 2.64208984 C-4.52134223 0 -4.52134223 0 0 0 Z "
     fill="#000000"
     transform="translate(132,420)"
     id="path13"
     style="fill:#747474;fill-opacity:1" />
  <path
     d="M0 0 C7.15286767 0.48722432 13.31431611 3.32542984 19.875 6.0625 C21.06778564 6.55403564 22.26057129 7.04557129 23.48950195 7.55200195 C32.79868711 11.42061546 41.9562743 15.54829299 51 20 C51 24 51 24 49.296875 26.05078125 C26.37873899 46.40292964 0.88375777 61.73463474 -27.125 73.9375 C-28.45905884 74.52277466 -28.45905884 74.52277466 -29.82006836 75.11987305 C-34.21343822 76.99700593 -38.19835532 78.50409243 -43 79 C-40.0708363 74.58886495 -37.13397458 70.18431698 -34.140625 65.81640625 C-20.08271662 45.20471686 -8.88459448 23.30899494 0 0 Z "
     fill="#000000"
     transform="translate(380,420)"
     id="path14"
     style="fill:#747474;fill-opacity:1" />
  <path
     d="M0 0 C-0.99966797 1.31097656 -0.99966797 1.31097656 -2.01953125 2.6484375 C-19.40335417 25.72064244 -32.65105488 51.06651265 -43 78 C-48.43954324 77.34092772 -53.22808353 75.63155572 -58.3125 73.6875 C-59.20735107 73.3471875 -60.10220215 73.006875 -61.02416992 72.65625 C-72.6550465 68.11426172 -83.82533392 62.55186895 -95 57 C-82.29573068 30.23647792 -36.01793234 12.3597545 -9.92431641 1.79003906 C-8.31482944 1.12925502 -6.72320539 0.42518114 -5.13671875 -0.2890625 C-3 -1 -3 -1 0 0 Z "
     fill="#000000"
     transform="translate(175,14)"
     id="path15"
     style="fill:#747474;fill-opacity:1" />
  <path
     d="M0 0 C5.77404912 0.59633622 10.61657874 2.75586559 15.875 5.0625 C17.27057129 5.66976929 17.27057129 5.66976929 18.69433594 6.28930664 C43.92613341 17.3742338 66.65090781 31.22171518 87.625 49.1875 C88.25873535 49.72802002 88.8924707 50.26854004 89.54541016 50.82543945 C93.87480725 54.62442175 93.87480725 54.62442175 95 58 C82.41840536 64.30203088 69.81708217 70.3242402 56.625 75.25 C55.6040625 75.63212646 54.583125 76.01425293 53.53125 76.40795898 C46.42054463 79 46.42054463 79 43 79 C42.76514893 78.40388916 42.53029785 77.80777832 42.28833008 77.19360352 C32.9872586 53.7793318 22.02092364 31.99465144 7.59814453 11.30859375 C5.01294147 7.57414827 2.50640659 3.78760969 0 0 Z "
     fill="#000000"
     transform="translate(337,13)"
     id="path16"
     style="fill:#747474;fill-opacity:1" />
</svg>
