<?xml version="1.0" encoding="UTF-8" standalone="no"?>
<!-- Generator: Adobe Illustrator 25.4.1, SVG Export Plug-In . SVG Version: 6.00 Build 0)  -->

<svg
   version="1.1"
   id="Layer_1"
   x="0px"
   y="0px"
   viewBox="0 0 117313.1 34472.979"
   xml:space="preserve"
   width="117313.1"
   height="34472.98"
   xmlns="http://www.w3.org/2000/svg"
   xmlns:svg="http://www.w3.org/2000/svg"><defs
   id="defs8" />
<linearGradient
   id="SVGID_1_"
   gradientUnits="userSpaceOnUse"
   x1="115.2419"
   y1="-52.729401"
   x2="115.2419"
   y2="271.5867">
	<stop
   offset="0"
   style="stop-color:#AE8626"
   id="stop1" />
	<stop
   offset="1"
   style="stop-color:#F6D77D"
   id="stop2" />
</linearGradient>
<path
   style="fill:#ffffff;fill-opacity:1"
   d="m 23.216,160.205 h -0.377 v 1.872 H 78.957 V 30.582 c 10.475,0.559 37.221,14.218 56.858,28.059 2.151,1.522 4.246,3.073 6.271,4.637 0.167,0.14 0.349,0.265 0.517,0.405 0.056,0.028 0.098,0.07 0.14,0.098 2.723,2.109 5.307,4.246 7.765,6.383 1.132,0.978 2.221,1.969 3.296,2.961 0.098,0.084 0.195,0.181 0.307,0.279 1.09,1.006 2.151,2.025 3.185,3.058 2.248,2.235 4.371,4.469 6.341,6.704 1.97,2.221 3.785,4.469 5.461,6.718 0.726,0.978 1.438,1.955 2.095,2.933 0,0.014 0.014,0.028 0.014,0.028 11.187,16.229 14.176,31.998 7.067,44.358 -0.936,1.592 -2.011,3.1 -3.254,4.539 1.564,1.103 3.296,2.081 5.139,2.975 1.509,0.726 3.059,1.382 4.651,1.955 14.511,-10.908 22.835,-27.123 22.835,-46.886 0,-13.729 -4.05,-26.062 -11.536,-36.509 C 189.573,54.129 180.438,46.433 169.098,40.498 152.394,31.741 130.927,26.839 106.08,26.839 H 22.839 v 1.872 h 0.377 c 10.279,0 17.011,6.732 17.011,17.025 v 97.445 c 0.001,10.292 -6.731,17.024 -17.011,17.024 z"
   id="path2" />
<linearGradient
   id="SVGID_00000080176074631256226470000008321068473152498823_"
   gradientUnits="userSpaceOnUse"
   x1="246.6534"
   y1="-52.729401"
   x2="246.6534"
   y2="271.5867">
	<stop
   offset="0"
   style="stop-color:#AE8626"
   id="stop3" />
	<stop
   offset="1"
   style="stop-color:#F6D77D"
   id="stop4" />
</linearGradient>
<path
   style="fill:#ffffff;fill-opacity:1"
   d="m 314.964,28.71 h 0.377 V 26.838 H 232.1 c -20.643,0 -38.953,3.38 -54.135,9.567 10.056,6.047 18.296,13.491 24.512,22.165 19.623,-13.827 46.285,-27.43 56.746,-27.989 v 131.495 h 56.118 v -1.872 h -0.377 c -10.28,0 -17.025,-6.732 -17.025,-17.025 V 45.735 c 0,-10.293 6.745,-17.025 17.025,-17.025 z"
   id="path4" />
<linearGradient
   id="SVGID_00000129898597302105308440000012173593595152386224_"
   gradientUnits="userSpaceOnUse"
   x1="190.47279"
   y1="-52.7295"
   x2="190.47279"
   y2="271.5867">
	<stop
   offset="0"
   style="stop-color:#AE8626"
   id="stop5" />
	<stop
   offset="1"
   style="stop-color:#F6D77D"
   id="stop6" />
</linearGradient>
<path
   style="fill:#ffffff;fill-opacity:1"
   d="m 249.668,101.443 c -5.986,35.768 -23.946,50.948 -40.971,55.077 -9.183,1.895 -17.797,0.159 -20.6,-0.529 -0.668,-0.177 -1.336,-0.354 -1.988,-0.548 -3.352,-0.977 -6.48,-2.192 -9.372,-3.589 -2.793,-1.341 -5.349,-2.877 -7.64,-4.595 -2.235,-1.676 -4.218,-3.506 -5.922,-5.503 -1.243,-1.439 -2.333,-2.961 -3.268,-4.553 -6.523,-11.341 -4.539,-25.545 4.469,-40.35 -0.559,-0.796 -1.104,-1.536 -1.62,-2.235 -6.202,-8.31 -14.568,-16.578 -24.875,-24.581 -4.791,8.869 -7.347,18.869 -7.347,29.749 0,19.777 8.324,35.978 22.849,46.886 2.5,1.885 5.196,3.617 8.058,5.182 2.417,1.341 4.972,2.542 7.64,3.617 3.478,1.397 7.151,2.598 11.006,3.561 3.876,0.976 7.942,1.721 12.178,2.232 -10e-4,0.002 -0.003,0.002 -0.004,0.004 0.029,0.003 0.061,0.005 0.09,0.008 4.406,0.528 8.995,0.801 13.756,0.801 h 44.302 v -0.381 -11.854 -48.347 c 0.001,-0.462 -0.665,-0.508 -0.741,-0.052 z"
   id="path6" />
<linearGradient
   id="SVGID_00000066493102523920027710000010228051926558767247_"
   gradientUnits="userSpaceOnUse"
   x1="122.9237"
   y1="101.1239"
   x2="122.9237"
   y2="162.0715">
	<stop
   offset="0"
   style="stop-color:#AE8626"
   id="stop7" />
	<stop
   offset="1"
   style="stop-color:#F6D77D"
   id="stop8" />
</linearGradient>
<path
   style="fill:#ffffff;fill-opacity:1"
   d="m 158.564,158.772 c -1.838,-0.996 -3.648,-2.088 -5.378,-3.235 -0.089,-0.059 -0.193,-0.076 -0.296,-0.046 -15.815,4.614 -55.944,2.094 -65.341,-54.048 -0.076,-0.456 -0.742,-0.409 -0.742,0.053 v 60.201 c 0,0.207 0.168,0.375 0.375,0.375 h 45.854 c 9.364,0 18.08,-1.052 26.003,-3.039 -0.143,-0.073 -0.316,-0.174 -0.475,-0.261 z"
   id="path8" />
</svg>
