<?xml version="1.0" encoding="iso-8859-1"?>
<!-- Generator: Adobe Illustrator 25.4.1, SVG Export Plug-In . SVG Version: 6.00 Build 0)  -->
<svg version="1.1" id="Layer_1" xmlns="http://www.w3.org/2000/svg" xmlns:xlink="http://www.w3.org/1999/xlink" x="0px" y="0px"
	 viewBox="0 0 558.071 185.669" style="enable-background:new 0 0 558.071 185.669;" xml:space="preserve">
<linearGradient id="SVGID_1_" gradientUnits="userSpaceOnUse" x1="61.6427" y1="82.6123" x2="507.1578" y2="82.6123">
	<stop  offset="0" style="stop-color:#AE8626"/>
	<stop  offset="0.25" style="stop-color:#F6D77D"/>
	<stop  offset="0.5" style="stop-color:#D2AC47"/>
	<stop  offset="0.75" style="stop-color:#EDC968"/>
	<stop  offset="1" style="stop-color:#AE8626"/>
</linearGradient>
<path style="fill:url(#SVGID_1_);" d="M125.856,62.624c-3.299-5.763-7.981-10.214-14.046-13.326
	c-6.065-3.126-13.081-4.682-21.076-4.682H64.169v75.992h26.565c7.995,0,15.011-1.556,21.076-4.682
	c6.065-3.112,10.747-7.534,14.046-13.225c3.299-5.705,4.956-12.36,4.956-19.981C130.811,75.099,129.155,68.401,125.856,62.624z
	 M108.712,101.117c-4.365,4.351-10.531,6.541-18.512,6.541H79.41V57.452H90.2c7.981,0,14.147,2.233,18.512,6.699
	c4.351,4.466,6.526,10.661,6.526,18.57C115.238,90.629,113.063,96.766,108.712,101.117z"/>
<linearGradient id="SVGID_00000164476564723251795900000009745213456912794544_" gradientUnits="userSpaceOnUse" x1="61.6516" y1="82.4466" x2="507.124" y2="82.4466">
	<stop  offset="0" style="stop-color:#AE8626"/>
	<stop  offset="0.25" style="stop-color:#F6D77D"/>
	<stop  offset="0.5" style="stop-color:#D2AC47"/>
	<stop  offset="0.75" style="stop-color:#EDC968"/>
	<stop  offset="1" style="stop-color:#AE8626"/>
</linearGradient>
<path style="fill:url(#SVGID_00000164476564723251795900000009745213456912794544_);" d="M209.339,62.408
	c-3.457-5.906-8.139-10.531-14.046-13.873c-5.921-3.342-12.476-5.013-19.664-5.013c-7.102,0-13.643,1.671-19.592,5.013
	c-5.95,3.342-10.675,7.967-14.161,13.873c-3.472,5.921-5.215,12.576-5.215,19.981c0,7.477,1.743,14.176,5.215,20.097
	c3.486,5.906,8.212,10.545,14.161,13.873c5.95,3.342,12.49,5.014,19.592,5.014c7.117,0,13.657-1.671,19.607-5.014
	c5.95-3.328,10.646-7.966,14.104-13.873c3.443-5.921,5.172-12.62,5.172-20.097C214.511,74.984,212.782,68.329,209.339,62.408z
	 M195.884,95.787c-1.959,3.846-4.682,6.8-8.168,8.874c-3.486,2.06-7.506,3.097-12.087,3.097c-4.567,0-8.615-1.037-12.13-3.097
	c-3.529-2.075-6.267-5.028-8.226-8.874c-1.959-3.846-2.939-8.312-2.939-13.398c0-5.071,0.98-9.522,2.939-13.34
	c1.959-3.804,4.696-6.728,8.226-8.759c3.515-2.031,7.563-3.054,12.13-3.054c4.581,0,8.6,1.023,12.087,3.054
	c3.486,2.031,6.209,4.956,8.168,8.759c1.959,3.817,2.939,8.269,2.939,13.34C198.823,87.474,197.843,91.94,195.884,95.787z"/>
<linearGradient id="SVGID_00000165918086236196670170000004380239966553892254_" gradientUnits="userSpaceOnUse" x1="61.6639" y1="82.6123" x2="507.1005" y2="82.6123">
	<stop  offset="0" style="stop-color:#AE8626"/>
	<stop  offset="0.25" style="stop-color:#F6D77D"/>
	<stop  offset="0.5" style="stop-color:#D2AC47"/>
	<stop  offset="0.75" style="stop-color:#EDC968"/>
	<stop  offset="1" style="stop-color:#AE8626"/>
</linearGradient>
<path style="fill:url(#SVGID_00000165918086236196670170000004380239966553892254_);" d="M263.276,89.794
	c5.734-1.527,10.041-4.293,12.951-8.327c2.896-4.034,4.351-8.543,4.351-13.556c0-4.351-1.023-8.298-3.097-11.813
	c-2.074-3.515-5.172-6.31-9.306-8.384c-4.135-2.074-9.148-3.097-15.026-3.097h-28.524v75.992h15.242V90.989h7.189l16.754,29.619
	h17.647L263.276,89.794z M252.601,79.565h-12.735V57.236h12.735c4.135,0,7.217,0.965,9.249,2.896
	c2.031,1.916,3.054,4.624,3.054,8.111c0,3.558-1.023,6.324-3.054,8.327C259.818,78.571,256.735,79.565,252.601,79.565z"/>
<linearGradient id="SVGID_00000179639782160500738830000013942471293952751034_" gradientUnits="userSpaceOnUse" x1="61.644" y1="82.5547" x2="507.1032" y2="82.5547">
	<stop  offset="0" style="stop-color:#AE8626"/>
	<stop  offset="0.25" style="stop-color:#F6D77D"/>
	<stop  offset="0.5" style="stop-color:#D2AC47"/>
	<stop  offset="0.75" style="stop-color:#EDC968"/>
	<stop  offset="1" style="stop-color:#AE8626"/>
</linearGradient>
<path style="fill:url(#SVGID_00000179639782160500738830000013942471293952751034_);" d="M332.555,44.501h-17.748l-27.328,76.108
	h16.005l5.013-14.478h30.267l5.013,14.478h16.106L332.555,44.501z M312.631,93.928l11.006-31.794l10.992,31.794H312.631z"/>
<linearGradient id="SVGID_00000115501779933091094350000001651629273910662830_" gradientUnits="userSpaceOnUse" x1="61.6774" y1="82.6123" x2="507.101" y2="82.6123">
	<stop  offset="0" style="stop-color:#AE8626"/>
	<stop  offset="0.25" style="stop-color:#F6D77D"/>
	<stop  offset="0.5" style="stop-color:#D2AC47"/>
	<stop  offset="0.75" style="stop-color:#EDC968"/>
	<stop  offset="1" style="stop-color:#AE8626"/>
</linearGradient>
<path style="fill:url(#SVGID_00000115501779933091094350000001651629273910662830_);" d="M428.543,62.624
	c-3.299-5.763-7.981-10.214-14.046-13.326c-6.051-3.126-13.081-4.682-21.062-4.682H366.87v75.992h26.565
	c7.981,0,15.011-1.556,21.062-4.682c6.065-3.112,10.747-7.534,14.046-13.225c3.313-5.705,4.956-12.36,4.956-19.981
	C433.499,75.099,431.856,68.401,428.543,62.624z M411.4,101.117c-4.351,4.351-10.531,6.541-18.512,6.541h-10.776V57.452h10.776
	c7.981,0,14.161,2.233,18.512,6.699c4.351,4.466,6.526,10.661,6.526,18.57C417.926,90.629,415.75,96.766,411.4,101.117z"/>
<linearGradient id="SVGID_00000082350862915727392690000017596998942796095122_" gradientUnits="userSpaceOnUse" x1="61.6427" y1="82.4466" x2="507.1112" y2="82.4466">
	<stop  offset="0" style="stop-color:#AE8626"/>
	<stop  offset="0.25" style="stop-color:#F6D77D"/>
	<stop  offset="0.5" style="stop-color:#D2AC47"/>
	<stop  offset="0.75" style="stop-color:#EDC968"/>
	<stop  offset="1" style="stop-color:#AE8626"/>
</linearGradient>
<path style="fill:url(#SVGID_00000082350862915727392690000017596998942796095122_);" d="M512.026,62.408
	c-3.443-5.906-8.125-10.531-14.046-13.873c-5.921-3.342-12.461-5.013-19.65-5.013c-7.117,0-13.657,1.671-19.607,5.013
	c-5.95,3.342-10.66,7.967-14.147,13.873c-3.486,5.921-5.229,12.576-5.229,19.981c0,7.477,1.743,14.176,5.229,20.097
	c3.486,5.906,8.197,10.545,14.147,13.873c5.95,3.342,12.49,5.014,19.607,5.014s13.643-1.671,19.592-5.014
	c5.95-3.328,10.661-7.966,14.104-13.873c3.443-5.921,5.172-12.62,5.172-20.097C517.198,74.984,515.469,68.329,512.026,62.408z
	 M498.586,95.787c-1.959,3.846-4.682,6.8-8.168,8.874c-3.486,2.06-7.52,3.097-12.087,3.097c-4.581,0-8.629-1.037-12.144-3.097
	c-3.515-2.075-6.252-5.028-8.211-8.874c-1.974-3.846-2.953-8.312-2.953-13.398c0-5.071,0.98-9.522,2.953-13.34
	c1.959-3.804,4.696-6.728,8.211-8.759c3.515-2.031,7.563-3.054,12.144-3.054c4.567,0,8.6,1.023,12.087,3.054
	c3.486,2.031,6.209,4.956,8.168,8.759c1.959,3.817,2.939,8.269,2.939,13.34C501.524,87.474,500.545,91.94,498.586,95.787z"/>
<linearGradient id="SVGID_00000137823209145278009790000003223912515585642174_" gradientUnits="userSpaceOnUse" x1="61.7119" y1="145.603" x2="506.8878" y2="145.603">
	<stop  offset="0" style="stop-color:#AE8626"/>
	<stop  offset="0.25" style="stop-color:#F6D77D"/>
	<stop  offset="0.5" style="stop-color:#D2AC47"/>
	<stop  offset="0.75" style="stop-color:#EDC968"/>
	<stop  offset="1" style="stop-color:#AE8626"/>
</linearGradient>
<path style="fill:url(#SVGID_00000137823209145278009790000003223912515585642174_);" d="M167.792,137.622l-5.085,11.871
	l-5.085-11.871h-3.63v15.962h3.198v-10.387l4.307,10.387h2.42l4.279-10.387v10.387h3.198v-15.962H167.792z"/>
<linearGradient id="SVGID_00000150085307941288967620000013770634973891923363_" gradientUnits="userSpaceOnUse" x1="61.5133" y1="145.5886" x2="507.4651" y2="145.5886">
	<stop  offset="0" style="stop-color:#AE8626"/>
	<stop  offset="0.25" style="stop-color:#F6D77D"/>
	<stop  offset="0.5" style="stop-color:#D2AC47"/>
	<stop  offset="0.75" style="stop-color:#EDC968"/>
	<stop  offset="1" style="stop-color:#AE8626"/>
</linearGradient>
<path style="fill:url(#SVGID_00000150085307941288967620000013770634973891923363_);" d="M188.551,140.201v-2.608h-9.277v15.991
	h9.277v-2.608h-6.065v-4.235h5.373v-2.536h-5.373v-4.005H188.551z"/>
<linearGradient id="SVGID_00000117649995549750482090000000150037496604771759_" gradientUnits="userSpaceOnUse" x1="61.5258" y1="145.603" x2="507.3849" y2="145.603">
	<stop  offset="0" style="stop-color:#AE8626"/>
	<stop  offset="0.25" style="stop-color:#F6D77D"/>
	<stop  offset="0.5" style="stop-color:#D2AC47"/>
	<stop  offset="0.75" style="stop-color:#EDC968"/>
	<stop  offset="1" style="stop-color:#AE8626"/>
</linearGradient>
<path style="fill:url(#SVGID_00000117649995549750482090000000150037496604771759_);" d="M194.904,137.622v2.579h4.264v13.383h3.198
	v-13.383h4.264v-2.579H194.904z"/>
<linearGradient id="SVGID_00000122002227953056641870000007908346097166622636_" gradientUnits="userSpaceOnUse" x1="61.6899" y1="145.5886" x2="507.0338" y2="145.5886">
	<stop  offset="0" style="stop-color:#AE8626"/>
	<stop  offset="0.25" style="stop-color:#F6D77D"/>
	<stop  offset="0.5" style="stop-color:#D2AC47"/>
	<stop  offset="0.75" style="stop-color:#EDC968"/>
	<stop  offset="1" style="stop-color:#AE8626"/>
</linearGradient>
<path style="fill:url(#SVGID_00000122002227953056641870000007908346097166622636_);" d="M219.956,137.593h-3.731l-5.748,15.991
	h3.357l1.052-3.04h6.367l1.052,3.04h3.385L219.956,137.593z M215.764,147.98l2.305-6.684l2.319,6.684H215.764z"/>
<linearGradient id="SVGID_00000134950099045947746710000009146194535948550071_" gradientUnits="userSpaceOnUse" x1="61.5605" y1="145.603" x2="507.2557" y2="145.603">
	<stop  offset="0" style="stop-color:#AE8626"/>
	<stop  offset="0.25" style="stop-color:#F6D77D"/>
	<stop  offset="0.5" style="stop-color:#D2AC47"/>
	<stop  offset="0.75" style="stop-color:#EDC968"/>
	<stop  offset="1" style="stop-color:#AE8626"/>
</linearGradient>
<path style="fill:url(#SVGID_00000134950099045947746710000009146194535948550071_);" d="M235.299,151.049v-13.427h-3.198v15.962
	h8.471v-2.535H235.299z"/>
<linearGradient id="SVGID_00000144303914363771014850000004907072045819877262_" gradientUnits="userSpaceOnUse" x1="61.5985" y1="145.5743" x2="507.1796" y2="145.5743">
	<stop  offset="0" style="stop-color:#AE8626"/>
	<stop  offset="0.25" style="stop-color:#F6D77D"/>
	<stop  offset="0.5" style="stop-color:#D2AC47"/>
	<stop  offset="0.75" style="stop-color:#EDC968"/>
	<stop  offset="1" style="stop-color:#AE8626"/>
</linearGradient>
<path style="fill:url(#SVGID_00000144303914363771014850000004907072045819877262_);" d="M257.427,146.568
	c-0.475-0.62-1.037-1.066-1.7-1.383c-0.663-0.302-1.498-0.605-2.536-0.907c-0.764-0.23-1.354-0.432-1.772-0.605
	c-0.432-0.173-0.778-0.403-1.066-0.691c-0.274-0.274-0.418-0.634-0.418-1.066c0-0.605,0.187-1.066,0.562-1.397
	c0.375-0.317,0.879-0.475,1.498-0.475c0.72,0,1.296,0.173,1.729,0.533c0.432,0.36,0.663,0.821,0.691,1.368h3.529
	c-0.101-1.441-0.677-2.55-1.7-3.356c-1.037-0.792-2.377-1.196-4.019-1.196c-1.095,0-2.075,0.187-2.924,0.562
	c-0.864,0.375-1.527,0.908-2.002,1.614c-0.461,0.692-0.706,1.527-0.706,2.463c0,1.008,0.23,1.815,0.706,2.42
	c0.461,0.605,1.023,1.052,1.671,1.354c0.648,0.288,1.484,0.591,2.521,0.893c0.764,0.216,1.368,0.418,1.801,0.591
	c0.432,0.173,0.792,0.418,1.081,0.72c0.288,0.303,0.432,0.691,0.432,1.167c0,0.576-0.202,1.052-0.634,1.412
	c-0.432,0.346-1.008,0.533-1.757,0.533c-0.735,0-1.311-0.187-1.729-0.576c-0.418-0.374-0.663-0.893-0.706-1.556h-3.429
	c0.014,0.98,0.288,1.829,0.807,2.536c0.519,0.72,1.225,1.267,2.118,1.657c0.879,0.375,1.887,0.576,2.996,0.576
	c1.181,0,2.19-0.23,3.054-0.663c0.85-0.432,1.498-1.008,1.945-1.743c0.432-0.735,0.663-1.527,0.663-2.377
	C258.133,147.98,257.888,147.173,257.427,146.568z"/>
<linearGradient id="SVGID_00000150781811141164275200000009001518849317484186_" gradientUnits="userSpaceOnUse" x1="61.3931" y1="145.5886" x2="507.3762" y2="145.5886">
	<stop  offset="0" style="stop-color:#AE8626"/>
	<stop  offset="0.25" style="stop-color:#F6D77D"/>
	<stop  offset="0.5" style="stop-color:#D2AC47"/>
	<stop  offset="0.75" style="stop-color:#EDC968"/>
	<stop  offset="1" style="stop-color:#AE8626"/>
</linearGradient>
<path style="fill:url(#SVGID_00000150781811141164275200000009001518849317484186_);" d="M284.77,140.201v-2.608h-9.278v15.991
	h9.278v-2.608h-6.065v-4.235h5.373v-2.536h-5.373v-4.005H284.77z"/>
<linearGradient id="SVGID_00000159433337525289787080000009408339096315262892_" gradientUnits="userSpaceOnUse" x1="61.6327" y1="145.603" x2="507.1348" y2="145.603">
	<stop  offset="0" style="stop-color:#AE8626"/>
	<stop  offset="0.25" style="stop-color:#F6D77D"/>
	<stop  offset="0.5" style="stop-color:#D2AC47"/>
	<stop  offset="0.75" style="stop-color:#EDC968"/>
	<stop  offset="1" style="stop-color:#AE8626"/>
</linearGradient>
<path style="fill:url(#SVGID_00000159433337525289787080000009408339096315262892_);" d="M300.011,145.646l5.013-8.024h-3.616
	l-3.112,5.345l-3.457-5.345h-3.673l5.1,7.909l-5.042,8.053h3.616l3.141-5.374l3.457,5.374h3.688L300.011,145.646z"/>
<linearGradient id="SVGID_00000013168750182036696450000009277077490706954376_" gradientUnits="userSpaceOnUse" x1="61.7274" y1="145.5671" x2="507.0495" y2="145.5671">
	<stop  offset="0" style="stop-color:#AE8626"/>
	<stop  offset="0.25" style="stop-color:#F6D77D"/>
	<stop  offset="0.5" style="stop-color:#D2AC47"/>
	<stop  offset="0.75" style="stop-color:#EDC968"/>
	<stop  offset="1" style="stop-color:#AE8626"/>
</linearGradient>
<path style="fill:url(#SVGID_00000013168750182036696450000009277077490706954376_);" d="M320.771,150.285
	c-0.663,0.389-1.426,0.576-2.291,0.576c-0.936,0-1.758-0.216-2.492-0.648c-0.72-0.432-1.282-1.052-1.685-1.858
	c-0.403-0.792-0.605-1.714-0.605-2.781c0-1.066,0.202-1.988,0.605-2.78c0.403-0.792,0.965-1.412,1.685-1.844
	c0.735-0.432,1.556-0.648,2.492-0.648c0.864,0,1.628,0.187,2.291,0.562c0.663,0.389,1.181,0.951,1.556,1.714H326
	c-0.533-1.613-1.469-2.881-2.809-3.789c-1.34-0.922-2.91-1.383-4.696-1.383c-1.527,0-2.896,0.36-4.12,1.052
	c-1.239,0.692-2.204,1.657-2.91,2.896c-0.706,1.253-1.066,2.651-1.066,4.221c0,1.585,0.36,2.982,1.066,4.221
	c0.706,1.239,1.671,2.19,2.91,2.896c1.225,0.692,2.593,1.037,4.12,1.037c1.801,0,3.371-0.461,4.711-1.369
	c1.325-0.908,2.262-2.175,2.795-3.803h-3.674C321.952,149.32,321.433,149.896,320.771,150.285z"/>
<linearGradient id="SVGID_00000049219349066710155060000000306540692204822949_" gradientUnits="userSpaceOnUse" x1="61.5525" y1="145.603" x2="507.1644" y2="145.603">
	<stop  offset="0" style="stop-color:#AE8626"/>
	<stop  offset="0.25" style="stop-color:#F6D77D"/>
	<stop  offset="0.5" style="stop-color:#D2AC47"/>
	<stop  offset="0.75" style="stop-color:#EDC968"/>
	<stop  offset="1" style="stop-color:#AE8626"/>
</linearGradient>
<path style="fill:url(#SVGID_00000049219349066710155060000000306540692204822949_);" d="M343.158,137.622v6.569h-6.843v-6.569
	h-3.213v15.962h3.213v-6.785h6.843v6.785h3.198v-15.962H343.158z"/>
<linearGradient id="SVGID_00000110441481511765159110000009996171932296136868_" gradientUnits="userSpaceOnUse" x1="61.7411" y1="145.5886" x2="507.0663" y2="145.5886">
	<stop  offset="0" style="stop-color:#AE8626"/>
	<stop  offset="0.25" style="stop-color:#F6D77D"/>
	<stop  offset="0.5" style="stop-color:#D2AC47"/>
	<stop  offset="0.75" style="stop-color:#EDC968"/>
	<stop  offset="1" style="stop-color:#AE8626"/>
</linearGradient>
<path style="fill:url(#SVGID_00000110441481511765159110000009996171932296136868_);" d="M362.231,137.593h-3.717l-5.748,15.991
	h3.357l1.052-3.04h6.368l1.052,3.04h3.385L362.231,137.593z M358.054,147.98l2.305-6.684l2.319,6.684H358.054z"/>
<linearGradient id="SVGID_00000044892916365821218130000011736449359170745488_" gradientUnits="userSpaceOnUse" x1="61.7432" y1="145.5886" x2="507.0734" y2="145.5886">
	<stop  offset="0" style="stop-color:#AE8626"/>
	<stop  offset="0.25" style="stop-color:#F6D77D"/>
	<stop  offset="0.5" style="stop-color:#D2AC47"/>
	<stop  offset="0.75" style="stop-color:#EDC968"/>
	<stop  offset="1" style="stop-color:#AE8626"/>
</linearGradient>
<path style="fill:url(#SVGID_00000044892916365821218130000011736449359170745488_);" d="M384.849,137.593v10.992l-7.261-10.992
	h-3.198v15.991h3.198v-10.949l7.261,10.949h3.198v-15.991H384.849z"/>
<linearGradient id="SVGID_00000056426638358004845260000013944866384908780438_" gradientUnits="userSpaceOnUse" x1="61.5493" y1="145.5671" x2="507.1375" y2="145.5671">
	<stop  offset="0" style="stop-color:#AE8626"/>
	<stop  offset="0.25" style="stop-color:#F6D77D"/>
	<stop  offset="0.5" style="stop-color:#D2AC47"/>
	<stop  offset="0.75" style="stop-color:#EDC968"/>
	<stop  offset="1" style="stop-color:#AE8626"/>
</linearGradient>
<path style="fill:url(#SVGID_00000056426638358004845260000013944866384908780438_);" d="M402.396,144.71v2.449h5.489
	c-0.245,1.167-0.749,2.06-1.527,2.708c-0.778,0.648-1.786,0.98-3.011,0.98c-0.98,0-1.858-0.216-2.607-0.649
	c-0.735-0.418-1.325-1.037-1.743-1.829c-0.418-0.792-0.634-1.715-0.634-2.795c0-1.037,0.202-1.945,0.62-2.737
	c0.418-0.792,0.98-1.412,1.714-1.83c0.735-0.432,1.57-0.648,2.521-0.648c0.85,0,1.599,0.187,2.247,0.533
	c0.634,0.346,1.138,0.865,1.498,1.527h3.688c-0.504-1.585-1.412-2.809-2.737-3.688c-1.34-0.879-2.896-1.325-4.696-1.325
	c-1.527,0-2.91,0.36-4.149,1.052c-1.253,0.692-2.219,1.657-2.939,2.896c-0.706,1.253-1.066,2.651-1.066,4.221
	c0,1.585,0.36,2.982,1.066,4.221c0.72,1.239,1.686,2.19,2.939,2.896c1.239,0.692,2.636,1.037,4.178,1.037
	c1.369,0,2.608-0.288,3.717-0.864c1.095-0.562,2.002-1.326,2.708-2.276c0.706-0.936,1.152-1.973,1.369-3.083v-2.795H402.396z"/>
<linearGradient id="SVGID_00000050662957068616391720000002482163546476220809_" gradientUnits="userSpaceOnUse" x1="61.2481" y1="145.5886" x2="507.2047" y2="145.5886">
	<stop  offset="0" style="stop-color:#AE8626"/>
	<stop  offset="0.25" style="stop-color:#F6D77D"/>
	<stop  offset="0.5" style="stop-color:#D2AC47"/>
	<stop  offset="0.75" style="stop-color:#EDC968"/>
	<stop  offset="1" style="stop-color:#AE8626"/>
</linearGradient>
<path style="fill:url(#SVGID_00000050662957068616391720000002482163546476220809_);" d="M427.39,140.201v-2.608h-9.278v15.991
	h9.278v-2.608h-6.065v-4.235h5.374v-2.536h-5.374v-4.005H427.39z"/>
<linearGradient id="SVGID_00000162312687338869012440000017342234893081958279_" gradientUnits="userSpaceOnUse" x1="61.6481" y1="145.5692" x2="507.1115" y2="145.5692">
	<stop  offset="0" style="stop-color:#AE8626"/>
	<stop  offset="0.25" style="stop-color:#F6D77D"/>
	<stop  offset="0.5" style="stop-color:#D2AC47"/>
	<stop  offset="0.75" style="stop-color:#EDC968"/>
	<stop  offset="1" style="stop-color:#AE8626"/>
</linearGradient>
<rect x="64.174" y="144.602" style="fill:url(#SVGID_00000162312687338869012440000017342234893081958279_);" width="79.309" height="1.934"/>
<linearGradient id="SVGID_00000040548333101482944000000008412755902888032685_" gradientUnits="userSpaceOnUse" x1="61.6475" y1="145.5692" x2="507.1121" y2="145.5692">
	<stop  offset="0" style="stop-color:#AE8626"/>
	<stop  offset="0.25" style="stop-color:#F6D77D"/>
	<stop  offset="0.5" style="stop-color:#D2AC47"/>
	<stop  offset="0.75" style="stop-color:#EDC968"/>
	<stop  offset="1" style="stop-color:#AE8626"/>
</linearGradient>
<rect x="438.968" y="144.602" style="fill:url(#SVGID_00000040548333101482944000000008412755902888032685_);" width="79.31" height="1.934"/>
</svg>
