<?xml version="1.0" encoding="UTF-8"?>
<!-- Created with Inkscape (http://www.inkscape.org/) -->
<svg width="16.467mm" height="16.467mm" version="1.1" viewBox="0 0 16.467 16.467" xmlns="http://www.w3.org/2000/svg">
 <g transform="translate(-63.73 -15.767)">
  <path d="m65.98 16.017h11.967c1.108 0 2 0.892 2 2v11.967c0 1.108-0.892 2-2 2h-11.967c-1.108 0-2-0.892-2-2v-11.967c0-1.108 0.892-2 2-2z" fill-opacity="0" stroke="#000000" stroke-width=".5"/>
  <path transform="matrix(.52688 0 0 .48156 32.92 1.57)" d="m65.979 55.492 3.8506-10.027h1.4295l4.1037 10.027h-1.5115l-1.1696-3.0367h-4.1926l-1.1012 3.0367zm2.8931-4.1174h3.3992l-1.0464-2.7768q-0.47877-1.2653-0.71131-2.0792-0.19151 0.96437-0.54032 1.9151zm12.254 4.1174v-1.067q-0.8481 1.2311-2.3049 1.2311-0.64291 0-1.2038-0.24622-0.554-0.24622-0.82758-0.61556-0.26674-0.37617-0.37617-0.91649-0.07524-0.36249-0.07524-1.149v-4.5004h1.2311v4.0285q0 0.96437 0.07523 1.2995 0.11627 0.4856 0.49244 0.76602 0.37617 0.27358 0.93017 0.27358 0.554 0 1.0396-0.28042 0.4856-0.28726 0.68395-0.77286 0.20518-0.49244 0.20518-1.4226v-3.8917h1.2311v7.2636z" stroke-width="0" style="white-space:pre" aria-label="Au"/>
  <path transform="matrix(.52688 0 0 .48156 30.313 -3.969)" d="m66.398 45.217v-0.70994h3.8944v0.57452q-0.57452 0.61145-1.1408 1.6251-0.56221 1.0136-0.86998 2.0847-0.2216 0.75508-0.28315 1.6538h-0.75918q0.01231-0.70994 0.27905-1.7153 0.26674-1.0054 0.76329-1.9369 0.50065-0.93564 1.0629-1.5758zm4.8357 3.837 0.70994-0.06566q0.09028 0.50065 0.34471 0.72635 0.25443 0.2257 0.65249 0.2257 0.34061 0 0.59504-0.15594 0.25853-0.15594 0.42268-0.41447 0.16415-0.26264 0.27495-0.70584 0.1108-0.4432 0.1108-0.90281 0-0.04924-0.0041-0.14773-0.2216 0.35292-0.60735 0.57452-0.38164 0.2175-0.82895 0.2175-0.74687 0-1.2639-0.54169-0.51706-0.54169-0.51706-1.4281 0-0.91512 0.53758-1.4732 0.54169-0.5581 1.3542-0.5581 0.58683 0 1.0711 0.31598 0.48834 0.31598 0.73866 0.90281 0.25443 0.58272 0.25443 1.6907 0 1.1531-0.25032 1.8385-0.25032 0.68121-0.74687 1.0382-0.49244 0.35702-1.1572 0.35702-0.70584 0-1.1531-0.38985-0.4473-0.39395-0.53758-1.1039zm3.0244-2.6551q0-0.63607-0.34061-1.0095-0.3365-0.37344-0.81253-0.37344-0.49244 0-0.85767 0.40216-0.36523 0.40216-0.36523 1.0423 0 0.57452 0.34471 0.93564 0.34881 0.35702 0.85767 0.35702 0.51296 0 0.84126-0.35702 0.3324-0.36112 0.3324-0.9972z" stroke-width="0" style="white-space:pre" aria-label="79"/>
 </g>
</svg>
