<?xml version="1.0" encoding="UTF-8"?>
<!-- Created with Inkscape (http://www.inkscape.org/) -->
<svg width="16.467mm" height="16.467mm" version="1.1" viewBox="0 0 16.467 16.467" xmlns="http://www.w3.org/2000/svg">
 <g transform="translate(-63.73 -15.767)">
  <path d="m65.98 16.017h11.967c1.108 0 2 0.892 2 2v11.967c0 1.108-0.892 2-2 2h-11.967c-1.108 0-2-0.892-2-2v-11.967c0-1.108 0.892-2 2-2z" fill-opacity="0" stroke="#000000" stroke-width=".5"/>
  <path transform="matrix(.52688 0 0 .48156 32.631 1.57)" d="m67.081 55.492v-10.027h3.7822q0.99857 0 1.5252 0.09575 0.73867 0.12311 1.238 0.47192 0.49928 0.34198 0.80022 0.96437 0.30778 0.6224 0.30778 1.3679 0 1.279-0.8139 2.1681-0.8139 0.8823-2.941 0.8823h-2.5717v4.0763zm1.3269-5.2596h2.5922q1.2858 0 1.8261-0.47877 0.54032-0.47876 0.54032-1.3474 0-0.62924-0.32146-1.0738-0.31462-0.45141-0.83442-0.59504-0.33514-0.08891-1.238-0.08891h-2.5648zm12.671 5.2596v-0.91649q-0.69079 1.0806-2.0313 1.0806-0.86862 0-1.6004-0.47876-0.72499-0.47876-1.1285-1.3337-0.39669-0.86178-0.39669-1.9766 0-1.0875 0.36249-1.9698 0.36249-0.88914 1.0875-1.3611t1.621-0.47193q0.65659 0 1.1696 0.28042 0.51296 0.27358 0.83442 0.71815v-3.5976h1.2243v10.027zm-3.8917-3.6249q0 1.3953 0.5882 2.086 0.5882 0.69079 1.3884 0.69079 0.80706 0 1.3679-0.65659 0.56768-0.66343 0.56768-2.0177 0-1.491-0.57452-2.1886-0.57452-0.69763-1.4158-0.69763-0.82074 0-1.3747 0.67027-0.54716 0.67027-0.54716 2.1134z" stroke-width="0" style="white-space:pre" aria-label="Pd"/>
  <path transform="matrix(.52688 0 0 .48156 30.313 -3.969)" d="m68.717 50.445v-1.4404h-2.6099v-0.67711l2.7454-3.8985h0.60324v3.8985h0.81253v0.67711h-0.81253v1.4404zm0-2.1175v-2.7125l-1.8836 2.7125zm6.2391-2.4253-0.73456 0.05745q-0.09849-0.43499-0.27905-0.63197-0.29957-0.31598-0.73866-0.31598-0.35292 0-0.61966 0.19698-0.34881 0.25443-0.5499 0.74277-0.20108 0.48834-0.20929 1.3912 0.26674-0.40627 0.65249-0.60324t0.80843-0.19698q0.73866 0 1.2557 0.54579 0.52117 0.54169 0.52117 1.4035 0 0.56631-0.24622 1.0546-0.24212 0.48424-0.6689 0.74277t-0.96847 0.25853q-0.92333 0-1.5061-0.67711-0.58272-0.68121-0.58272-2.2406 0-1.7441 0.64428-2.5361 0.56221-0.68942 1.5143-0.68942 0.70994 0 1.1613 0.39806 0.45551 0.39806 0.54579 1.0998zm-3.0162 2.5935q0 0.38164 0.16004 0.73046 0.16415 0.34881 0.45551 0.53348 0.29136 0.18056 0.61145 0.18056 0.46782 0 0.80432-0.37754 0.3365-0.37754 0.3365-1.0259 0-0.62376-0.3324-0.98078-0.3324-0.36112-0.83715-0.36112-0.50065 0-0.84946 0.36112-0.34881 0.35702-0.34881 0.93974z" stroke-width="0" style="white-space:pre" aria-label="46"/>
 </g>
</svg>
