<?xml version="1.0" encoding="UTF-8"?>
<!-- Created with Inkscape (http://www.inkscape.org/) -->
<svg width="16.467mm" height="16.467mm" version="1.1" viewBox="0 0 16.467 16.467" xmlns="http://www.w3.org/2000/svg">
 <g transform="translate(-63.73 -15.767)">
  <path d="m65.98 16.017h11.967c1.108 0 2 0.892 2 2v11.967c0 1.108-0.892 2-2 2h-11.967c-1.108 0-2-0.892-2-2v-11.967c0-1.108 0.892-2 2-2z" fill-opacity="0" stroke="#000000" stroke-width=".5"/>
  <path transform="matrix(.52688 0 0 .48156 33.419 1.57)" d="m67.081 55.492v-10.027h3.7822q0.99857 0 1.5252 0.09575 0.73867 0.12311 1.238 0.47192 0.49928 0.34198 0.80022 0.96437 0.30778 0.6224 0.30778 1.3679 0 1.279-0.8139 2.1681-0.8139 0.8823-2.941 0.8823h-2.5717v4.0763zm1.3269-5.2596h2.5922q1.2858 0 1.8261-0.47877 0.54032-0.47876 0.54032-1.3474 0-0.62924-0.32146-1.0738-0.31462-0.45141-0.83442-0.59504-0.33514-0.08891-1.238-0.08891h-2.5648zm10.647 4.1584 0.17783 1.0875q-0.5198 0.10943-0.93017 0.10943-0.67027 0-1.0396-0.21202-0.36933-0.21202-0.5198-0.554-0.15047-0.34882-0.15047-1.4568v-4.1789h-0.90281v-0.95753h0.90281v-1.7988l1.2243-0.73867v2.5375h1.238v0.95753h-1.238v4.2473q0 0.52664 0.06155 0.67711 0.06839 0.15047 0.21202 0.23938 0.15047 0.08891 0.42405 0.08891 0.20518 0 0.54032-0.04788z" stroke-width="0" style="white-space:pre" aria-label="Pt"/>
  <path transform="matrix(.52688 0 0 .48156 30.313 -3.969)" d="m66.398 45.217v-0.70994h3.8944v0.57452q-0.57452 0.61145-1.1408 1.6251-0.56221 1.0136-0.86998 2.0847-0.2216 0.75508-0.28315 1.6538h-0.75918q0.01231-0.70994 0.27905-1.7153 0.26674-1.0054 0.76329-1.9369 0.50065-0.93564 1.0629-1.5758zm5.8616 1.9657q-0.45961-0.16825-0.68121-0.48013-0.2216-0.31188-0.2216-0.74687 0-0.65659 0.47192-1.1039 0.47192-0.4473 1.2557-0.4473 0.78791 0 1.268 0.45961 0.48013 0.45551 0.48013 1.1121 0 0.41858-0.2216 0.73046-0.2175 0.30778-0.6648 0.47603 0.554 0.18056 0.84126 0.58272 0.29136 0.40216 0.29136 0.96026 0 0.77149-0.54579 1.2968-0.54579 0.52527-1.4363 0.52527t-1.4363-0.52527q-0.54579-0.52938-0.54579-1.3173 0-0.58683 0.29547-0.98078 0.29957-0.39806 0.84946-0.54169zm-0.14773-1.2516q0 0.42678 0.27495 0.69763 0.27495 0.27084 0.71404 0.27084 0.42678 0 0.69763-0.26674 0.27495-0.27084 0.27495-0.66069 0-0.40627-0.28316-0.68121-0.27905-0.27905-0.69763-0.27905-0.42268 0-0.70173 0.27084-0.27905 0.27084-0.27905 0.64838zm-0.23801 2.7782q0 0.31598 0.14773 0.61145 0.15184 0.29547 0.4473 0.45961 0.29546 0.16004 0.63607 0.16004 0.52938 0 0.87409-0.34061 0.34471-0.34061 0.34471-0.86588 0-0.53348-0.35702-0.88229-0.35292-0.34881-0.8864-0.34881-0.52117 0-0.86588 0.34471-0.34061 0.34471-0.34061 0.86178z" stroke-width="0" style="white-space:pre" aria-label="78"/>
 </g>
</svg>
