<?xml version="1.0" encoding="UTF-8"?>
<!-- Created with Inkscape (http://www.inkscape.org/) -->
<svg width="16.467mm" height="16.467mm" version="1.1" viewBox="0 0 16.467 16.467" xmlns="http://www.w3.org/2000/svg">
 <g transform="translate(-63.73 -15.767)">
  <path d="m65.98 16.017h11.967c1.108 0 2 0.892 2 2v11.967c0 1.108-0.892 2-2 2h-11.967c-1.108 0-2-0.892-2-2v-11.967c0-1.108 0.892-2 2-2z" fill-opacity="0" stroke="#000000" stroke-width=".5"/>
  <path transform="matrix(.52688 0 0 .48156 32.902 1.57)" d="m65.979 55.492 3.8506-10.027h1.4295l4.1037 10.027h-1.5115l-1.1696-3.0367h-4.1926l-1.1012 3.0367zm2.8931-4.1174h3.3992l-1.0464-2.7768q-0.47877-1.2653-0.71131-2.0792-0.19151 0.96437-0.54032 1.9151zm7.2678 4.7193 1.1969 0.17783q0.07523 0.554 0.41721 0.80706 0.45825 0.34198 1.2516 0.34198 0.85494 0 1.32-0.34198t0.62923-0.95753q0.09575-0.37617 0.08891-1.5799-0.80706 0.95069-2.0108 0.95069-1.4979 0-2.3186-1.0806-0.82074-1.0806-0.82074-2.5922 0-1.0396 0.37617-1.9151 0.37617-0.8823 1.0875-1.3611 0.71815-0.47877 1.6825-0.47877 1.2858 0 2.1202 1.0396v-0.87546h1.1354v6.2787q0 1.6962-0.34882 2.4007-0.34198 0.71131-1.0943 1.1217-0.74551 0.41037-1.8398 0.41037-1.2995 0-2.0997-0.5882-0.80022-0.58136-0.77286-1.7578zm1.0191-4.3636q0 1.4295 0.56768 2.086 0.56768 0.65659 1.4226 0.65659 0.8481 0 1.4226-0.64975 0.57452-0.65659 0.57452-2.0518 0-1.3337-0.59504-2.0108-0.5882-0.67711-1.4226-0.67711-0.82074 0-1.3953 0.67027-0.57452 0.66343-0.57452 1.9766z" stroke-width="0" style="white-space:pre" aria-label="Ag"/>
  <path transform="matrix(.52688 0 0 .48156 30.313 -3.969)" d="m68.717 50.445v-1.4404h-2.6099v-0.67711l2.7454-3.8985h0.60324v3.8985h0.81253v0.67711h-0.81253v1.4404zm0-2.1175v-2.7125l-1.8836 2.7125zm2.4555-3.1106v-0.70994h3.8944v0.57452q-0.57452 0.61145-1.1408 1.6251-0.56221 1.0136-0.86998 2.0847-0.2216 0.75508-0.28315 1.6538h-0.75918q0.01231-0.70994 0.27905-1.7153 0.26674-1.0054 0.76329-1.9369 0.50065-0.93564 1.0629-1.5758z" stroke-width="0" style="white-space:pre" aria-label="47"/>
 </g>
</svg>
