<?xml version="1.0" encoding="UTF-8" standalone="no"?>
<!-- Generator: Adobe Illustrator 25.4.1, SVG Export Plug-In . SVG Version: 6.00 Build 0)  -->

<svg
   version="1.1"
   id="Layer_1"
   x="0px"
   y="0px"
   viewBox="0 0 708778.74 34472.979"
   xml:space="preserve"
   width="708778.75"
   height="34472.98"
   xmlns="http://www.w3.org/2000/svg"
   xmlns:svg="http://www.w3.org/2000/svg"><defs
   id="defs118" />
<linearGradient
   id="SVGID_1_"
   gradientUnits="userSpaceOnUse"
   x1="345.46109"
   y1="82.612297"
   x2="790.9762"
   y2="82.612297">
	<stop
   offset="0"
   style="stop-color:#AE8626"
   id="stop1" />
	<stop
   offset="0.25"
   style="stop-color:#F6D77D"
   id="stop2" />
	<stop
   offset="0.5"
   style="stop-color:#D2AC47"
   id="stop3" />
	<stop
   offset="0.75"
   style="stop-color:#EDC968"
   id="stop4" />
	<stop
   offset="1"
   style="stop-color:#AE8626"
   id="stop5" />
</linearGradient>
<path
   style="fill:#ffffff;fill-opacity:1"
   d="m 409.674,62.624 c -3.299,-5.763 -7.981,-10.214 -14.046,-13.326 -6.065,-3.126 -13.081,-4.682 -21.076,-4.682 h -26.565 v 75.992 h 26.565 c 7.995,0 15.011,-1.556 21.076,-4.682 6.065,-3.112 10.747,-7.534 14.046,-13.225 3.299,-5.705 4.956,-12.36 4.956,-19.981 0,-7.621 -1.657,-14.319 -4.956,-20.096 z m -17.143,38.493 c -4.365,4.351 -10.531,6.541 -18.512,6.541 h -10.79 V 57.452 h 10.79 c 7.981,0 14.147,2.233 18.512,6.699 4.351,4.466 6.526,10.661 6.526,18.57 0,7.908 -2.176,14.045 -6.526,18.396 z"
   id="path5" />
<linearGradient
   id="SVGID_00000066476263071791226820000006325080020683463610_"
   gradientUnits="userSpaceOnUse"
   x1="345.47"
   y1="82.446602"
   x2="790.94238"
   y2="82.446602">
	<stop
   offset="0"
   style="stop-color:#AE8626"
   id="stop6" />
	<stop
   offset="0.25"
   style="stop-color:#F6D77D"
   id="stop7" />
	<stop
   offset="0.5"
   style="stop-color:#D2AC47"
   id="stop8" />
	<stop
   offset="0.75"
   style="stop-color:#EDC968"
   id="stop9" />
	<stop
   offset="1"
   style="stop-color:#AE8626"
   id="stop10" />
</linearGradient>
<path
   style="fill:#ffffff;fill-opacity:1"
   d="m 493.158,62.408 c -3.457,-5.906 -8.139,-10.531 -14.046,-13.873 -5.921,-3.342 -12.476,-5.013 -19.664,-5.013 -7.102,0 -13.643,1.671 -19.592,5.013 -5.95,3.342 -10.675,7.967 -14.161,13.873 -3.472,5.921 -5.215,12.576 -5.215,19.981 0,7.477 1.743,14.176 5.215,20.097 3.486,5.906 8.211,10.545 14.161,13.873 5.95,3.342 12.49,5.014 19.592,5.014 7.117,0 13.657,-1.671 19.607,-5.014 5.95,-3.328 10.646,-7.966 14.104,-13.873 3.443,-5.921 5.172,-12.62 5.172,-20.097 -0.002,-7.405 -1.73,-14.06 -5.173,-19.981 z m -13.456,33.379 c -1.959,3.846 -4.682,6.8 -8.168,8.874 -3.486,2.06 -7.506,3.097 -12.087,3.097 -4.567,0 -8.615,-1.037 -12.13,-3.097 -3.53,-2.075 -6.267,-5.028 -8.226,-8.874 -1.959,-3.846 -2.939,-8.312 -2.939,-13.398 0,-5.071 0.98,-9.522 2.939,-13.34 1.959,-3.804 4.696,-6.728 8.226,-8.759 3.515,-2.031 7.563,-3.054 12.13,-3.054 4.581,0 8.6,1.023 12.087,3.054 3.486,2.031 6.209,4.956 8.168,8.759 1.959,3.817 2.939,8.269 2.939,13.34 0,5.085 -0.98,9.551 -2.939,13.398 z"
   id="path10" />
<linearGradient
   id="SVGID_00000167373397569395202340000015990541029011120778_"
   gradientUnits="userSpaceOnUse"
   x1="345.4823"
   y1="82.612297"
   x2="790.91888"
   y2="82.612297">
	<stop
   offset="0"
   style="stop-color:#AE8626"
   id="stop11" />
	<stop
   offset="0.25"
   style="stop-color:#F6D77D"
   id="stop12" />
	<stop
   offset="0.5"
   style="stop-color:#D2AC47"
   id="stop13" />
	<stop
   offset="0.75"
   style="stop-color:#EDC968"
   id="stop14" />
	<stop
   offset="1"
   style="stop-color:#AE8626"
   id="stop15" />
</linearGradient>
<path
   style="fill:#ffffff;fill-opacity:1"
   d="m 547.094,89.794 c 5.734,-1.527 10.041,-4.293 12.951,-8.327 2.896,-4.034 4.351,-8.543 4.351,-13.556 0,-4.351 -1.023,-8.298 -3.097,-11.813 -2.074,-3.515 -5.172,-6.31 -9.306,-8.384 -4.135,-2.074 -9.148,-3.097 -15.026,-3.097 h -28.524 v 75.992 h 15.242 v -29.62 h 7.189 l 16.754,29.619 h 17.648 z M 536.419,79.565 H 523.684 V 57.236 h 12.735 c 4.135,0 7.218,0.965 9.249,2.896 2.031,1.916 3.054,4.624 3.054,8.111 0,3.558 -1.023,6.324 -3.054,8.327 -2.031,2.001 -5.114,2.995 -9.249,2.995 z"
   id="path15" />
<linearGradient
   id="SVGID_00000068662863737573991640000002629425437574817209_"
   gradientUnits="userSpaceOnUse"
   x1="345.4624"
   y1="82.554703"
   x2="790.92157"
   y2="82.554703">
	<stop
   offset="0"
   style="stop-color:#AE8626"
   id="stop16" />
	<stop
   offset="0.25"
   style="stop-color:#F6D77D"
   id="stop17" />
	<stop
   offset="0.5"
   style="stop-color:#D2AC47"
   id="stop18" />
	<stop
   offset="0.75"
   style="stop-color:#EDC968"
   id="stop19" />
	<stop
   offset="1"
   style="stop-color:#AE8626"
   id="stop20" />
</linearGradient>
<path
   style="fill:#ffffff;fill-opacity:1"
   d="m 616.373,44.501 h -17.748 l -27.328,76.108 h 16.005 l 5.013,-14.478 h 30.267 l 5.013,14.478 h 16.106 z m -19.924,49.427 11.006,-31.794 10.992,31.794 z"
   id="path20" />
<linearGradient
   id="SVGID_00000101792942947088631210000008016640734163857543_"
   gradientUnits="userSpaceOnUse"
   x1="345.49579"
   y1="82.612297"
   x2="790.91937"
   y2="82.612297">
	<stop
   offset="0"
   style="stop-color:#AE8626"
   id="stop21" />
	<stop
   offset="0.25"
   style="stop-color:#F6D77D"
   id="stop22" />
	<stop
   offset="0.5"
   style="stop-color:#D2AC47"
   id="stop23" />
	<stop
   offset="0.75"
   style="stop-color:#EDC968"
   id="stop24" />
	<stop
   offset="1"
   style="stop-color:#AE8626"
   id="stop25" />
</linearGradient>
<path
   style="fill:#ffffff;fill-opacity:1"
   d="M 712.361,62.624 C 709.062,56.861 704.38,52.41 698.315,49.298 692.264,46.172 685.234,44.616 677.253,44.616 h -26.565 v 75.992 h 26.565 c 7.981,0 15.011,-1.556 21.062,-4.682 6.065,-3.112 10.747,-7.534 14.046,-13.225 3.313,-5.705 4.956,-12.36 4.956,-19.981 0,-7.621 -1.642,-14.319 -4.956,-20.096 z m -17.143,38.493 c -4.351,4.351 -10.531,6.541 -18.512,6.541 H 665.93 V 57.452 h 10.776 c 7.981,0 14.161,2.233 18.512,6.699 4.351,4.466 6.526,10.661 6.526,18.57 0,7.908 -2.175,14.045 -6.526,18.396 z"
   id="path25" />
<linearGradient
   id="SVGID_00000173131982193895427800000011471824992712479398_"
   gradientUnits="userSpaceOnUse"
   x1="345.46109"
   y1="82.446602"
   x2="790.92963"
   y2="82.446602">
	<stop
   offset="0"
   style="stop-color:#AE8626"
   id="stop26" />
	<stop
   offset="0.25"
   style="stop-color:#F6D77D"
   id="stop27" />
	<stop
   offset="0.5"
   style="stop-color:#D2AC47"
   id="stop28" />
	<stop
   offset="0.75"
   style="stop-color:#EDC968"
   id="stop29" />
	<stop
   offset="1"
   style="stop-color:#AE8626"
   id="stop30" />
</linearGradient>
<path
   style="fill:#ffffff;fill-opacity:1"
   d="m 795.845,62.408 c -3.443,-5.906 -8.125,-10.531 -14.046,-13.873 -5.921,-3.342 -12.461,-5.013 -19.65,-5.013 -7.117,0 -13.657,1.671 -19.607,5.013 -5.95,3.342 -10.66,7.967 -14.147,13.873 -3.486,5.921 -5.229,12.576 -5.229,19.981 0,7.477 1.743,14.176 5.229,20.097 3.486,5.906 8.197,10.545 14.147,13.873 5.95,3.342 12.49,5.014 19.607,5.014 7.117,0 13.643,-1.671 19.592,-5.014 5.95,-3.328 10.661,-7.966 14.104,-13.873 3.443,-5.921 5.172,-12.62 5.172,-20.097 0,-7.405 -1.729,-14.06 -5.172,-19.981 z m -13.441,33.379 c -1.959,3.846 -4.682,6.8 -8.168,8.874 -3.486,2.06 -7.52,3.097 -12.087,3.097 -4.581,0 -8.629,-1.037 -12.144,-3.097 -3.515,-2.075 -6.252,-5.028 -8.211,-8.874 -1.974,-3.846 -2.953,-8.312 -2.953,-13.398 0,-5.071 0.98,-9.522 2.953,-13.34 1.959,-3.804 4.696,-6.728 8.211,-8.759 3.515,-2.031 7.563,-3.054 12.144,-3.054 4.567,0 8.601,1.023 12.087,3.054 3.486,2.031 6.209,4.956 8.168,8.759 1.959,3.817 2.939,8.269 2.939,13.34 0,5.085 -0.98,9.551 -2.939,13.398 z"
   id="path30" />
<linearGradient
   id="SVGID_00000019675041519113709710000014363950727951626650_"
   gradientUnits="userSpaceOnUse"
   x1="345.53021"
   y1="145.603"
   x2="790.70612"
   y2="145.603">
	<stop
   offset="0"
   style="stop-color:#AE8626"
   id="stop31" />
	<stop
   offset="0.25"
   style="stop-color:#F6D77D"
   id="stop32" />
	<stop
   offset="0.5"
   style="stop-color:#D2AC47"
   id="stop33" />
	<stop
   offset="0.75"
   style="stop-color:#EDC968"
   id="stop34" />
	<stop
   offset="1"
   style="stop-color:#AE8626"
   id="stop35" />
</linearGradient>
<path
   style="fill:#ffffff;fill-opacity:1"
   d="m 451.61,137.622 -5.085,11.871 -5.085,-11.871 h -3.63 v 15.962 h 3.198 v -10.387 l 4.307,10.387 h 2.42 l 4.279,-10.387 v 10.387 h 3.198 v -15.962 z"
   id="path35" />
<linearGradient
   id="SVGID_00000170264439068742007540000001727759803158993541_"
   gradientUnits="userSpaceOnUse"
   x1="345.3317"
   y1="145.58859"
   x2="791.28339"
   y2="145.58859">
	<stop
   offset="0"
   style="stop-color:#AE8626"
   id="stop36" />
	<stop
   offset="0.25"
   style="stop-color:#F6D77D"
   id="stop37" />
	<stop
   offset="0.5"
   style="stop-color:#D2AC47"
   id="stop38" />
	<stop
   offset="0.75"
   style="stop-color:#EDC968"
   id="stop39" />
	<stop
   offset="1"
   style="stop-color:#AE8626"
   id="stop40" />
</linearGradient>
<path
   style="fill:#ffffff;fill-opacity:1"
   d="m 472.369,140.201 v -2.608 h -9.277 v 15.991 h 9.277 v -2.608 h -6.065 v -4.235 h 5.373 v -2.536 h -5.373 V 140.2 h 6.065 z"
   id="path40" />
<linearGradient
   id="SVGID_00000020390603752222115310000004455792724911446931_"
   gradientUnits="userSpaceOnUse"
   x1="345.34421"
   y1="145.603"
   x2="791.20331"
   y2="145.603">
	<stop
   offset="0"
   style="stop-color:#AE8626"
   id="stop41" />
	<stop
   offset="0.25"
   style="stop-color:#F6D77D"
   id="stop42" />
	<stop
   offset="0.5"
   style="stop-color:#D2AC47"
   id="stop43" />
	<stop
   offset="0.75"
   style="stop-color:#EDC968"
   id="stop44" />
	<stop
   offset="1"
   style="stop-color:#AE8626"
   id="stop45" />
</linearGradient>
<path
   style="fill:#ffffff;fill-opacity:1"
   d="m 478.723,137.622 v 2.579 h 4.264 v 13.383 h 3.198 v -13.383 h 4.264 v -2.579 z"
   id="path45" />
<linearGradient
   id="SVGID_00000106148340642113750390000010834048961546324132_"
   gradientUnits="userSpaceOnUse"
   x1="345.5083"
   y1="145.58859"
   x2="790.85217"
   y2="145.58859">
	<stop
   offset="0"
   style="stop-color:#AE8626"
   id="stop46" />
	<stop
   offset="0.25"
   style="stop-color:#F6D77D"
   id="stop47" />
	<stop
   offset="0.5"
   style="stop-color:#D2AC47"
   id="stop48" />
	<stop
   offset="0.75"
   style="stop-color:#EDC968"
   id="stop49" />
	<stop
   offset="1"
   style="stop-color:#AE8626"
   id="stop50" />
</linearGradient>
<path
   style="fill:#ffffff;fill-opacity:1"
   d="m 503.775,137.593 h -3.731 l -5.748,15.991 h 3.357 l 1.052,-3.04 h 6.367 l 1.052,3.04 h 3.385 z m -4.192,10.387 2.305,-6.684 2.319,6.684 z"
   id="path50" />
<linearGradient
   id="SVGID_00000140709033525228137250000005851935198500689060_"
   gradientUnits="userSpaceOnUse"
   x1="345.37881"
   y1="145.603"
   x2="791.07397"
   y2="145.603">
	<stop
   offset="0"
   style="stop-color:#AE8626"
   id="stop51" />
	<stop
   offset="0.25"
   style="stop-color:#F6D77D"
   id="stop52" />
	<stop
   offset="0.5"
   style="stop-color:#D2AC47"
   id="stop53" />
	<stop
   offset="0.75"
   style="stop-color:#EDC968"
   id="stop54" />
	<stop
   offset="1"
   style="stop-color:#AE8626"
   id="stop55" />
</linearGradient>
<path
   style="fill:#ffffff;fill-opacity:1"
   d="m 519.117,151.049 v -13.427 h -3.198 v 15.962 h 8.471 v -2.535 z"
   id="path55" />
<linearGradient
   id="SVGID_00000062161212133392112110000004026674278505885618_"
   gradientUnits="userSpaceOnUse"
   x1="345.4169"
   y1="145.5743"
   x2="790.99799"
   y2="145.5743">
	<stop
   offset="0"
   style="stop-color:#AE8626"
   id="stop56" />
	<stop
   offset="0.25"
   style="stop-color:#F6D77D"
   id="stop57" />
	<stop
   offset="0.5"
   style="stop-color:#D2AC47"
   id="stop58" />
	<stop
   offset="0.75"
   style="stop-color:#EDC968"
   id="stop59" />
	<stop
   offset="1"
   style="stop-color:#AE8626"
   id="stop60" />
</linearGradient>
<path
   style="fill:#ffffff;fill-opacity:1"
   d="m 541.245,146.568 c -0.475,-0.62 -1.037,-1.066 -1.7,-1.383 -0.663,-0.302 -1.498,-0.605 -2.536,-0.907 -0.763,-0.23 -1.354,-0.432 -1.772,-0.605 -0.432,-0.173 -0.778,-0.403 -1.066,-0.691 -0.274,-0.274 -0.418,-0.634 -0.418,-1.066 0,-0.605 0.187,-1.066 0.562,-1.397 0.375,-0.317 0.879,-0.475 1.498,-0.475 0.72,0 1.297,0.173 1.729,0.533 0.432,0.36 0.663,0.821 0.692,1.368 h 3.529 c -0.101,-1.441 -0.677,-2.55 -1.7,-3.356 -1.037,-0.792 -2.377,-1.196 -4.019,-1.196 -1.095,0 -2.075,0.187 -2.925,0.562 -0.864,0.375 -1.527,0.908 -2.002,1.614 -0.461,0.692 -0.706,1.527 -0.706,2.463 0,1.008 0.23,1.815 0.706,2.42 0.461,0.605 1.023,1.052 1.671,1.354 0.648,0.288 1.484,0.591 2.521,0.893 0.763,0.216 1.369,0.418 1.801,0.591 0.432,0.173 0.792,0.418 1.081,0.72 0.288,0.303 0.432,0.691 0.432,1.167 0,0.576 -0.202,1.052 -0.634,1.412 -0.432,0.346 -1.008,0.533 -1.758,0.533 -0.735,0 -1.311,-0.187 -1.729,-0.576 -0.418,-0.374 -0.663,-0.893 -0.706,-1.556 h -3.429 c 0.014,0.98 0.288,1.829 0.807,2.536 0.519,0.72 1.224,1.267 2.118,1.657 0.879,0.375 1.887,0.576 2.996,0.576 1.181,0 2.19,-0.23 3.054,-0.663 0.85,-0.432 1.498,-1.008 1.945,-1.743 0.432,-0.735 0.663,-1.527 0.663,-2.377 10e-4,-0.996 -0.244,-1.803 -0.705,-2.408 z"
   id="path60" />
<linearGradient
   id="SVGID_00000103223273915479393460000007317418263393987480_"
   gradientUnits="userSpaceOnUse"
   x1="345.2114"
   y1="145.58859"
   x2="791.19452"
   y2="145.58859">
	<stop
   offset="0"
   style="stop-color:#AE8626"
   id="stop61" />
	<stop
   offset="0.25"
   style="stop-color:#F6D77D"
   id="stop62" />
	<stop
   offset="0.5"
   style="stop-color:#D2AC47"
   id="stop63" />
	<stop
   offset="0.75"
   style="stop-color:#EDC968"
   id="stop64" />
	<stop
   offset="1"
   style="stop-color:#AE8626"
   id="stop65" />
</linearGradient>
<path
   style="fill:#ffffff;fill-opacity:1"
   d="m 568.588,140.201 v -2.608 h -9.278 v 15.991 h 9.278 v -2.608 h -6.065 v -4.235 h 5.373 v -2.536 h -5.373 V 140.2 h 6.065 z"
   id="path65" />
<linearGradient
   id="SVGID_00000016797665531142082150000001362861572530582971_"
   gradientUnits="userSpaceOnUse"
   x1="345.45111"
   y1="145.603"
   x2="790.95319"
   y2="145.603">
	<stop
   offset="0"
   style="stop-color:#AE8626"
   id="stop66" />
	<stop
   offset="0.25"
   style="stop-color:#F6D77D"
   id="stop67" />
	<stop
   offset="0.5"
   style="stop-color:#D2AC47"
   id="stop68" />
	<stop
   offset="0.75"
   style="stop-color:#EDC968"
   id="stop69" />
	<stop
   offset="1"
   style="stop-color:#AE8626"
   id="stop70" />
</linearGradient>
<path
   style="fill:#ffffff;fill-opacity:1"
   d="m 583.83,145.646 5.013,-8.024 h -3.616 l -3.112,5.345 -3.457,-5.345 h -3.674 l 5.1,7.909 -5.042,8.053 h 3.616 l 3.141,-5.374 3.457,5.374 h 3.688 z"
   id="path70" />
<linearGradient
   id="SVGID_00000058583961182723317830000007417105856949653913_"
   gradientUnits="userSpaceOnUse"
   x1="345.54568"
   y1="145.56709"
   x2="790.86792"
   y2="145.56709">
	<stop
   offset="0"
   style="stop-color:#AE8626"
   id="stop71" />
	<stop
   offset="0.25"
   style="stop-color:#F6D77D"
   id="stop72" />
	<stop
   offset="0.5"
   style="stop-color:#D2AC47"
   id="stop73" />
	<stop
   offset="0.75"
   style="stop-color:#EDC968"
   id="stop74" />
	<stop
   offset="1"
   style="stop-color:#AE8626"
   id="stop75" />
</linearGradient>
<path
   style="fill:#ffffff;fill-opacity:1"
   d="m 604.589,150.285 c -0.663,0.389 -1.426,0.576 -2.291,0.576 -0.936,0 -1.758,-0.216 -2.492,-0.648 -0.72,-0.432 -1.282,-1.052 -1.685,-1.858 -0.403,-0.792 -0.605,-1.714 -0.605,-2.781 0,-1.066 0.202,-1.988 0.605,-2.78 0.403,-0.792 0.965,-1.412 1.685,-1.844 0.735,-0.432 1.556,-0.648 2.492,-0.648 0.864,0 1.628,0.187 2.291,0.562 0.663,0.389 1.181,0.951 1.556,1.714 h 3.674 c -0.533,-1.613 -1.469,-2.881 -2.809,-3.789 -1.34,-0.922 -2.91,-1.383 -4.696,-1.383 -1.527,0 -2.896,0.36 -4.12,1.052 -1.239,0.692 -2.204,1.657 -2.91,2.896 -0.706,1.253 -1.066,2.651 -1.066,4.221 0,1.585 0.36,2.982 1.066,4.221 0.706,1.239 1.671,2.19 2.91,2.896 1.225,0.692 2.593,1.037 4.12,1.037 1.801,0 3.371,-0.461 4.711,-1.369 1.325,-0.908 2.262,-2.175 2.795,-3.803 h -3.674 c -0.376,0.763 -0.894,1.339 -1.557,1.728 z"
   id="path75" />
<linearGradient
   id="SVGID_00000089560531626595660010000011042352392393671584_"
   gradientUnits="userSpaceOnUse"
   x1="345.37079"
   y1="145.603"
   x2="790.98273"
   y2="145.603">
	<stop
   offset="0"
   style="stop-color:#AE8626"
   id="stop76" />
	<stop
   offset="0.25"
   style="stop-color:#F6D77D"
   id="stop77" />
	<stop
   offset="0.5"
   style="stop-color:#D2AC47"
   id="stop78" />
	<stop
   offset="0.75"
   style="stop-color:#EDC968"
   id="stop79" />
	<stop
   offset="1"
   style="stop-color:#AE8626"
   id="stop80" />
</linearGradient>
<path
   style="fill:#ffffff;fill-opacity:1"
   d="m 626.976,137.622 v 6.569 h -6.843 v -6.569 h -3.213 v 15.962 h 3.213 v -6.785 h 6.843 v 6.785 h 3.198 v -15.962 z"
   id="path80" />
<linearGradient
   id="SVGID_00000109014730230629708980000006496020967302873247_"
   gradientUnits="userSpaceOnUse"
   x1="345.55951"
   y1="145.58859"
   x2="790.8847"
   y2="145.58859">
	<stop
   offset="0"
   style="stop-color:#AE8626"
   id="stop81" />
	<stop
   offset="0.25"
   style="stop-color:#F6D77D"
   id="stop82" />
	<stop
   offset="0.5"
   style="stop-color:#D2AC47"
   id="stop83" />
	<stop
   offset="0.75"
   style="stop-color:#EDC968"
   id="stop84" />
	<stop
   offset="1"
   style="stop-color:#AE8626"
   id="stop85" />
</linearGradient>
<path
   style="fill:#ffffff;fill-opacity:1"
   d="m 646.05,137.593 h -3.717 l -5.748,15.991 h 3.357 l 1.052,-3.04 h 6.367 l 1.052,3.04 h 3.386 z m -4.178,10.387 2.305,-6.684 2.319,6.684 z"
   id="path85" />
<linearGradient
   id="SVGID_00000147935156032153700680000011586737633334227072_"
   gradientUnits="userSpaceOnUse"
   x1="345.56161"
   y1="145.58859"
   x2="790.89178"
   y2="145.58859">
	<stop
   offset="0"
   style="stop-color:#AE8626"
   id="stop86" />
	<stop
   offset="0.25"
   style="stop-color:#F6D77D"
   id="stop87" />
	<stop
   offset="0.5"
   style="stop-color:#D2AC47"
   id="stop88" />
	<stop
   offset="0.75"
   style="stop-color:#EDC968"
   id="stop89" />
	<stop
   offset="1"
   style="stop-color:#AE8626"
   id="stop90" />
</linearGradient>
<path
   style="fill:#ffffff;fill-opacity:1"
   d="m 668.667,137.593 v 10.992 l -7.261,-10.992 h -3.198 v 15.991 h 3.198 v -10.949 l 7.261,10.949 h 3.198 v -15.991 z"
   id="path90" />
<linearGradient
   id="SVGID_00000026842878490254122860000009815375259289663625_"
   gradientUnits="userSpaceOnUse"
   x1="345.36761"
   y1="145.56709"
   x2="790.95581"
   y2="145.56709">
	<stop
   offset="0"
   style="stop-color:#AE8626"
   id="stop91" />
	<stop
   offset="0.25"
   style="stop-color:#F6D77D"
   id="stop92" />
	<stop
   offset="0.5"
   style="stop-color:#D2AC47"
   id="stop93" />
	<stop
   offset="0.75"
   style="stop-color:#EDC968"
   id="stop94" />
	<stop
   offset="1"
   style="stop-color:#AE8626"
   id="stop95" />
</linearGradient>
<path
   style="fill:#ffffff;fill-opacity:1"
   d="m 686.214,144.71 v 2.449 h 5.489 c -0.245,1.167 -0.749,2.06 -1.527,2.708 -0.778,0.648 -1.786,0.98 -3.011,0.98 -0.98,0 -1.858,-0.216 -2.607,-0.649 -0.735,-0.418 -1.325,-1.037 -1.743,-1.829 -0.418,-0.792 -0.634,-1.715 -0.634,-2.795 0,-1.037 0.202,-1.945 0.62,-2.737 0.418,-0.792 0.98,-1.412 1.714,-1.83 0.735,-0.432 1.57,-0.648 2.521,-0.648 0.85,0 1.599,0.187 2.247,0.533 0.634,0.346 1.138,0.865 1.498,1.527 h 3.688 c -0.504,-1.585 -1.412,-2.809 -2.737,-3.688 -1.34,-0.879 -2.896,-1.325 -4.696,-1.325 -1.527,0 -2.91,0.36 -4.149,1.052 -1.253,0.692 -2.219,1.657 -2.939,2.896 -0.706,1.253 -1.066,2.651 -1.066,4.221 0,1.585 0.36,2.982 1.066,4.221 0.72,1.239 1.685,2.19 2.939,2.896 1.239,0.692 2.636,1.037 4.178,1.037 1.369,0 2.607,-0.288 3.717,-0.864 1.095,-0.562 2.002,-1.326 2.708,-2.276 0.706,-0.936 1.152,-1.973 1.369,-3.083 v -2.795 h -8.645 z"
   id="path95" />
<linearGradient
   id="SVGID_00000153670868843727945570000003244941861234279052_"
   gradientUnits="userSpaceOnUse"
   x1="345.06641"
   y1="145.58859"
   x2="791.02307"
   y2="145.58859">
	<stop
   offset="0"
   style="stop-color:#AE8626"
   id="stop96" />
	<stop
   offset="0.25"
   style="stop-color:#F6D77D"
   id="stop97" />
	<stop
   offset="0.5"
   style="stop-color:#D2AC47"
   id="stop98" />
	<stop
   offset="0.75"
   style="stop-color:#EDC968"
   id="stop99" />
	<stop
   offset="1"
   style="stop-color:#AE8626"
   id="stop100" />
</linearGradient>
<path
   style="fill:#ffffff;fill-opacity:1"
   d="m 711.209,140.201 v -2.608 h -9.278 v 15.991 h 9.278 v -2.608 h -6.065 v -4.235 h 5.373 v -2.536 h -5.373 V 140.2 h 6.065 z"
   id="path100" />
<linearGradient
   id="SVGID_00000148630302048098093820000017896620500067607221_"
   gradientUnits="userSpaceOnUse"
   x1="345.46649"
   y1="145.5692"
   x2="790.92987"
   y2="145.5692">
	<stop
   offset="0"
   style="stop-color:#AE8626"
   id="stop101" />
	<stop
   offset="0.25"
   style="stop-color:#F6D77D"
   id="stop102" />
	<stop
   offset="0.5"
   style="stop-color:#D2AC47"
   id="stop103" />
	<stop
   offset="0.75"
   style="stop-color:#EDC968"
   id="stop104" />
	<stop
   offset="1"
   style="stop-color:#AE8626"
   id="stop105" />
</linearGradient>
<rect
   x="347.992"
   y="144.60201"
   style="fill:#ffffff;fill-opacity:1"
   width="79.308998"
   height="1.934"
   id="rect105" />
<linearGradient
   id="SVGID_00000052070929329488477720000012829153650119020733_"
   gradientUnits="userSpaceOnUse"
   x1="345.46591"
   y1="145.5692"
   x2="790.93048"
   y2="145.5692">
	<stop
   offset="0"
   style="stop-color:#AE8626"
   id="stop106" />
	<stop
   offset="0.25"
   style="stop-color:#F6D77D"
   id="stop107" />
	<stop
   offset="0.5"
   style="stop-color:#D2AC47"
   id="stop108" />
	<stop
   offset="0.75"
   style="stop-color:#EDC968"
   id="stop109" />
	<stop
   offset="1"
   style="stop-color:#AE8626"
   id="stop110" />
</linearGradient>
<rect
   x="722.78601"
   y="144.60201"
   style="fill:#ffffff;fill-opacity:1"
   width="79.309998"
   height="1.934"
   id="rect110" />
<linearGradient
   id="SVGID_00000117638038791565034300000012060668209743364279_"
   gradientUnits="userSpaceOnUse"
   x1="115.2419"
   y1="-52.729401"
   x2="115.2419"
   y2="271.5867">
	<stop
   offset="0"
   style="stop-color:#AE8626"
   id="stop111" />
	<stop
   offset="1"
   style="stop-color:#F6D77D"
   id="stop112" />
</linearGradient>
<path
   style="fill:#ffffff;fill-opacity:1"
   d="m 23.216,160.205 h -0.377 v 1.872 H 78.957 V 30.582 c 10.475,0.559 37.221,14.218 56.858,28.059 2.151,1.522 4.246,3.073 6.271,4.637 0.167,0.14 0.349,0.265 0.517,0.405 0.056,0.028 0.098,0.07 0.14,0.098 2.723,2.109 5.307,4.246 7.765,6.383 1.132,0.978 2.221,1.969 3.296,2.961 0.098,0.084 0.195,0.181 0.307,0.279 1.09,1.006 2.151,2.025 3.185,3.058 2.248,2.235 4.371,4.469 6.341,6.704 1.97,2.221 3.785,4.469 5.461,6.718 0.726,0.978 1.438,1.955 2.095,2.933 0,0.014 0.014,0.028 0.014,0.028 11.187,16.229 14.176,31.998 7.067,44.358 -0.936,1.592 -2.011,3.1 -3.254,4.539 1.564,1.103 3.296,2.081 5.139,2.975 1.509,0.726 3.059,1.382 4.651,1.955 14.511,-10.908 22.835,-27.123 22.835,-46.886 0,-13.729 -4.05,-26.062 -11.536,-36.509 C 189.573,54.129 180.438,46.433 169.098,40.498 152.394,31.741 130.927,26.839 106.08,26.839 H 22.839 v 1.872 h 0.377 c 10.279,0 17.011,6.732 17.011,17.025 v 97.445 c 0.001,10.292 -6.731,17.024 -17.011,17.024 z"
   id="path112" />
<linearGradient
   id="SVGID_00000134937415522862738090000017846900627543095984_"
   gradientUnits="userSpaceOnUse"
   x1="246.6534"
   y1="-52.729401"
   x2="246.6534"
   y2="271.5867">
	<stop
   offset="0"
   style="stop-color:#AE8626"
   id="stop113" />
	<stop
   offset="1"
   style="stop-color:#F6D77D"
   id="stop114" />
</linearGradient>
<path
   style="fill:#ffffff;fill-opacity:1"
   d="m 314.964,28.71 h 0.377 V 26.838 H 232.1 c -20.643,0 -38.953,3.38 -54.135,9.567 10.056,6.047 18.296,13.491 24.512,22.165 19.623,-13.827 46.285,-27.43 56.746,-27.989 v 131.495 h 56.118 v -1.872 h -0.377 c -10.28,0 -17.025,-6.732 -17.025,-17.025 V 45.735 c 0,-10.293 6.745,-17.025 17.025,-17.025 z"
   id="path114" />
<linearGradient
   id="SVGID_00000075874877011764675090000008192411483502522790_"
   gradientUnits="userSpaceOnUse"
   x1="190.47279"
   y1="-52.7295"
   x2="190.47279"
   y2="271.5867">
	<stop
   offset="0"
   style="stop-color:#AE8626"
   id="stop115" />
	<stop
   offset="1"
   style="stop-color:#F6D77D"
   id="stop116" />
</linearGradient>
<path
   style="fill:#ffffff;fill-opacity:1"
   d="m 249.668,101.443 c -5.986,35.768 -23.946,50.948 -40.971,55.077 -9.183,1.895 -17.797,0.159 -20.6,-0.529 -0.668,-0.177 -1.336,-0.354 -1.988,-0.548 -3.352,-0.977 -6.48,-2.192 -9.372,-3.589 -2.793,-1.341 -5.349,-2.877 -7.64,-4.595 -2.235,-1.676 -4.218,-3.506 -5.922,-5.503 -1.243,-1.439 -2.333,-2.961 -3.268,-4.553 -6.523,-11.341 -4.539,-25.545 4.469,-40.35 -0.559,-0.796 -1.104,-1.536 -1.62,-2.235 -6.202,-8.31 -14.568,-16.578 -24.875,-24.581 -4.791,8.869 -7.347,18.869 -7.347,29.749 0,19.777 8.324,35.978 22.849,46.886 2.5,1.885 5.196,3.617 8.058,5.182 2.417,1.341 4.972,2.542 7.64,3.617 3.478,1.397 7.151,2.598 11.006,3.561 3.876,0.976 7.942,1.721 12.178,2.232 -10e-4,0.002 -0.003,0.002 -0.004,0.004 0.029,0.003 0.061,0.005 0.09,0.008 4.406,0.528 8.995,0.801 13.756,0.801 h 44.302 v -0.381 -11.854 -48.347 c 0.001,-0.462 -0.665,-0.508 -0.741,-0.052 z"
   id="path116" />
<linearGradient
   id="SVGID_00000132090101286243073470000016766119288640314535_"
   gradientUnits="userSpaceOnUse"
   x1="122.9237"
   y1="101.1239"
   x2="122.9237"
   y2="162.0715">
	<stop
   offset="0"
   style="stop-color:#AE8626"
   id="stop117" />
	<stop
   offset="1"
   style="stop-color:#F6D77D"
   id="stop118" />
</linearGradient>
<path
   style="fill:#ffffff;fill-opacity:1"
   d="m 158.564,158.772 c -1.838,-0.996 -3.648,-2.088 -5.378,-3.235 -0.089,-0.059 -0.193,-0.076 -0.296,-0.046 -15.815,4.614 -55.944,2.094 -65.341,-54.048 -0.076,-0.456 -0.742,-0.409 -0.742,0.053 v 60.201 c 0,0.207 0.168,0.375 0.375,0.375 h 45.854 c 9.364,0 18.08,-1.052 26.003,-3.039 -0.143,-0.073 -0.316,-0.174 -0.475,-0.261 z"
   id="path118" />
</svg>
