<?xml version="1.0" encoding="iso-8859-1"?>
<!-- Generator: Adobe Illustrator 25.4.1, SVG Export Plug-In . SVG Version: 6.00 Build 0)  -->
<svg version="1.1" id="Layer_1" xmlns="http://www.w3.org/2000/svg" xmlns:xlink="http://www.w3.org/1999/xlink" x="0px" y="0px"
	 viewBox="0 0 841.89 185.669" style="enable-background:new 0 0 841.89 185.669;" xml:space="preserve">
<linearGradient id="SVGID_1_" gradientUnits="userSpaceOnUse" x1="345.4611" y1="82.6123" x2="790.9762" y2="82.6123">
	<stop  offset="0" style="stop-color:#AE8626"/>
	<stop  offset="0.25" style="stop-color:#F6D77D"/>
	<stop  offset="0.5" style="stop-color:#D2AC47"/>
	<stop  offset="0.75" style="stop-color:#EDC968"/>
	<stop  offset="1" style="stop-color:#AE8626"/>
</linearGradient>
<path style="fill:url(#SVGID_1_);" d="M409.674,62.624c-3.299-5.763-7.981-10.214-14.046-13.326
	c-6.065-3.126-13.081-4.682-21.076-4.682h-26.565v75.992h26.565c7.995,0,15.011-1.556,21.076-4.682
	c6.065-3.112,10.747-7.534,14.046-13.225c3.299-5.705,4.956-12.36,4.956-19.981C414.63,75.099,412.973,68.401,409.674,62.624z
	 M392.531,101.117c-4.365,4.351-10.531,6.541-18.512,6.541h-10.79V57.452h10.79c7.981,0,14.147,2.233,18.512,6.699
	c4.351,4.466,6.526,10.661,6.526,18.57C399.057,90.629,396.881,96.766,392.531,101.117z"/>
<linearGradient id="SVGID_00000066476263071791226820000006325080020683463610_" gradientUnits="userSpaceOnUse" x1="345.47" y1="82.4466" x2="790.9424" y2="82.4466">
	<stop  offset="0" style="stop-color:#AE8626"/>
	<stop  offset="0.25" style="stop-color:#F6D77D"/>
	<stop  offset="0.5" style="stop-color:#D2AC47"/>
	<stop  offset="0.75" style="stop-color:#EDC968"/>
	<stop  offset="1" style="stop-color:#AE8626"/>
</linearGradient>
<path style="fill:url(#SVGID_00000066476263071791226820000006325080020683463610_);" d="M493.158,62.408
	c-3.457-5.906-8.139-10.531-14.046-13.873c-5.921-3.342-12.476-5.013-19.664-5.013c-7.102,0-13.643,1.671-19.592,5.013
	c-5.95,3.342-10.675,7.967-14.161,13.873c-3.472,5.921-5.215,12.576-5.215,19.981c0,7.477,1.743,14.176,5.215,20.097
	c3.486,5.906,8.211,10.545,14.161,13.873c5.95,3.342,12.49,5.014,19.592,5.014c7.117,0,13.657-1.671,19.607-5.014
	c5.95-3.328,10.646-7.966,14.104-13.873c3.443-5.921,5.172-12.62,5.172-20.097C498.329,74.984,496.601,68.329,493.158,62.408z
	 M479.702,95.787c-1.959,3.846-4.682,6.8-8.168,8.874c-3.486,2.06-7.506,3.097-12.087,3.097c-4.567,0-8.615-1.037-12.13-3.097
	c-3.53-2.075-6.267-5.028-8.226-8.874c-1.959-3.846-2.939-8.312-2.939-13.398c0-5.071,0.98-9.522,2.939-13.34
	c1.959-3.804,4.696-6.728,8.226-8.759c3.515-2.031,7.563-3.054,12.13-3.054c4.581,0,8.6,1.023,12.087,3.054
	c3.486,2.031,6.209,4.956,8.168,8.759c1.959,3.817,2.939,8.269,2.939,13.34C482.641,87.474,481.661,91.94,479.702,95.787z"/>
<linearGradient id="SVGID_00000167373397569395202340000015990541029011120778_" gradientUnits="userSpaceOnUse" x1="345.4823" y1="82.6123" x2="790.9189" y2="82.6123">
	<stop  offset="0" style="stop-color:#AE8626"/>
	<stop  offset="0.25" style="stop-color:#F6D77D"/>
	<stop  offset="0.5" style="stop-color:#D2AC47"/>
	<stop  offset="0.75" style="stop-color:#EDC968"/>
	<stop  offset="1" style="stop-color:#AE8626"/>
</linearGradient>
<path style="fill:url(#SVGID_00000167373397569395202340000015990541029011120778_);" d="M547.094,89.794
	c5.734-1.527,10.041-4.293,12.951-8.327c2.896-4.034,4.351-8.543,4.351-13.556c0-4.351-1.023-8.298-3.097-11.813
	c-2.074-3.515-5.172-6.31-9.306-8.384c-4.135-2.074-9.148-3.097-15.026-3.097h-28.524v75.992h15.242V90.989h7.189l16.754,29.619
	h17.648L547.094,89.794z M536.419,79.565h-12.735V57.236h12.735c4.135,0,7.218,0.965,9.249,2.896
	c2.031,1.916,3.054,4.624,3.054,8.111c0,3.558-1.023,6.324-3.054,8.327C543.637,78.571,540.554,79.565,536.419,79.565z"/>
<linearGradient id="SVGID_00000068662863737573991640000002629425437574817209_" gradientUnits="userSpaceOnUse" x1="345.4624" y1="82.5547" x2="790.9216" y2="82.5547">
	<stop  offset="0" style="stop-color:#AE8626"/>
	<stop  offset="0.25" style="stop-color:#F6D77D"/>
	<stop  offset="0.5" style="stop-color:#D2AC47"/>
	<stop  offset="0.75" style="stop-color:#EDC968"/>
	<stop  offset="1" style="stop-color:#AE8626"/>
</linearGradient>
<path style="fill:url(#SVGID_00000068662863737573991640000002629425437574817209_);" d="M616.373,44.501h-17.748l-27.328,76.108
	h16.005l5.013-14.478h30.267l5.013,14.478h16.106L616.373,44.501z M596.449,93.928l11.006-31.794l10.992,31.794H596.449z"/>
<linearGradient id="SVGID_00000101792942947088631210000008016640734163857543_" gradientUnits="userSpaceOnUse" x1="345.4958" y1="82.6123" x2="790.9194" y2="82.6123">
	<stop  offset="0" style="stop-color:#AE8626"/>
	<stop  offset="0.25" style="stop-color:#F6D77D"/>
	<stop  offset="0.5" style="stop-color:#D2AC47"/>
	<stop  offset="0.75" style="stop-color:#EDC968"/>
	<stop  offset="1" style="stop-color:#AE8626"/>
</linearGradient>
<path style="fill:url(#SVGID_00000101792942947088631210000008016640734163857543_);" d="M712.361,62.624
	c-3.299-5.763-7.981-10.214-14.046-13.326c-6.051-3.126-13.081-4.682-21.062-4.682h-26.565v75.992h26.565
	c7.981,0,15.011-1.556,21.062-4.682c6.065-3.112,10.747-7.534,14.046-13.225c3.313-5.705,4.956-12.36,4.956-19.981
	C717.317,75.099,715.675,68.401,712.361,62.624z M695.218,101.117c-4.351,4.351-10.531,6.541-18.512,6.541H665.93V57.452h10.776
	c7.981,0,14.161,2.233,18.512,6.699c4.351,4.466,6.526,10.661,6.526,18.57C701.744,90.629,699.569,96.766,695.218,101.117z"/>
<linearGradient id="SVGID_00000173131982193895427800000011471824992712479398_" gradientUnits="userSpaceOnUse" x1="345.4611" y1="82.4466" x2="790.9296" y2="82.4466">
	<stop  offset="0" style="stop-color:#AE8626"/>
	<stop  offset="0.25" style="stop-color:#F6D77D"/>
	<stop  offset="0.5" style="stop-color:#D2AC47"/>
	<stop  offset="0.75" style="stop-color:#EDC968"/>
	<stop  offset="1" style="stop-color:#AE8626"/>
</linearGradient>
<path style="fill:url(#SVGID_00000173131982193895427800000011471824992712479398_);" d="M795.845,62.408
	c-3.443-5.906-8.125-10.531-14.046-13.873c-5.921-3.342-12.461-5.013-19.65-5.013c-7.117,0-13.657,1.671-19.607,5.013
	c-5.95,3.342-10.66,7.967-14.147,13.873c-3.486,5.921-5.229,12.576-5.229,19.981c0,7.477,1.743,14.176,5.229,20.097
	c3.486,5.906,8.197,10.545,14.147,13.873c5.95,3.342,12.49,5.014,19.607,5.014c7.117,0,13.643-1.671,19.592-5.014
	c5.95-3.328,10.661-7.966,14.104-13.873c3.443-5.921,5.172-12.62,5.172-20.097C801.017,74.984,799.288,68.329,795.845,62.408z
	 M782.404,95.787c-1.959,3.846-4.682,6.8-8.168,8.874c-3.486,2.06-7.52,3.097-12.087,3.097c-4.581,0-8.629-1.037-12.144-3.097
	c-3.515-2.075-6.252-5.028-8.211-8.874c-1.974-3.846-2.953-8.312-2.953-13.398c0-5.071,0.98-9.522,2.953-13.34
	c1.959-3.804,4.696-6.728,8.211-8.759c3.515-2.031,7.563-3.054,12.144-3.054c4.567,0,8.601,1.023,12.087,3.054
	c3.486,2.031,6.209,4.956,8.168,8.759c1.959,3.817,2.939,8.269,2.939,13.34C785.343,87.474,784.363,91.94,782.404,95.787z"/>
<linearGradient id="SVGID_00000019675041519113709710000014363950727951626650_" gradientUnits="userSpaceOnUse" x1="345.5302" y1="145.603" x2="790.7061" y2="145.603">
	<stop  offset="0" style="stop-color:#AE8626"/>
	<stop  offset="0.25" style="stop-color:#F6D77D"/>
	<stop  offset="0.5" style="stop-color:#D2AC47"/>
	<stop  offset="0.75" style="stop-color:#EDC968"/>
	<stop  offset="1" style="stop-color:#AE8626"/>
</linearGradient>
<path style="fill:url(#SVGID_00000019675041519113709710000014363950727951626650_);" d="M451.61,137.622l-5.085,11.871
	l-5.085-11.871h-3.63v15.962h3.198v-10.387l4.307,10.387h2.42l4.279-10.387v10.387h3.198v-15.962H451.61z"/>
<linearGradient id="SVGID_00000170264439068742007540000001727759803158993541_" gradientUnits="userSpaceOnUse" x1="345.3317" y1="145.5886" x2="791.2834" y2="145.5886">
	<stop  offset="0" style="stop-color:#AE8626"/>
	<stop  offset="0.25" style="stop-color:#F6D77D"/>
	<stop  offset="0.5" style="stop-color:#D2AC47"/>
	<stop  offset="0.75" style="stop-color:#EDC968"/>
	<stop  offset="1" style="stop-color:#AE8626"/>
</linearGradient>
<path style="fill:url(#SVGID_00000170264439068742007540000001727759803158993541_);" d="M472.369,140.201v-2.608h-9.277v15.991
	h9.277v-2.608h-6.065v-4.235h5.373v-2.536h-5.373v-4.005H472.369z"/>
<linearGradient id="SVGID_00000020390603752222115310000004455792724911446931_" gradientUnits="userSpaceOnUse" x1="345.3442" y1="145.603" x2="791.2033" y2="145.603">
	<stop  offset="0" style="stop-color:#AE8626"/>
	<stop  offset="0.25" style="stop-color:#F6D77D"/>
	<stop  offset="0.5" style="stop-color:#D2AC47"/>
	<stop  offset="0.75" style="stop-color:#EDC968"/>
	<stop  offset="1" style="stop-color:#AE8626"/>
</linearGradient>
<path style="fill:url(#SVGID_00000020390603752222115310000004455792724911446931_);" d="M478.723,137.622v2.579h4.264v13.383h3.198
	v-13.383h4.264v-2.579H478.723z"/>
<linearGradient id="SVGID_00000106148340642113750390000010834048961546324132_" gradientUnits="userSpaceOnUse" x1="345.5083" y1="145.5886" x2="790.8522" y2="145.5886">
	<stop  offset="0" style="stop-color:#AE8626"/>
	<stop  offset="0.25" style="stop-color:#F6D77D"/>
	<stop  offset="0.5" style="stop-color:#D2AC47"/>
	<stop  offset="0.75" style="stop-color:#EDC968"/>
	<stop  offset="1" style="stop-color:#AE8626"/>
</linearGradient>
<path style="fill:url(#SVGID_00000106148340642113750390000010834048961546324132_);" d="M503.775,137.593h-3.731l-5.748,15.991
	h3.357l1.052-3.04h6.367l1.052,3.04h3.385L503.775,137.593z M499.583,147.98l2.305-6.684l2.319,6.684H499.583z"/>
<linearGradient id="SVGID_00000140709033525228137250000005851935198500689060_" gradientUnits="userSpaceOnUse" x1="345.3788" y1="145.603" x2="791.074" y2="145.603">
	<stop  offset="0" style="stop-color:#AE8626"/>
	<stop  offset="0.25" style="stop-color:#F6D77D"/>
	<stop  offset="0.5" style="stop-color:#D2AC47"/>
	<stop  offset="0.75" style="stop-color:#EDC968"/>
	<stop  offset="1" style="stop-color:#AE8626"/>
</linearGradient>
<path style="fill:url(#SVGID_00000140709033525228137250000005851935198500689060_);" d="M519.117,151.049v-13.427h-3.198v15.962
	h8.471v-2.535H519.117z"/>
<linearGradient id="SVGID_00000062161212133392112110000004026674278505885618_" gradientUnits="userSpaceOnUse" x1="345.4169" y1="145.5743" x2="790.998" y2="145.5743">
	<stop  offset="0" style="stop-color:#AE8626"/>
	<stop  offset="0.25" style="stop-color:#F6D77D"/>
	<stop  offset="0.5" style="stop-color:#D2AC47"/>
	<stop  offset="0.75" style="stop-color:#EDC968"/>
	<stop  offset="1" style="stop-color:#AE8626"/>
</linearGradient>
<path style="fill:url(#SVGID_00000062161212133392112110000004026674278505885618_);" d="M541.245,146.568
	c-0.475-0.62-1.037-1.066-1.7-1.383c-0.663-0.302-1.498-0.605-2.536-0.907c-0.763-0.23-1.354-0.432-1.772-0.605
	c-0.432-0.173-0.778-0.403-1.066-0.691c-0.274-0.274-0.418-0.634-0.418-1.066c0-0.605,0.187-1.066,0.562-1.397
	c0.375-0.317,0.879-0.475,1.498-0.475c0.72,0,1.297,0.173,1.729,0.533c0.432,0.36,0.663,0.821,0.692,1.368h3.529
	c-0.101-1.441-0.677-2.55-1.7-3.356c-1.037-0.792-2.377-1.196-4.019-1.196c-1.095,0-2.075,0.187-2.925,0.562
	c-0.864,0.375-1.527,0.908-2.002,1.614c-0.461,0.692-0.706,1.527-0.706,2.463c0,1.008,0.23,1.815,0.706,2.42
	c0.461,0.605,1.023,1.052,1.671,1.354c0.648,0.288,1.484,0.591,2.521,0.893c0.763,0.216,1.369,0.418,1.801,0.591
	c0.432,0.173,0.792,0.418,1.081,0.72c0.288,0.303,0.432,0.691,0.432,1.167c0,0.576-0.202,1.052-0.634,1.412
	c-0.432,0.346-1.008,0.533-1.758,0.533c-0.735,0-1.311-0.187-1.729-0.576c-0.418-0.374-0.663-0.893-0.706-1.556h-3.429
	c0.014,0.98,0.288,1.829,0.807,2.536c0.519,0.72,1.224,1.267,2.118,1.657c0.879,0.375,1.887,0.576,2.996,0.576
	c1.181,0,2.19-0.23,3.054-0.663c0.85-0.432,1.498-1.008,1.945-1.743c0.432-0.735,0.663-1.527,0.663-2.377
	C541.951,147.98,541.706,147.173,541.245,146.568z"/>
<linearGradient id="SVGID_00000103223273915479393460000007317418263393987480_" gradientUnits="userSpaceOnUse" x1="345.2114" y1="145.5886" x2="791.1945" y2="145.5886">
	<stop  offset="0" style="stop-color:#AE8626"/>
	<stop  offset="0.25" style="stop-color:#F6D77D"/>
	<stop  offset="0.5" style="stop-color:#D2AC47"/>
	<stop  offset="0.75" style="stop-color:#EDC968"/>
	<stop  offset="1" style="stop-color:#AE8626"/>
</linearGradient>
<path style="fill:url(#SVGID_00000103223273915479393460000007317418263393987480_);" d="M568.588,140.201v-2.608h-9.278v15.991
	h9.278v-2.608h-6.065v-4.235h5.373v-2.536h-5.373v-4.005H568.588z"/>
<linearGradient id="SVGID_00000016797665531142082150000001362861572530582971_" gradientUnits="userSpaceOnUse" x1="345.4511" y1="145.603" x2="790.9532" y2="145.603">
	<stop  offset="0" style="stop-color:#AE8626"/>
	<stop  offset="0.25" style="stop-color:#F6D77D"/>
	<stop  offset="0.5" style="stop-color:#D2AC47"/>
	<stop  offset="0.75" style="stop-color:#EDC968"/>
	<stop  offset="1" style="stop-color:#AE8626"/>
</linearGradient>
<path style="fill:url(#SVGID_00000016797665531142082150000001362861572530582971_);" d="M583.83,145.646l5.013-8.024h-3.616
	l-3.112,5.345l-3.457-5.345h-3.674l5.1,7.909l-5.042,8.053h3.616l3.141-5.374l3.457,5.374h3.688L583.83,145.646z"/>
<linearGradient id="SVGID_00000058583961182723317830000007417105856949653913_" gradientUnits="userSpaceOnUse" x1="345.5457" y1="145.5671" x2="790.8679" y2="145.5671">
	<stop  offset="0" style="stop-color:#AE8626"/>
	<stop  offset="0.25" style="stop-color:#F6D77D"/>
	<stop  offset="0.5" style="stop-color:#D2AC47"/>
	<stop  offset="0.75" style="stop-color:#EDC968"/>
	<stop  offset="1" style="stop-color:#AE8626"/>
</linearGradient>
<path style="fill:url(#SVGID_00000058583961182723317830000007417105856949653913_);" d="M604.589,150.285
	c-0.663,0.389-1.426,0.576-2.291,0.576c-0.936,0-1.758-0.216-2.492-0.648c-0.72-0.432-1.282-1.052-1.685-1.858
	c-0.403-0.792-0.605-1.714-0.605-2.781c0-1.066,0.202-1.988,0.605-2.78c0.403-0.792,0.965-1.412,1.685-1.844
	c0.735-0.432,1.556-0.648,2.492-0.648c0.864,0,1.628,0.187,2.291,0.562c0.663,0.389,1.181,0.951,1.556,1.714h3.674
	c-0.533-1.613-1.469-2.881-2.809-3.789c-1.34-0.922-2.91-1.383-4.696-1.383c-1.527,0-2.896,0.36-4.12,1.052
	c-1.239,0.692-2.204,1.657-2.91,2.896c-0.706,1.253-1.066,2.651-1.066,4.221c0,1.585,0.36,2.982,1.066,4.221
	c0.706,1.239,1.671,2.19,2.91,2.896c1.225,0.692,2.593,1.037,4.12,1.037c1.801,0,3.371-0.461,4.711-1.369
	c1.325-0.908,2.262-2.175,2.795-3.803h-3.674C605.77,149.32,605.252,149.896,604.589,150.285z"/>
<linearGradient id="SVGID_00000089560531626595660010000011042352392393671584_" gradientUnits="userSpaceOnUse" x1="345.3708" y1="145.603" x2="790.9827" y2="145.603">
	<stop  offset="0" style="stop-color:#AE8626"/>
	<stop  offset="0.25" style="stop-color:#F6D77D"/>
	<stop  offset="0.5" style="stop-color:#D2AC47"/>
	<stop  offset="0.75" style="stop-color:#EDC968"/>
	<stop  offset="1" style="stop-color:#AE8626"/>
</linearGradient>
<path style="fill:url(#SVGID_00000089560531626595660010000011042352392393671584_);" d="M626.976,137.622v6.569h-6.843v-6.569
	h-3.213v15.962h3.213v-6.785h6.843v6.785h3.198v-15.962H626.976z"/>
<linearGradient id="SVGID_00000109014730230629708980000006496020967302873247_" gradientUnits="userSpaceOnUse" x1="345.5595" y1="145.5886" x2="790.8847" y2="145.5886">
	<stop  offset="0" style="stop-color:#AE8626"/>
	<stop  offset="0.25" style="stop-color:#F6D77D"/>
	<stop  offset="0.5" style="stop-color:#D2AC47"/>
	<stop  offset="0.75" style="stop-color:#EDC968"/>
	<stop  offset="1" style="stop-color:#AE8626"/>
</linearGradient>
<path style="fill:url(#SVGID_00000109014730230629708980000006496020967302873247_);" d="M646.05,137.593h-3.717l-5.748,15.991
	h3.357l1.052-3.04h6.367l1.052,3.04h3.386L646.05,137.593z M641.872,147.98l2.305-6.684l2.319,6.684H641.872z"/>
<linearGradient id="SVGID_00000147935156032153700680000011586737633334227072_" gradientUnits="userSpaceOnUse" x1="345.5616" y1="145.5886" x2="790.8918" y2="145.5886">
	<stop  offset="0" style="stop-color:#AE8626"/>
	<stop  offset="0.25" style="stop-color:#F6D77D"/>
	<stop  offset="0.5" style="stop-color:#D2AC47"/>
	<stop  offset="0.75" style="stop-color:#EDC968"/>
	<stop  offset="1" style="stop-color:#AE8626"/>
</linearGradient>
<path style="fill:url(#SVGID_00000147935156032153700680000011586737633334227072_);" d="M668.667,137.593v10.992l-7.261-10.992
	h-3.198v15.991h3.198v-10.949l7.261,10.949h3.198v-15.991H668.667z"/>
<linearGradient id="SVGID_00000026842878490254122860000009815375259289663625_" gradientUnits="userSpaceOnUse" x1="345.3676" y1="145.5671" x2="790.9558" y2="145.5671">
	<stop  offset="0" style="stop-color:#AE8626"/>
	<stop  offset="0.25" style="stop-color:#F6D77D"/>
	<stop  offset="0.5" style="stop-color:#D2AC47"/>
	<stop  offset="0.75" style="stop-color:#EDC968"/>
	<stop  offset="1" style="stop-color:#AE8626"/>
</linearGradient>
<path style="fill:url(#SVGID_00000026842878490254122860000009815375259289663625_);" d="M686.214,144.71v2.449h5.489
	c-0.245,1.167-0.749,2.06-1.527,2.708c-0.778,0.648-1.786,0.98-3.011,0.98c-0.98,0-1.858-0.216-2.607-0.649
	c-0.735-0.418-1.325-1.037-1.743-1.829c-0.418-0.792-0.634-1.715-0.634-2.795c0-1.037,0.202-1.945,0.62-2.737
	c0.418-0.792,0.98-1.412,1.714-1.83c0.735-0.432,1.57-0.648,2.521-0.648c0.85,0,1.599,0.187,2.247,0.533
	c0.634,0.346,1.138,0.865,1.498,1.527h3.688c-0.504-1.585-1.412-2.809-2.737-3.688c-1.34-0.879-2.896-1.325-4.696-1.325
	c-1.527,0-2.91,0.36-4.149,1.052c-1.253,0.692-2.219,1.657-2.939,2.896c-0.706,1.253-1.066,2.651-1.066,4.221
	c0,1.585,0.36,2.982,1.066,4.221c0.72,1.239,1.685,2.19,2.939,2.896c1.239,0.692,2.636,1.037,4.178,1.037
	c1.369,0,2.607-0.288,3.717-0.864c1.095-0.562,2.002-1.326,2.708-2.276c0.706-0.936,1.152-1.973,1.369-3.083v-2.795H686.214z"/>
<linearGradient id="SVGID_00000153670868843727945570000003244941861234279052_" gradientUnits="userSpaceOnUse" x1="345.0664" y1="145.5886" x2="791.0231" y2="145.5886">
	<stop  offset="0" style="stop-color:#AE8626"/>
	<stop  offset="0.25" style="stop-color:#F6D77D"/>
	<stop  offset="0.5" style="stop-color:#D2AC47"/>
	<stop  offset="0.75" style="stop-color:#EDC968"/>
	<stop  offset="1" style="stop-color:#AE8626"/>
</linearGradient>
<path style="fill:url(#SVGID_00000153670868843727945570000003244941861234279052_);" d="M711.209,140.201v-2.608h-9.278v15.991
	h9.278v-2.608h-6.065v-4.235h5.373v-2.536h-5.373v-4.005H711.209z"/>
<linearGradient id="SVGID_00000148630302048098093820000017896620500067607221_" gradientUnits="userSpaceOnUse" x1="345.4665" y1="145.5692" x2="790.9299" y2="145.5692">
	<stop  offset="0" style="stop-color:#AE8626"/>
	<stop  offset="0.25" style="stop-color:#F6D77D"/>
	<stop  offset="0.5" style="stop-color:#D2AC47"/>
	<stop  offset="0.75" style="stop-color:#EDC968"/>
	<stop  offset="1" style="stop-color:#AE8626"/>
</linearGradient>
<rect x="347.992" y="144.602" style="fill:url(#SVGID_00000148630302048098093820000017896620500067607221_);" width="79.309" height="1.934"/>
<linearGradient id="SVGID_00000052070929329488477720000012829153650119020733_" gradientUnits="userSpaceOnUse" x1="345.4659" y1="145.5692" x2="790.9305" y2="145.5692">
	<stop  offset="0" style="stop-color:#AE8626"/>
	<stop  offset="0.25" style="stop-color:#F6D77D"/>
	<stop  offset="0.5" style="stop-color:#D2AC47"/>
	<stop  offset="0.75" style="stop-color:#EDC968"/>
	<stop  offset="1" style="stop-color:#AE8626"/>
</linearGradient>
<rect x="722.786" y="144.602" style="fill:url(#SVGID_00000052070929329488477720000012829153650119020733_);" width="79.31" height="1.934"/>
<linearGradient id="SVGID_00000117638038791565034300000012060668209743364279_" gradientUnits="userSpaceOnUse" x1="115.2419" y1="-52.7294" x2="115.2419" y2="271.5867">
	<stop  offset="0" style="stop-color:#AE8626"/>
	<stop  offset="1" style="stop-color:#F6D77D"/>
</linearGradient>
<path style="fill:url(#SVGID_00000117638038791565034300000012060668209743364279_);" d="M23.216,160.205h-0.377v1.872h56.118
	V30.582c10.475,0.559,37.221,14.218,56.858,28.059c2.151,1.522,4.246,3.073,6.271,4.637c0.167,0.14,0.349,0.265,0.517,0.405
	c0.056,0.028,0.098,0.07,0.14,0.098c2.723,2.109,5.307,4.246,7.765,6.383c1.132,0.978,2.221,1.969,3.296,2.961
	c0.098,0.084,0.195,0.181,0.307,0.279c1.09,1.006,2.151,2.025,3.185,3.058c2.248,2.235,4.371,4.469,6.341,6.704
	c1.97,2.221,3.785,4.469,5.461,6.718c0.726,0.978,1.438,1.955,2.095,2.933c0,0.014,0.014,0.028,0.014,0.028
	c11.187,16.229,14.176,31.998,7.067,44.358c-0.936,1.592-2.011,3.1-3.254,4.539c1.564,1.103,3.296,2.081,5.139,2.975
	c1.509,0.726,3.059,1.382,4.651,1.955c14.511-10.908,22.835-27.123,22.835-46.886c0-13.729-4.05-26.062-11.536-36.509
	c-6.536-9.148-15.671-16.844-27.011-22.779c-16.704-8.757-38.171-13.659-63.018-13.659H22.839v1.872h0.377
	c10.279,0,17.011,6.732,17.011,17.025v97.445C40.228,153.473,33.496,160.205,23.216,160.205z"/>
<linearGradient id="SVGID_00000134937415522862738090000017846900627543095984_" gradientUnits="userSpaceOnUse" x1="246.6534" y1="-52.7294" x2="246.6534" y2="271.5867">
	<stop  offset="0" style="stop-color:#AE8626"/>
	<stop  offset="1" style="stop-color:#F6D77D"/>
</linearGradient>
<path style="fill:url(#SVGID_00000134937415522862738090000017846900627543095984_);" d="M314.964,28.71h0.377v-1.872H232.1
	c-20.643,0-38.953,3.38-54.135,9.567c10.056,6.047,18.296,13.491,24.512,22.165c19.623-13.827,46.285-27.43,56.746-27.989v131.495
	h56.118v-1.872h-0.377c-10.28,0-17.025-6.732-17.025-17.025V45.735C297.939,35.442,304.684,28.71,314.964,28.71z"/>
<linearGradient id="SVGID_00000075874877011764675090000008192411483502522790_" gradientUnits="userSpaceOnUse" x1="190.4728" y1="-52.7295" x2="190.4728" y2="271.5867">
	<stop  offset="0" style="stop-color:#AE8626"/>
	<stop  offset="1" style="stop-color:#F6D77D"/>
</linearGradient>
<path style="fill:url(#SVGID_00000075874877011764675090000008192411483502522790_);" d="M249.668,101.443
	c-5.986,35.768-23.946,50.948-40.971,55.077c-9.183,1.895-17.797,0.159-20.6-0.529c-0.668-0.177-1.336-0.354-1.988-0.548
	c-3.352-0.977-6.48-2.192-9.372-3.589c-2.793-1.341-5.349-2.877-7.64-4.595c-2.235-1.676-4.218-3.506-5.922-5.503
	c-1.243-1.439-2.333-2.961-3.268-4.553c-6.523-11.341-4.539-25.545,4.469-40.35c-0.559-0.796-1.104-1.536-1.62-2.235
	c-6.202-8.31-14.568-16.578-24.875-24.581c-4.791,8.869-7.347,18.869-7.347,29.749c0,19.777,8.324,35.978,22.849,46.886
	c2.5,1.885,5.196,3.617,8.058,5.182c2.417,1.341,4.972,2.542,7.64,3.617c3.478,1.397,7.151,2.598,11.006,3.561
	c3.876,0.976,7.942,1.721,12.178,2.232c-0.001,0.002-0.003,0.002-0.004,0.004c0.029,0.003,0.061,0.005,0.09,0.008
	c4.406,0.528,8.995,0.801,13.756,0.801h44.302v-0.381v-11.854v-48.347C250.41,101.033,249.744,100.987,249.668,101.443z"/>
<linearGradient id="SVGID_00000132090101286243073470000016766119288640314535_" gradientUnits="userSpaceOnUse" x1="122.9237" y1="101.1239" x2="122.9237" y2="162.0715">
	<stop  offset="0" style="stop-color:#AE8626"/>
	<stop  offset="1" style="stop-color:#F6D77D"/>
</linearGradient>
<path style="fill:url(#SVGID_00000132090101286243073470000016766119288640314535_);" d="M158.564,158.772
	c-1.838-0.996-3.648-2.088-5.378-3.235c-0.089-0.059-0.193-0.076-0.296-0.046c-15.815,4.614-55.944,2.094-65.341-54.048
	c-0.076-0.456-0.742-0.409-0.742,0.053v60.201c0,0.207,0.168,0.375,0.375,0.375h45.854c9.364,0,18.08-1.052,26.003-3.039
	C158.896,158.96,158.723,158.859,158.564,158.772z"/>
</svg>
